<svg width="250" height="100" viewBox="0 0 250 100" fill="none" xmlns="http://www.w3.org/2000/svg">
<g clip-path="url(#clip0_102_1599)">
<rect width="250" height="100" fill="white"/>
<path d="M116.653 49.5926C123.264 45.5713 127.692 38.2913 127.692 30.0011H121.05C121.05 38.9698 113.751 46.2696 104.782 46.2696H86.6167V30.0011H79.9756V69.1792H86.6167V52.9107H104.782C113.751 52.9107 121.05 60.2105 121.05 69.1792H127.692C127.692 60.8889 123.264 53.6139 116.653 49.5876V49.5926Z" fill="#003035"/>
<path d="M241.913 69.1842H250L222.455 30.739C222.173 30.3428 221.717 30.11 221.232 30.11C220.746 30.11 220.291 30.3428 220.009 30.739L192.464 69.1842H200.551L207.43 59.5865H235.044L241.923 69.1842H241.913ZM212.134 53.0147L221.232 40.3218L230.329 53.0147H212.139H212.134Z" fill="#003035"/>
<path d="M175.863 30.0308H147.66C144.936 30.0308 142.722 32.2445 142.722 34.9683V69.1792H149.294V59.5766H175.863C184.01 59.5766 190.636 52.9503 190.636 44.8037C190.636 36.657 184.01 30.0308 175.863 30.0308ZM175.576 53.0048H149.299V37.6921C149.299 37.0929 149.784 36.6026 150.388 36.6026H175.868C180.578 36.6026 184.371 40.5892 184.049 45.3633C183.757 49.7164 179.944 53.0048 175.576 53.0048Z" fill="#003035"/>
<path d="M55.6348 59.3834L55.5952 59.423L37.5092 77.509C37.5092 77.509 37.4745 77.5536 37.4547 77.5734L29.833 85.1902L24.4349 79.7921C24.4349 79.7921 24.4349 79.7921 24.43 79.7871L4.07084 59.4181C1.35695 56.7042 0 53.1484 0 49.5876C0 46.0319 1.35695 42.4761 4.07084 39.7622L28.1789 15.6541C28.1789 15.6541 28.1938 15.6392 28.1987 15.6343L29.833 14L55.3426 39.5096L55.6001 39.7622C56.447 40.609 57.1403 41.5401 57.7247 42.5206C57.8435 42.7187 57.9723 42.9168 58.0813 43.1199C58.1555 43.2585 58.21 43.4071 58.2794 43.5507C58.4081 43.8182 58.5418 44.0806 58.6508 44.353C58.7053 44.4917 58.7449 44.6303 58.7944 44.769C58.8984 45.0513 59.0074 45.3336 59.0915 45.6258C59.1312 45.7694 59.1609 45.913 59.1955 46.0517C59.2698 46.3439 59.354 46.6311 59.4085 46.9233C59.4382 47.0768 59.4531 47.2303 59.4778 47.3888C59.5224 47.676 59.5719 47.9583 59.6016 48.2456C59.6165 48.4189 59.6165 48.5922 59.6264 48.7656C59.6413 49.0379 59.666 49.3054 59.666 49.5777C59.666 49.7659 59.6462 49.9541 59.6413 50.1423C59.6314 50.3949 59.6314 50.6524 59.6066 50.905C59.5868 51.108 59.5472 51.3111 59.5174 51.5141C59.4828 51.7518 59.458 51.9895 59.4134 52.2223C59.3738 52.4402 59.3094 52.6482 59.2599 52.8612C59.2054 53.0791 59.1609 53.3019 59.1014 53.5198C59.0371 53.7427 58.9479 53.9655 58.8687 54.1834C58.7994 54.3865 58.735 54.5895 58.6557 54.7876C58.5666 55.0105 58.4576 55.2234 58.3536 55.4413C58.2645 55.6345 58.1853 55.8276 58.0862 56.0208C57.9723 56.2337 57.8435 56.4417 57.7197 56.6497C57.6108 56.833 57.5117 57.0261 57.3929 57.2044C57.2592 57.4074 57.1056 57.5956 56.962 57.7937C56.8333 57.972 56.7095 58.1552 56.5708 58.3286C56.4222 58.5118 56.2538 58.6851 56.0954 58.8585C55.9418 59.0268 55.8032 59.2002 55.6397 59.3636" fill="#B1DFEE"/>
<path d="M10.1573 33.6757L4.07084 39.7622C-1.35695 45.19 -1.35695 53.9903 4.07084 59.4181L29.838 85.1852L37.4596 77.5685C42.0406 72.9875 42.0406 65.559 37.4596 60.9781L10.1573 33.6757Z" fill="url(#paint0_linear_102_1599)"/>
<path d="M55.6348 59.3834C61.023 53.9507 61.013 45.185 55.5952 39.7671L29.833 14L28.1987 15.6343C23.6921 20.1409 23.6921 27.4407 28.1987 31.9473L55.6348 59.3834Z" fill="url(#paint1_linear_102_1599)"/>
<path style="mix-blend-mode:multiply" d="M9.8651 65.2123L37.7419 37.3405C42.001 33.0814 42.001 26.1729 37.7419 21.9139L29.833 14L4.07084 39.7622C-1.35695 45.19 -1.35695 53.9903 4.07084 59.4181L9.8651 65.2123Z" fill="url(#paint2_linear_102_1599)"/>
<path style="mix-blend-mode:multiply" d="M55.3426 39.5096L24.4399 70.4123C21.8498 73.0024 21.8498 77.1971 24.4399 79.7871L29.838 85.1852L55.6001 59.423C61.0279 53.9953 61.0279 45.1949 55.6001 39.7671L55.3426 39.5146V39.5096Z" fill="url(#paint3_linear_102_1599)"/>
</g>
<defs>
<linearGradient id="paint0_linear_102_1599" x1="-0.827044" y1="59.428" x2="61.231" y2="59.428" gradientUnits="userSpaceOnUse">
<stop stop-color="#00AC69"/>
<stop offset="1" stop-color="#95D4E9"/>
</linearGradient>
<linearGradient id="paint1_linear_102_1599" x1="24.8212" y1="36.6917" x2="59.671" y2="36.6917" gradientUnits="userSpaceOnUse">
<stop stop-color="#00AC69"/>
<stop offset="1" stop-color="#95D4E9"/>
</linearGradient>
<linearGradient id="paint2_linear_102_1599" x1="0" y1="39.6037" x2="40.9362" y2="39.6037" gradientUnits="userSpaceOnUse">
<stop stop-color="#00AC69"/>
<stop offset="0.84" stop-color="#95D4E9"/>
</linearGradient>
<linearGradient id="paint3_linear_102_1599" x1="22.4986" y1="62.3449" x2="59.671" y2="62.3449" gradientUnits="userSpaceOnUse">
<stop stop-color="#00AC69"/>
<stop offset="1" stop-color="#95D4E9"/>
</linearGradient>
<clipPath id="clip0_102_1599">
<rect width="250" height="100" fill="white"/>
</clipPath>
</defs>
</svg>
