<svg id="Device" xmlns="http://www.w3.org/2000/svg" width="858" height="1720" viewBox="0 0 858 1720">
  <defs>
    <style>
      .cls-1, .cls-4, .cls-5, .cls-7, .cls-8 {
        fill: #fff;
      }

      .cls-2 {
        fill: #f0f4fa;
      }

      .cls-2, .cls-3, .cls-6, .cls-9 {
        fill-rule: evenodd;
      }

      .cls-10, .cls-3 {
        fill: #fafbfd;
      }

      .cls-4 {
        stroke: #f1f3f5;
      }

      .cls-4, .cls-7 {
        stroke-width: 8px;
      }

      .cls-5 {
        stroke: #cbd7e6;
      }

      .cls-5, .cls-8 {
        stroke-width: 4px;
      }

      .cls-6 {
        fill: #cbd7e6;
      }

      .cls-7, .cls-8 {
        stroke: #00c982;
      }

      .cls-9 {
        fill: #00c982;
      }
    </style>
  </defs>
  <rect id="white_bg" data-name="white bg" class="cls-1" width="858" height="1720"/>
  <path id="screen_top" data-name="screen top" class="cls-2" d="M154,64h55c14.438,0,17,9.733,17,21,0,20.3,12.76,39,49,39H588c33.542,0,46-19.374,46-40,0-14.868,6.691-20,17-20h57c76.335,0,92,64.558,92,88V1562c0,58.33-40.263,96-96,96H153c-65.535,0-93-51.14-93-105V157C60,99.1,100.96,64,154,64Z"/>
  <path id="screen_bottom" data-name="screen bottom" class="cls-3" d="M800,742v820c0,58.33-40.263,96-96,96H153c-65.535,0-93-51.14-93-105V742H800Z"/>
  <g id="Answer4">
    <rect id="question_bg_copy_3" data-name="question bg copy 3" class="cls-4" x="103" y="1471" width="652" height="119" rx="15" ry="15"/>
    <circle id="Ellipse_1_copy_3" data-name="Ellipse 1 copy 3" class="cls-5" cx="159" cy="1531" r="19"/>
    <path id="Call_someone" data-name="Call someone" class="cls-6" d="M237.108,1539.34a15.8,15.8,0,0,1-11.91,4.86c-8.557,0-14.859-6.19-14.859-15.56s6.244-15.55,14.859-15.55c5.55,0,10,2.89,11.563,4.86l2.371-4.51c-2.2-2.14-6.707-5.26-14.165-5.26-11.448,0-20.409,8.15-20.409,20.58s8.788,20.58,20.409,20.58c7.574,0,12.083-3.12,14.57-5.89ZM266,1532.69c0-4.68-1.1-6.99-2.949-8.9-1.85-1.85-4.51-3.12-9.077-3.12a21.118,21.118,0,0,0-10.292,2.77l1.677,3.7a16.848,16.848,0,0,1,8.268-2.37c3.989,0,6.822,2.08,6.822,6.25v1.09l-7.342.29c-6.36.29-10.754,3.01-10.754,8.39,0,5.32,4.394,8.5,9.482,8.5a11.317,11.317,0,0,0,8.73-4.11l0.058,3.47H266v-15.96Zm-5.493,8.67a8.6,8.6,0,0,1-7,3.99c-3.642,0-5.666-2.14-5.666-4.74s1.793-4.51,6.244-4.74l6.418-.4v5.89Zm18.373-32.6h-5.493v39.89h5.493v-39.89Zm13.7,0h-5.492v39.89h5.492v-39.89Zm37.917,31.85a6.818,6.818,0,0,0-2.2-5.09,10.639,10.639,0,0,0-3.18-1.96c-1.157-.46-2.2-0.81-3.7-1.33-2.717-.87-5.376-1.85-5.376-4.11s1.734-3.41,4.394-3.41a10.1,10.1,0,0,1,6.938,2.95l2.312-3.41c-1.734-1.85-4.509-3.58-9.366-3.58s-9.251,2.77-9.251,7.86a7.084,7.084,0,0,0,4.337,6.59,21.021,21.021,0,0,0,3.758,1.45c1.85,0.63,6.186,1.56,6.186,4.56s-2.717,3.93-5.261,3.93a11.249,11.249,0,0,1-8.1-3.93l-2.659,3.24a13.145,13.145,0,0,0,10.7,4.92,11.72,11.72,0,0,0,7.632-2.43A7.837,7.837,0,0,0,330.493,1540.61Zm32.655-5.61c0-8.49-6.36-14.33-14.512-14.33-8.21,0-14.57,5.84-14.57,14.33,0,8.56,6.36,14.29,14.57,14.29C356.788,1549.29,363.148,1543.56,363.148,1535Zm-5.608-.17c0,5.44-3.412,9.71-8.9,9.71-5.55,0-8.962-4.27-8.962-9.71,0-5.38,3.412-9.65,8.962-9.65C354.128,1525.18,357.54,1529.45,357.54,1534.83Zm51.153-2.83c0-5.96-1.966-11.33-9.308-11.33a9.528,9.528,0,0,0-8.731,5.43c-1.272-3.58-4.105-5.43-8.152-5.43a9.063,9.063,0,0,0-7.921,4.85h-0.173l0.058-4.33h-5.551v27.46h5.551v-14.28c0-4.92,2.2-9.14,6.591-9.14,3.989,0,4.972,3.36,4.972,7.4v16.02h5.55v-14.28c0-4.92,2.2-9.14,6.591-9.14,4.452,0,5.03,4.22,5.03,7.4v16.02h5.493V1532Zm32.472,1.79c0-7.69-5.377-13.12-13.008-13.12s-13.934,5.55-13.934,14.22c0,8.73,5.608,14.4,13.76,14.4,8.21,0,11.737-4.05,12.084-4.34l-2.313-3.18a15.224,15.224,0,0,1-9.077,3.18c-5.088,0-8.557-3.3-8.846-8.73h21.161A24.071,24.071,0,0,0,441.165,1533.79Zm-21.276-1.27a8.075,8.075,0,0,1,8.094-7.86c5.55,0,7.863,4.79,7.921,7.86H419.889Zm53.987,2.48c0-8.49-6.36-14.33-14.512-14.33-8.21,0-14.57,5.84-14.57,14.33,0,8.56,6.36,14.29,14.57,14.29C467.516,1549.29,473.876,1543.56,473.876,1535Zm-5.608-.17c0,5.44-3.412,9.71-8.9,9.71-5.551,0-8.962-4.27-8.962-9.71,0-5.38,3.411-9.65,8.962-9.65C464.856,1525.18,468.268,1529.45,468.268,1534.83Zm35.253-2.43c0-6.59-2.023-11.73-9.828-11.73a9.286,9.286,0,0,0-8.384,4.85h-0.173l0.058-4.33h-5.551v27.46h5.551v-13.82c0-5.26,1.908-9.6,7.053-9.6,4.915,0,5.724,3.47,5.724,8.1v15.32h5.55V1532.4ZM536,1533.79c0-7.69-5.377-13.12-13.009-13.12s-13.934,5.55-13.934,14.22c0,8.73,5.609,14.4,13.761,14.4,8.21,0,11.737-4.05,12.083-4.34l-2.312-3.18a15.227,15.227,0,0,1-9.077,3.18c-5.088,0-8.557-3.3-8.846-8.73h21.161A24.071,24.071,0,0,0,536,1533.79Zm-21.276-1.27a8.074,8.074,0,0,1,8.094-7.86c5.55,0,7.863,4.79,7.921,7.86H514.724Z"/>
  </g>
  <g id="Answer3">
    <rect id="question_bg_copy_2" data-name="question bg copy 2" class="cls-7" x="103" y="1322" width="652" height="119" rx="15" ry="15"/>
    <circle id="Ellipse_1_copy_2" data-name="Ellipse 1 copy 2" class="cls-8" cx="159" cy="1382" r="19"/>
    <path id="Is_the_scene_safe_" data-name="Is the scene safe?" class="cls-9" d="M212.421,1358.76h-5.609v39.89h5.609v-39.89Zm26.7,31.85a6.814,6.814,0,0,0-2.2-5.09,10.614,10.614,0,0,0-3.18-1.96c-1.156-.46-2.2-0.81-3.7-1.33-2.717-.87-5.377-1.85-5.377-4.11s1.735-3.41,4.394-3.41a10.1,10.1,0,0,1,6.938,2.95l2.313-3.41c-1.735-1.85-4.51-3.58-9.366-3.58s-9.251,2.77-9.251,7.86a7.085,7.085,0,0,0,4.336,6.59,21.082,21.082,0,0,0,3.758,1.45c1.85,0.63,6.187,1.56,6.187,4.56s-2.718,3.93-5.262,3.93a11.246,11.246,0,0,1-8.094-3.93l-2.66,3.24a13.147,13.147,0,0,0,10.7,4.92,11.72,11.72,0,0,0,7.632-2.43A7.834,7.834,0,0,0,239.125,1390.61Zm29.933,3.3a6.754,6.754,0,0,1-2.833.63,2.883,2.883,0,0,1-2.833-1.38c-0.636-1.16-.694-2.72-0.694-5.03V1375.7h6.591v-4.46H262.7v-8.21h-5.551v8.21H253.1v4.46h4.047v12.54c0,4.34.232,6.48,1.388,8.21a6.44,6.44,0,0,0,5.839,2.84,13.851,13.851,0,0,0,5.03-.93Zm29.131-11.62c0-6.54-1.908-11.62-9.829-11.62a9.379,9.379,0,0,0-8.441,4.85H279.8v-16.76H274.31v39.89H279.8v-13.59c0-5.49,2.139-9.83,7.169-9.83s5.666,3.94,5.666,7.87v15.55h5.551v-16.36Zm32.594,1.5c0-7.69-5.377-13.12-13.009-13.12s-13.934,5.55-13.934,14.22c0,8.73,5.609,14.4,13.761,14.4,8.21,0,11.737-4.05,12.083-4.34l-2.312-3.18a15.227,15.227,0,0,1-9.077,3.18c-5.088,0-8.557-3.3-8.846-8.73H330.61A24.071,24.071,0,0,0,330.783,1383.79Zm-21.277-1.27a8.075,8.075,0,0,1,8.1-7.86c5.55,0,7.863,4.79,7.921,7.86H309.506Zm56.757,8.09a6.814,6.814,0,0,0-2.2-5.09,10.614,10.614,0,0,0-3.18-1.96c-1.156-.46-2.2-0.81-3.7-1.33-2.717-.87-5.377-1.85-5.377-4.11s1.734-3.41,4.394-3.41a10.1,10.1,0,0,1,6.938,2.95l2.313-3.41c-1.735-1.85-4.51-3.58-9.367-3.58s-9.25,2.77-9.25,7.86a7.085,7.085,0,0,0,4.336,6.59,21.082,21.082,0,0,0,3.758,1.45c1.85,0.63,6.186,1.56,6.186,4.56s-2.717,3.93-5.261,3.93a11.246,11.246,0,0,1-8.094-3.93l-2.66,3.24a13.147,13.147,0,0,0,10.7,4.92,11.72,11.72,0,0,0,7.632-2.43A7.837,7.837,0,0,0,366.263,1390.61Zm26.469,0.47a11.432,11.432,0,0,1-8.326,3.46c-5.319,0-8.961-3.99-8.961-9.77s4.047-9.48,8.9-9.48a10.856,10.856,0,0,1,8.21,3.35l1.965-4.04c-0.289-.35-3.3-3.93-10.638-3.93a13.855,13.855,0,0,0-14.049,14.28c0,8.78,6.475,14.34,13.876,14.34,7.342,0,10.175-3.36,10.985-4.17Zm31.5-7.29c0-7.69-5.377-13.12-13.009-13.12s-13.934,5.55-13.934,14.22c0,8.73,5.608,14.4,13.76,14.4,8.21,0,11.737-4.05,12.084-4.34l-2.313-3.18a15.224,15.224,0,0,1-9.077,3.18c-5.088,0-8.557-3.3-8.846-8.73h21.161A23.935,23.935,0,0,0,424.23,1383.79Zm-21.277-1.27a8.075,8.075,0,0,1,8.094-7.86c5.551,0,7.863,4.79,7.921,7.86H402.953Zm50.634-.12c0-6.59-2.024-11.73-9.829-11.73a9.285,9.285,0,0,0-8.383,4.85H435.2l0.058-4.33h-5.55v27.46h5.55v-13.82c0-5.26,1.908-9.6,7.054-9.6,4.914,0,5.723,3.47,5.723,8.1v15.32h5.551V1382.4Zm32.478,1.39c0-7.69-5.377-13.12-13.008-13.12s-13.934,5.55-13.934,14.22c0,8.73,5.608,14.4,13.76,14.4,8.21,0,11.737-4.05,12.084-4.34l-2.313-3.18a15.224,15.224,0,0,1-9.077,3.18c-5.088,0-8.557-3.3-8.846-8.73h21.161A24.071,24.071,0,0,0,486.065,1383.79Zm-21.276-1.27a8.075,8.075,0,0,1,8.094-7.86c5.551,0,7.863,4.79,7.921,7.86H464.789Zm56.757,8.09a6.815,6.815,0,0,0-2.2-5.09,10.621,10.621,0,0,0-3.179-1.96c-1.157-.46-2.2-0.81-3.7-1.33-2.717-.87-5.377-1.85-5.377-4.11s1.735-3.41,4.394-3.41a10.1,10.1,0,0,1,6.938,2.95l2.313-3.41c-1.734-1.85-4.51-3.58-9.366-3.58s-9.251,2.77-9.251,7.86a7.085,7.085,0,0,0,4.336,6.59,21.082,21.082,0,0,0,3.758,1.45c1.851,0.63,6.187,1.56,6.187,4.56s-2.718,3.93-5.261,3.93a11.249,11.249,0,0,1-8.1-3.93l-2.659,3.24a13.144,13.144,0,0,0,10.7,4.92,11.72,11.72,0,0,0,7.632-2.43A7.837,7.837,0,0,0,521.546,1390.61Zm26.757-7.92c0-4.68-1.1-6.99-2.948-8.9-1.85-1.85-4.51-3.12-9.077-3.12a21.118,21.118,0,0,0-10.292,2.77l1.677,3.7a16.844,16.844,0,0,1,8.268-2.37c3.989,0,6.822,2.08,6.822,6.25v1.09l-7.343.29c-6.359.29-10.753,3.01-10.753,8.39,0,5.32,4.394,8.5,9.481,8.5a11.32,11.32,0,0,0,8.731-4.11l0.058,3.47H548.3v-15.96Zm-5.492,8.67a8.6,8.6,0,0,1-7,3.99c-3.642,0-5.666-2.14-5.666-4.74s1.792-4.51,6.244-4.74l6.418-.4v5.89Zm26.814-32.6a13.686,13.686,0,0,0-4.741-.64,8.3,8.3,0,0,0-6.591,3.01c-1.156,1.44-1.85,3.75-1.85,7.34v2.77h-3.932v4.46h3.932v22.95h5.492V1375.7h6.534v-4.46h-6.534v-3.06c0-3.12.578-5.84,4.221-5.84a11.349,11.349,0,0,1,3.122.52Zm26.7,25.03c0-7.69-5.377-13.12-13.009-13.12s-13.934,5.55-13.934,14.22c0,8.73,5.608,14.4,13.76,14.4,8.21,0,11.737-4.05,12.084-4.34l-2.313-3.18a15.224,15.224,0,0,1-9.077,3.18c-5.088,0-8.557-3.3-8.846-8.73h21.161A23.935,23.935,0,0,0,596.329,1383.79Zm-21.277-1.27a8.075,8.075,0,0,1,8.094-7.86c5.551,0,7.863,4.79,7.921,7.86H575.052Zm48.148-14.86c0-4.97-4.163-9.48-10.986-9.48-6.764,0-9.828,3.7-10.811,5.43l2.428,3.47a8.66,8.66,0,0,1,7.574-4.28c3.874,0,6.475,2.03,6.475,5.44a5.649,5.649,0,0,1-1.85,4.22l-3.353,3.06c-1.966,1.85-4.163,3.82-4.047,8.39l0.115,4.1h4.684l0.115-4.05a5.628,5.628,0,0,1,.463-2.14c0.694-1.67,2.428-2.89,4.452-4.85C620.887,1374.6,623.2,1372.34,623.2,1367.66Zm-8.268,27.98a3.823,3.823,0,1,0-3.816,3.59A3.508,3.508,0,0,0,614.932,1395.64Z"/>
    <path class="cls-9" d="M161,1390c3.375-3.38,18.382-17.38,22-21-2.216-2.22-3.073-2.07-5-4-4.062,4.06-13.592,12.59-17,16-3.146-3.15-5.9-5.9-8-8-1.817,1.82-3.306,3.31-5,5C150.615,1380.61,157.172,1386.17,161,1390Z"/>
  </g>
  <g id="Answer2">
    <rect id="question_bg_copy" data-name="question bg copy" class="cls-4" x="103" y="1172" width="652" height="119" rx="15" ry="15"/>
    <circle id="Ellipse_1_copy" data-name="Ellipse 1 copy" class="cls-5" cx="159" cy="1232" r="19"/>
    <path id="What_happened_" data-name="What happened?" class="cls-6" d="M249.944,1208.76l-8.615,31.45-9.193-31.45h-5.724l-9.193,31.45-8.614-31.45h-5.9l11.506,39.95h5.492l9.54-32.26,9.6,32.26h5.492l11.506-39.95h-5.9Zm34.145,23.53c0-6.54-1.908-11.62-9.829-11.62a9.381,9.381,0,0,0-8.441,4.85H265.7v-16.76h-5.493v39.89H265.7v-13.59c0-5.49,2.139-9.83,7.169-9.83s5.666,3.94,5.666,7.87v15.55h5.55v-16.36Zm28.836,0.4c0-4.68-1.1-6.99-2.948-8.9-1.85-1.85-4.51-3.12-9.077-3.12a21.118,21.118,0,0,0-10.292,2.77l1.677,3.7a16.844,16.844,0,0,1,8.268-2.37c3.989,0,6.822,2.08,6.822,6.25v1.09l-7.343.29c-6.36.29-10.754,3.01-10.754,8.39,0,5.32,4.394,8.5,9.482,8.5a11.32,11.32,0,0,0,8.731-4.11l0.057,3.47h5.377v-15.96Zm-5.492,8.67a8.6,8.6,0,0,1-7,3.99c-3.642,0-5.666-2.14-5.666-4.74s1.792-4.51,6.244-4.74l6.418-.4v5.89Zm25.6,2.55a6.748,6.748,0,0,1-2.833.63,2.884,2.884,0,0,1-2.833-1.38c-0.636-1.16-.694-2.72-0.694-5.03V1225.7h6.591v-4.46h-6.591v-8.21h-5.551v8.21h-4.047v4.46h4.047v12.54c0,4.34.232,6.48,1.388,8.21a6.441,6.441,0,0,0,5.84,2.84,13.857,13.857,0,0,0,5.03-.93Zm40.631-11.62c0-6.54-1.908-11.62-9.829-11.62a9.379,9.379,0,0,0-8.441,4.85h-0.116v-16.76h-5.492v39.89h5.492v-13.59c0-5.49,2.139-9.83,7.169-9.83s5.666,3.94,5.666,7.87v15.55h5.551v-16.36Zm28.836,0.4c0-4.68-1.1-6.99-2.949-8.9-1.85-1.85-4.509-3.12-9.077-3.12a21.114,21.114,0,0,0-10.291,2.77l1.676,3.7a16.852,16.852,0,0,1,8.268-2.37c3.99,0,6.823,2.08,6.823,6.25v1.09l-7.343.29c-6.36.29-10.754,3.01-10.754,8.39,0,5.32,4.394,8.5,9.482,8.5a11.315,11.315,0,0,0,8.73-4.11l0.058,3.47H402.5v-15.96Zm-5.493,8.67a8.6,8.6,0,0,1-7,3.99c-3.643,0-5.666-2.14-5.666-4.74s1.792-4.51,6.244-4.74l6.417-.4v5.89Zm41.269-6.47c0-8.15-5.146-14.22-13.24-14.22a11.629,11.629,0,0,0-9.771,4.85h-0.116v-4.33H409.83v38.21h5.55v-15.09l0.058,0.06a10.662,10.662,0,0,0,9.482,4.92C433.072,1249.29,438.276,1243.04,438.276,1234.89Zm-5.666-.06c0,5.49-3.238,9.71-8.731,9.71s-8.73-4.22-8.73-9.71,3.238-9.65,8.73-9.65S432.61,1229.34,432.61,1234.83Zm40.109,0.06c0-8.15-5.146-14.22-13.24-14.22a11.63,11.63,0,0,0-9.771,4.85h-0.116v-4.33h-5.319v38.21h5.551v-15.09l0.057,0.06a10.662,10.662,0,0,0,9.482,4.92C467.516,1249.29,472.719,1243.04,472.719,1234.89Zm-5.666-.06c0,5.49-3.238,9.71-8.73,9.71s-8.731-4.22-8.731-9.71,3.238-9.65,8.731-9.65S467.053,1229.34,467.053,1234.83Zm36.525-1.04c0-7.69-5.377-13.12-13.009-13.12s-13.934,5.55-13.934,14.22c0,8.73,5.609,14.4,13.761,14.4,8.21,0,11.736-4.05,12.083-4.34l-2.312-3.18a15.228,15.228,0,0,1-9.078,3.18c-5.087,0-8.556-3.3-8.845-8.73H503.4A23.935,23.935,0,0,0,503.578,1233.79Zm-21.277-1.27a8.075,8.075,0,0,1,8.1-7.86c5.55,0,7.863,4.79,7.921,7.86H482.3Zm50.634-.12c0-6.59-2.024-11.73-9.829-11.73a9.285,9.285,0,0,0-8.383,4.85h-0.174l0.058-4.33h-5.55v27.46h5.55v-13.82c0-5.26,1.908-9.6,7.054-9.6,4.914,0,5.724,3.47,5.724,8.1v15.32h5.55V1232.4Zm32.479,1.39c0-7.69-5.377-13.12-13.009-13.12s-13.934,5.55-13.934,14.22c0,8.73,5.608,14.4,13.76,14.4,8.21,0,11.737-4.05,12.084-4.34L562,1241.77a15.224,15.224,0,0,1-9.077,3.18c-5.088,0-8.557-3.3-8.846-8.73H565.24A23.935,23.935,0,0,0,565.414,1233.79Zm-21.277-1.27a8.075,8.075,0,0,1,8.094-7.86c5.551,0,7.863,4.79,7.921,7.86H544.137Zm53.351-23.76H592v16.7H591.88a11.1,11.1,0,0,0-9.6-4.79c-8.036,0-13.24,6.12-13.24,14.22,0,8.15,5.2,14.4,13.356,14.4a11.181,11.181,0,0,0,9.655-5.03h0.116v4.39h5.319v-39.89Zm-5.319,26.07c0,5.49-3.238,9.71-8.73,9.71s-8.731-4.22-8.731-9.71,3.238-9.65,8.731-9.65S592.169,1229.34,592.169,1234.83Zm34.616-17.17c0-4.97-4.162-9.48-10.985-9.48-6.764,0-9.829,3.7-10.811,5.43l2.428,3.47a8.66,8.66,0,0,1,7.574-4.28c3.873,0,6.475,2.03,6.475,5.44a5.649,5.649,0,0,1-1.85,4.22l-3.353,3.06c-1.966,1.85-4.163,3.82-4.047,8.39l0.115,4.1h4.683l0.116-4.05a5.609,5.609,0,0,1,.463-2.14c0.693-1.67,2.428-2.89,4.451-4.85C624.473,1224.6,626.785,1222.34,626.785,1217.66Zm-8.267,27.98a3.823,3.823,0,1,0-3.816,3.59A3.508,3.508,0,0,0,618.518,1245.64Z"/>
  </g>
  <g id="Answer1">
    <rect id="question_bg" data-name="question bg" class="cls-4" x="103" y="1021" width="652" height="119" rx="15" ry="15"/>
    <circle class="cls-5" cx="159" cy="1081" r="19"/>
    <path id="Check_the_breathing" data-name="Check the breathing" class="cls-6" d="M237.108,1089.34a15.8,15.8,0,0,1-11.91,4.86c-8.557,0-14.859-6.19-14.859-15.56s6.244-15.55,14.859-15.55c5.55,0,10,2.89,11.563,4.86l2.371-4.51c-2.2-2.14-6.707-5.26-14.165-5.26-11.448,0-20.409,8.15-20.409,20.58s8.788,20.58,20.409,20.58c7.574,0,12.083-3.12,14.57-5.89Zm31.725-7.05c0-6.54-1.908-11.62-9.829-11.62a9.378,9.378,0,0,0-8.441,4.85h-0.116v-16.76h-5.493v39.89h5.493v-13.59c0-5.49,2.139-9.83,7.169-9.83s5.666,3.94,5.666,7.87v15.55h5.551v-16.36Zm32.594,1.5c0-7.69-5.377-13.12-13.009-13.12s-13.934,5.55-13.934,14.22c0,8.73,5.609,14.4,13.761,14.4,8.21,0,11.736-4.05,12.083-4.34l-2.312-3.18a15.227,15.227,0,0,1-9.077,3.18c-5.088,0-8.557-3.3-8.846-8.73h21.16A23.935,23.935,0,0,0,301.427,1083.79Zm-21.277-1.27a8.075,8.075,0,0,1,8.1-7.86c5.55,0,7.863,4.79,7.921,7.86H280.15Zm47.8,8.56a11.432,11.432,0,0,1-8.326,3.46c-5.319,0-8.961-3.99-8.961-9.77s4.047-9.48,8.9-9.48a10.854,10.854,0,0,1,8.21,3.35l1.965-4.04c-0.289-.35-3.3-3.93-10.638-3.93a13.855,13.855,0,0,0-14.049,14.28c0,8.78,6.475,14.34,13.876,14.34,7.342,0,10.175-3.36,10.985-4.17Zm19.125-9.54,10.754-10.35h-6.476l-11.216,10.98v-23.41h-5.493v39.89h5.493v-10.29l3.18-3.01,9.424,13.3h6.475Zm39.933,12.37a6.748,6.748,0,0,1-2.833.63,2.885,2.885,0,0,1-2.833-1.38c-0.636-1.16-.693-2.72-0.693-5.03V1075.7h6.591v-4.46H380.65v-8.21H375.1v8.21h-4.047v4.46H375.1v12.54c0,4.34.232,6.48,1.388,8.21a6.44,6.44,0,0,0,5.839,2.84,13.851,13.851,0,0,0,5.03-.93Zm29.132-11.62c0-6.54-1.908-11.62-9.829-11.62a9.378,9.378,0,0,0-8.441,4.85h-0.116v-16.76h-5.493v39.89h5.493v-13.59c0-5.49,2.139-9.83,7.169-9.83s5.666,3.94,5.666,7.87v15.55h5.551v-16.36Zm32.594,1.5c0-7.69-5.377-13.12-13.009-13.12s-13.934,5.55-13.934,14.22c0,8.73,5.609,14.4,13.761,14.4,8.21,0,11.736-4.05,12.083-4.34l-2.312-3.18a15.227,15.227,0,0,1-9.077,3.18c-5.088,0-8.557-3.3-8.846-8.73h21.16A23.935,23.935,0,0,0,448.735,1083.79Zm-21.277-1.27a8.075,8.075,0,0,1,8.095-7.86c5.55,0,7.863,4.79,7.921,7.86H427.458Zm66.991,2.37c0-8.1-5.2-14.22-13.24-14.22a11.2,11.2,0,0,0-9.6,4.79H471.5v-16.7H466v39.89h5.319v-4.34h0.116a11.112,11.112,0,0,0,9.655,4.98C489.245,1099.29,494.449,1093.04,494.449,1084.89Zm-5.666-.06c0,5.49-3.238,9.71-8.731,9.71s-8.788-4.22-8.788-9.71,3.3-9.65,8.788-9.65S488.783,1079.34,488.783,1084.83Zm26.753-13.7a7.758,7.758,0,0,0-2.891-.46,7.155,7.155,0,0,0-6.764,4.74h-0.174l0.058-4.22h-5.55v27.46h5.55v-13.7c0-4.05,1.156-6.19,1.677-6.94a5.755,5.755,0,0,1,4.509-2.31,7.327,7.327,0,0,1,3.007.57h0.231Zm29.131,12.66c0-7.69-5.377-13.12-13.009-13.12s-13.934,5.55-13.934,14.22c0,8.73,5.608,14.4,13.76,14.4,8.21,0,11.737-4.05,12.084-4.34l-2.313-3.18a15.224,15.224,0,0,1-9.077,3.18c-5.088,0-8.557-3.3-8.846-8.73h21.161A23.935,23.935,0,0,0,544.667,1083.79Zm-21.277-1.27a8.075,8.075,0,0,1,8.094-7.86c5.551,0,7.864,4.79,7.921,7.86H523.39Zm48.09,0.17c0-4.68-1.1-6.99-2.949-8.9-1.85-1.85-4.509-3.12-9.077-3.12a21.114,21.114,0,0,0-10.291,2.77l1.676,3.7a16.848,16.848,0,0,1,8.268-2.37c3.989,0,6.822,2.08,6.822,6.25v1.09l-7.342.29c-6.36.29-10.754,3.01-10.754,8.39,0,5.32,4.394,8.5,9.482,8.5a11.315,11.315,0,0,0,8.73-4.11l0.058,3.47h5.377v-15.96Zm-5.493,8.67a8.6,8.6,0,0,1-7,3.99c-3.642,0-5.666-2.14-5.666-4.74s1.793-4.51,6.245-4.74l6.417-.4v5.89Zm25.6,2.55a6.748,6.748,0,0,1-2.833.63,2.884,2.884,0,0,1-2.833-1.38c-0.636-1.16-.694-2.72-0.694-5.03V1075.7h6.591v-4.46h-6.591v-8.21h-5.55v8.21H575.63v4.46h4.047v12.54c0,4.34.231,6.48,1.388,8.21a6.439,6.439,0,0,0,5.839,2.84,13.851,13.851,0,0,0,5.03-.93Zm29.131-11.62c0-6.54-1.908-11.62-9.829-11.62a9.381,9.381,0,0,0-8.441,4.85h-0.115v-16.76H596.84v39.89h5.493v-13.59c0-5.49,2.139-9.83,7.169-9.83s5.666,3.94,5.666,7.87v15.55h5.55v-16.36Zm14.093-20.12a3.62,3.62,0,1,0-3.584,3.41A3.386,3.386,0,0,0,634.811,1062.17ZM634,1071.19h-5.551v27.46H634v-27.46Zm31.735,11.21c0-6.59-2.024-11.73-9.829-11.73a9.285,9.285,0,0,0-8.383,4.85h-0.174l0.058-4.33h-5.55v27.46h5.55v-13.82c0-5.26,1.908-9.6,7.054-9.6,4.914,0,5.723,3.47,5.723,8.1v15.32h5.551V1082.4Zm33.982-11.21h-5.493l0.058,4.33H694.11a10.979,10.979,0,0,0-9.6-4.85c-7.054,0-13.24,5.08-13.24,13.81s6.186,13.82,13.24,13.82a11.021,11.021,0,0,0,9.6-4.91h0.116v1.39c0,3.75-.983,6.36-2.081,7.69-1.1,1.38-3.412,3-7.517,3A17.4,17.4,0,0,1,674.8,1102l-2.6,3.88a21.166,21.166,0,0,0,12.257,4.1c6.822,0,10.234-2.77,12.257-5.26,2.024-2.43,3.007-5.78,3.007-11.85v-21.68Zm-5.32,13.29c0,5.21-3.064,9.31-8.73,9.31-5.608,0-8.73-4.1-8.73-9.31s3.122-9.36,8.73-9.36C691.335,1075.12,694.4,1079.28,694.4,1084.48Z"/>
  </g>
  <path id="After_an_injury_what_should_you_do_first_" data-name="After an injury, what should you do first?" class="cls-6" d="M129.228,827.782H118L100.632,873.95h11.224l3.274-9.287h16.436l3.274,9.287H146.6ZM117.6,856.244l5.746-16.569,5.746,16.569H117.6Zm73.541-15.166h-7.282v-8.953H173.1v8.953H162.013V838.94c0-2.472.8-4.276,3.942-4.276a16.6,16.6,0,0,1,3.942.6l0.534-7.416a29.514,29.514,0,0,0-7.282-.869c-4.143,0-7.283,1.336-9.221,3.408-1.937,2-2.672,5.211-2.672,8.886v1.8h-4.209v8.084h4.209V873.95h10.757V849.162H173.1v12.761c0,5.011.668,7.751,2.338,9.688s4.209,3.074,8.018,3.074a28.939,28.939,0,0,0,7.616-1.069l-0.534-8.352a9.971,9.971,0,0,1-3.207.6c-1.4,0-2.071-.267-2.539-0.8-0.535-.6-0.935-1.27-0.935-4.076V849.162h7.282v-8.084Zm36.594,15.433c0-9.621-6.749-16.1-16.5-16.1s-17.773,6.213-17.773,17.1,7.417,17.171,17.572,17.171c10.223,0,14.566-4.544,15.635-5.345l-4.21-5.546a18.531,18.531,0,0,1-9.888,3.14c-4.343,0-7.951-2.138-8.418-6.881H227.6S227.737,858.115,227.737,856.511Zm-23.519-2.538a6.709,6.709,0,0,1,6.815-6.615,6.64,6.64,0,0,1,6.748,6.615H204.218Zm50.7-12.962a7.691,7.691,0,0,0-3.34-.6c-3.541,0-6.281,1.67-8.152,5.278h-0.133l0.067-4.677h-10.69V873.95h10.69V859.318c0-3.675.868-5.813,1.67-6.882a6.276,6.276,0,0,1,4.944-2.405,8.611,8.611,0,0,1,3.875.8h0.468ZM301.2,855.376c0-5.546-1.4-8.753-3.942-11.158-2.606-2.4-6.147-3.808-12.294-3.808a32.428,32.428,0,0,0-14.1,3.34l2.806,6.949a21.04,21.04,0,0,1,10.089-2.94c4.276,0,6.748,1.8,6.748,5.278v0.735l-8.285.334c-6.08.267-12.828,2.74-12.828,10.089s6.147,10.49,11.959,10.49a12.284,12.284,0,0,0,9.421-4.21l0.2,3.475H301.2V855.376Zm-10.623,9.487a6.563,6.563,0,0,1-5.479,3.007c-2.94,0-5.011-1.537-5.011-4.076,0-2.472,1.938-3.875,5.211-4.009l5.279-.334v5.412Zm49.558-10.356c0-7.951-2.472-14.1-12.026-14.1a10.683,10.683,0,0,0-9.554,5.345h-0.134l0.067-4.744H307.8V873.95h10.69v-16.3c0-4.743,1.269-8.485,5.879-8.485,4.41,0,5.078,3.274,5.078,7.617V873.95h10.69V854.507Zm31.579-22.85c0-3.274-2.472-5.545-6.08-5.545s-6.08,2.271-6.08,5.545c0,3.341,2.472,5.546,6.08,5.546S371.711,835,371.711,831.657Zm-0.735,9.354h-10.69V873.95h10.69V841.011Zm39.545,13.5c0-7.951-2.472-14.1-12.026-14.1a10.685,10.685,0,0,0-9.555,5.345h-0.133l0.066-4.744h-10.69V873.95h10.69v-16.3c0-4.743,1.27-8.485,5.88-8.485,4.41,0,5.078,3.274,5.078,7.617V873.95h10.69V854.507Zm18.423-22.85c0-3.274-2.472-5.545-6.08-5.545s-6.08,2.271-6.08,5.545c0,3.341,2.472,5.546,6.08,5.546S428.944,835,428.944,831.657Zm-0.735,9.354h-10.69v31.6c0,3.541-.668,5.613-3.608,5.613a11.617,11.617,0,0,1-3.007-.4l-0.2,8.285a21.472,21.472,0,0,0,5.612.6c4.343,0,7.149-1.47,9.153-3.675s2.74-5.679,2.74-9.888V841.011Zm38.81,0h-10.69v17.5c0,4.343-1.738,7.349-5.546,7.349s-4.877-2.605-4.877-6.414v-18.44h-10.69v19.91c0,4.744.8,7.617,2.4,9.888,1.67,2.205,4.677,3.876,9.421,3.876a11.988,11.988,0,0,0,9.621-4.477l0.066,3.742h10.29V841.011Zm29.314,0a7.694,7.694,0,0,0-3.341-.6c-3.541,0-6.281,1.67-8.151,5.278h-0.134l0.067-4.677h-10.69V873.95h10.69V859.318c0-3.675.868-5.813,1.67-6.882a6.276,6.276,0,0,1,4.944-2.405,8.611,8.611,0,0,1,3.875.8h0.468Zm25.845,0-7.417,21.18-7.483-21.18H496.121l13.028,31.936-1.2,2.873c-0.868,2.138-2,2.138-3.207,2.138a14.5,14.5,0,0,1-3.942-.868l-2.138,7.884a24.085,24.085,0,0,0,9.154,1.6c5.612,0,8.285-3.608,10.69-9.487l14.7-36.079H522.178ZM540.6,864.2L534.923,883.3h8.752l7.216-19.108H540.6Zm71.072-23.184-5.812,21.046-6.348-21.046h-8.752l-6.347,21.046L578.6,841.011H567.778L578.6,873.95h10.089l6.48-20.178,6.415,20.178h10.088L622.5,841.011H611.674Zm47.08,13.5c0-8.017-2.472-14.1-12.027-14.1a10.6,10.6,0,0,0-9.688,5.345s0.067-3.608.067-6.949V827.849h-10.69v46.1h10.69V857.781c0-4.877,1.4-8.619,5.88-8.619S648,852.636,648,856.645V873.95h10.757V854.507Zm36.261,0.869c0-5.546-1.4-8.753-3.941-11.158-2.606-2.4-6.147-3.808-12.294-3.808a32.437,32.437,0,0,0-14.1,3.34l2.807,6.949a21.039,21.039,0,0,1,10.088-2.94c4.276,0,6.748,1.8,6.748,5.278v0.735l-8.284.334c-6.08.267-12.828,2.74-12.828,10.089s6.146,10.49,11.959,10.49a12.284,12.284,0,0,0,9.421-4.21l0.2,3.475h10.222V855.376Zm-10.623,9.487a6.56,6.56,0,0,1-5.478,3.007c-2.94,0-5.011-1.537-5.011-4.076,0-2.472,1.937-3.875,5.211-4.009l5.278-.334v5.412Zm36.864-23.785h-7.282v-8.953H703.217v8.953H698.54v8.084h4.677v12.761c0,5.011.668,7.751,2.338,9.688s4.21,3.074,8.018,3.074a28.957,28.957,0,0,0,7.617-1.069l-0.535-8.352a9.971,9.971,0,0,1-3.207.6c-1.4,0-2.071-.267-2.539-0.8-0.534-.6-0.935-1.27-0.935-4.076V849.162h7.282v-8.084ZM129.562,943.935a9.2,9.2,0,0,0-2.673-6.681,13.019,13.019,0,0,0-4.276-2.472c-1.4-.535-2.405-0.869-4.677-1.537s-4.81-1.47-4.81-3.207,1.4-2.4,3.942-2.4c2.672,0,6.414,1.737,8.284,3.207l3.475-6.28c-1.871-1.537-5.746-4.076-12.628-4.076s-12.494,3.942-12.494,10.356a8.845,8.845,0,0,0,5.612,8.619A34.661,34.661,0,0,0,113.994,941c1.2,0.4,6.013,1.469,6.013,3.607s-1.87,2.807-4.543,2.807-7.082-1.738-9.755-4.009l-4.008,6.347a20.218,20.218,0,0,0,13.9,5.078c4.409,0,7.683-1,10.088-2.873A9.943,9.943,0,0,0,129.562,943.935Zm37.6-9.287c0-8.017-2.472-14.1-12.027-14.1a10.6,10.6,0,0,0-9.688,5.345s0.067-3.608.067-6.949V907.99h-10.69v46.1h10.69V937.922c0-4.877,1.4-8.619,5.88-8.619s5.011,3.475,5.011,7.483v17.305h10.757V934.648Zm41.339,3.074c0-10.624-7.817-17.171-18.24-17.171s-18.306,6.547-18.306,17.171,7.884,17.1,18.306,17.1S208.5,948.345,208.5,937.722Zm-10.757-.2c0,4.878-2.806,8.552-7.483,8.552-4.743,0-7.483-3.674-7.483-8.552s2.74-8.552,7.483-8.552C194.94,928.969,197.746,932.644,197.746,937.521ZM245.3,921.152H234.61v17.5c0,4.343-1.738,7.349-5.546,7.349s-4.877-2.605-4.877-6.414v-18.44H213.5v19.91c0,4.744.8,7.617,2.4,9.889,1.67,2.2,4.677,3.875,9.421,3.875a11.988,11.988,0,0,0,9.621-4.477l0.066,3.742H245.3V921.152Zm18.022-13.162h-10.69v46.1h10.69v-46.1Zm42.017,0h-10.69v17.171c-1.069-1.6-4.409-4.61-10.423-4.61-9.554,0-15.567,7.416-15.567,17.1s6.013,17.171,15.567,17.171a13.049,13.049,0,0,0,10.824-5.011l0.2-.067-0.067,4.343h10.155v-46.1Zm-10.356,29.531c0,5.078-3.073,8.552-7.683,8.552s-7.75-3.474-7.75-8.552,3.14-8.552,7.75-8.552S294.983,932.443,294.983,937.521Zm53.092-16.369-7.417,21.18-7.483-21.18H322.018l13.028,31.937-1.2,2.873c-0.868,2.138-2,2.138-3.207,2.138a14.485,14.485,0,0,1-3.942-.869l-2.138,7.884a24.092,24.092,0,0,0,9.154,1.6c5.612,0,8.285-3.607,10.69-9.487l14.7-36.079H348.075Zm48.69,16.57c0-10.624-7.817-17.171-18.24-17.171s-18.307,6.547-18.307,17.171,7.884,17.1,18.307,17.1S396.765,948.345,396.765,937.722Zm-10.757-.2c0,4.878-2.806,8.552-7.483,8.552-4.744,0-7.483-3.674-7.483-8.552s2.739-8.552,7.483-8.552C383.2,928.969,386.008,932.644,386.008,937.521Zm47.553-16.369h-10.69v17.5c0,4.343-1.737,7.349-5.545,7.349s-4.877-2.605-4.877-6.414v-18.44H401.758v19.91c0,4.744.8,7.617,2.406,9.889,1.67,2.2,4.677,3.875,9.42,3.875a11.987,11.987,0,0,0,9.621-4.477l0.067,3.742h10.289V921.152Zm54.964-13.162h-10.69v17.171c-1.069-1.6-4.41-4.61-10.423-4.61-9.554,0-15.567,7.416-15.567,17.1s6.013,17.171,15.567,17.171a13.049,13.049,0,0,0,10.824-5.011l0.2-.067-0.066,4.343h10.155v-46.1Zm-10.356,29.531c0,5.078-3.073,8.552-7.683,8.552s-7.751-3.474-7.751-8.552,3.141-8.552,7.751-8.552S478.169,932.443,478.169,937.521Zm52.3,0.2c0-10.624-7.817-17.171-18.24-17.171s-18.307,6.547-18.307,17.171,7.884,17.1,18.307,17.1S530.465,948.345,530.465,937.722Zm-10.757-.2c0,4.878-2.806,8.552-7.483,8.552-4.744,0-7.483-3.674-7.483-8.552s2.739-8.552,7.483-8.552C516.9,928.969,519.708,932.644,519.708,937.521ZM582.889,911.8c0-3.274-2.472-5.545-6.08-5.545s-6.08,2.271-6.08,5.545c0,3.341,2.472,5.546,6.08,5.546S582.889,915.139,582.889,911.8Zm-0.735,9.354h-10.69v32.939h10.69V921.152ZM569.26,907.99a31.473,31.473,0,0,0-7.016-.869c-4.41,0-7.349,1.337-9.354,3.408-2,2-2.672,5.211-2.672,8.886v1.8h-4.209V929.3h4.209v24.788h10.757V929.3h7.082v-8.084h-7.082v-1.336c0-2.472.4-5.078,3.942-5.078a14.87,14.87,0,0,1,3.808.6ZM611.6,921.152a7.694,7.694,0,0,0-3.341-.6c-3.541,0-6.28,1.67-8.151,5.278h-0.133l0.067-4.677H589.352v32.939h10.691V939.459c0-3.675.868-5.813,1.67-6.882a6.276,6.276,0,0,1,4.944-2.4,8.594,8.594,0,0,1,3.875.8H611Zm28.718,22.783a9.2,9.2,0,0,0-2.672-6.681,13.029,13.029,0,0,0-4.276-2.472c-1.4-.535-2.406-0.869-4.677-1.537s-4.811-1.47-4.811-3.207,1.4-2.4,3.942-2.4c2.673,0,6.414,1.737,8.285,3.207l3.474-6.28c-1.871-1.537-5.746-4.076-12.627-4.076s-12.494,3.942-12.494,10.356a8.844,8.844,0,0,0,5.612,8.619A34.615,34.615,0,0,0,624.752,941c1.2,0.4,6.013,1.469,6.013,3.607s-1.871,2.807-4.543,2.807-7.083-1.738-9.755-4.009l-4.009,6.347a20.22,20.22,0,0,0,13.9,5.078c4.41,0,7.684-1,10.089-2.873A9.945,9.945,0,0,0,640.319,943.935Zm24.64-22.716h-7.282v-8.953H646.92v8.953h-4.677V929.3h4.677v12.762c0,5.01.668,7.75,2.338,9.687s4.21,3.074,8.018,3.074a28.957,28.957,0,0,0,7.617-1.069l-0.535-8.352a9.971,9.971,0,0,1-3.207.6c-1.4,0-2.071-.267-2.539-0.8-0.534-.6-0.935-1.27-0.935-4.076V929.3h7.282v-8.084Zm32.661-2.071c0-6.414-5.746-11.826-14.3-11.826-8.619,0-12.895,3.608-14.3,5.144l3.073,7.483a13.709,13.709,0,0,1,9.421-4.008c4.009,0,6.414,1.536,6.414,4.342,0,1.871-1.47,3.074-2.94,4.143l-4.075,2.94c-2.807,2-4.277,4.075-4.21,8.218l0.067,4.342h9.087l0.066-3.14a3.241,3.241,0,0,1,.735-2.472c1-1.136,3.742-2.672,6.08-4.744C695.348,927.165,697.62,924.693,697.62,919.148ZM687.6,949.08c0-3.608-2.539-5.746-6.281-5.746s-6.28,2.138-6.28,5.746,2.539,5.746,6.28,5.746S687.6,952.688,687.6,949.08Z"/>
  <path class="cls-3" d="M578,166c17.24-.376,32.734,4.732,37,17,6.4,18.4-15.827,112.34-21,128-0.907,3.462-16.28,8.735-20,0-18.86-77.747-21.962-90.64-24-116C548.2,166.047,564.574,167.076,578,166ZM263,259c60.609-17.112,72.431,84.174,16,100C210.685,378.159,194.383,280.2,263,259Zm223,30c16.019-.588,23.732,7,25,21-9.535,18.8-49.994,73.546-68,81l-50,4c2.868,9.058,32.1,44.123,40,56,24.535-17.407,57.7-40.117,88-49,11.137-3.265,57.816,13.486,68,17,22.617,7.8,50.037,2.42,50,33-7.065,5.058-7.547,13.339-19,15l-81-18-60,36v1l55,5c8.707,3.084,64.4,86.18,65,100-6.17,12.908-10.968,17.471-29,16-15.849-19.219-33.883-41.74-45-65-55.732.535-131.742-11.051-167-33l-38-36c-4.825-6.592-8.58-17.189-16-21l-20,50c-5.856,32.032,29.553,54.318,1,84-12.143.463-16.631-1.514-23-6-5.181-16.485-23.666-60.848-18-82,7.221-26.958,18.525-51.787,28-76,6.938-17.728,10.687-49.853,26-59,24.954-14.906,80.471-4.668,115-11l16-1,7-10C451.441,322.751,468,304.806,486,289Zm96,38c27.1-.88,28.489,41.135,3,42C558.2,370.751,557.58,328.119,582,327Z"/>
  <rect id="Rounded_Rectangle_2" data-name="Rounded Rectangle 2" class="cls-10" x="282" y="632" width="256" height="12" rx="6" ry="6"/>
  <rect id="Rounded_Rectangle_3" data-name="Rounded Rectangle 3" class="cls-10" x="369" y="660" width="190" height="11" rx="5.5" ry="5.5"/>
  <rect id="Rounded_Rectangle_4" data-name="Rounded Rectangle 4" class="cls-10" x="338" y="681" width="133" height="9" rx="4.5" ry="4.5"/>
</svg>
