<svg id="device" xmlns="http://www.w3.org/2000/svg" width="858" height="1720" viewBox="0 0 858 1720">
  <defs>
    <style>
      .cls-1, .cls-5, .cls-6 {
        fill: #fff;
      }

      .cls-2 {
        fill: #f0f4fa;
      }

      .cls-2, .cls-3, .cls-5, .cls-7, .cls-8 {
        fill-rule: evenodd;
      }

      .cls-3 {
        fill: #fafbfd;
      }

      .cls-4 {
        fill: #00a1dd;
      }

      .cls-6 {
        stroke: #f1f3f5;
        stroke-width: 7px;
      }

      .cls-7 {
        fill: #cbd7e6;
      }

      .cls-8 {
        fill: #f1f3f5;
      }
    </style>
  </defs>
  <rect id="rouneded_border" data-name="rouneded border" class="cls-1" x="2" y="2" width="855" height="1717" rx="100" ry="100"/>
  <g id="Device-2" data-name="Device">
    <path id="screen" class="cls-2" d="M154,64h55c14.438,0,17,9.733,17,21,0,20.3,12.76,39,49,39H588c33.542,0,46-19.374,46-40,0-14.868,6.691-20,17-20h57c76.335,0,92,64.558,92,88V1562c0,58.33-40.263,96-96,96H153c-65.535,0-93-51.14-93-105V157C60,99.1,100.96,64,154,64Z"/>
    <path id="header" class="cls-3" d="M800,314V1562c0,58.33-40.263,96-96,96H153c-65.535,0-93-51.14-93-105V314H800Z"/>
  </g>
  <g id="Submit">
    <rect id="Rounded_Rectangle_2" data-name="Rounded Rectangle 2" class="cls-4" x="105" y="1456" width="648" height="125" rx="25" ry="25"/>
    <path id="SUBMIT-2" data-name="SUBMIT" class="cls-5" d="M354.907,1524.31a10.574,10.574,0,0,0-3.169-7.8,16.238,16.238,0,0,0-5.633-3.29c-1.291-.53-4.284-1.58-6.044-2.29-1.819-.7-4.108-1.64-4.108-4.11s2.23-3.63,5.282-3.63a14,14,0,0,1,9.036,4.1l4.049-6.63c-2.758-2.76-8.156-4.99-12.851-4.99s-8.391,1.3-10.679,3.23a11.409,11.409,0,0,0-4.225,8.86,10.01,10.01,0,0,0,3.168,7.81,15.847,15.847,0,0,0,4.812,2.93c1.35,0.59,4.4,1.64,6.161,2.29s4.753,1.7,4.753,4.46c0,2.7-2.347,4.17-5.4,4.17-3.11,0-7.628-2.06-10.562-5.11l-4.7,6.92c3.286,3.06,8.509,6.11,14.377,6.11,4.342,0,8.1-1.06,10.973-3.35A12.264,12.264,0,0,0,354.907,1524.31Zm38.671-28.17h-9.564v23.59c0,2.88-.235,5.11-1.585,6.75a7.955,7.955,0,0,1-11.618,0c-1.35-1.64-1.585-3.87-1.585-6.75v-23.59h-9.564v23.59c0,5.69,1,9.63,3.814,12.74,2.875,3.05,7.217,4.81,13.144,4.81,5.868,0,10.269-1.76,13.085-4.81,2.876-3.11,3.873-7.05,3.873-12.74v-23.59Zm38.5,28.87c0-4.98-3.344-8.39-8.391-9.62v-0.12a9.417,9.417,0,0,0,5.927-8.92,9.135,9.135,0,0,0-5.164-8.5c-2.7-1.41-6.279-1.71-9.975-1.71h-13.79v40.49h16.547c4.167,0,7.805-.76,10.387-2.64A10.269,10.269,0,0,0,432.074,1525.01Zm-11.794-17.25a4.29,4.29,0,0,1-1.995,3.88c-1.115.76-2.347,0.88-4.46,0.88h-3.7v-9.33h3.932c2.054,0,3.11.11,4.225,0.82A4,4,0,0,1,420.28,1507.76Zm2.171,16.49a4.53,4.53,0,0,1-2.054,4.05c-1.408,1-2.992,1.12-5.046,1.12h-5.223v-10.33h5.223c2.054,0,3.638.11,5.046,1.11A4.53,4.53,0,0,1,422.451,1524.25Zm57.214-28.11H467.636l-8.332,26.64h-0.118l-8.449-26.64H438.766l-3.051,40.49h9.33l1.467-27.58h0.176l8.743,27.58h7.511l8.684-27.58h0.118l1.584,27.58h9.33Zm18.371,0H488.53v40.49h9.506v-40.49Zm34.328,0h-30.4v7.52h10.445v32.97h9.506v-32.97h10.445v-7.52Z"/>
  </g>
  <g id="Description">
    <rect id="Rounded_Rectangle_1_copy_4" data-name="Rounded Rectangle 1 copy 4" class="cls-6" x="103" y="1085" width="652" height="306" rx="16" ry="16"/>
    <path id="Description-2" data-name="Description" class="cls-7" d="M150.722,1010.9c0-9.43-3.8-15.067-7.886-18.446-4.013-3.45-10.28-5.844-18.729-5.844H107.631v48.58h16.476c8.449,0,14.716-2.39,18.729-5.77C146.92,1025.97,150.722,1020.34,150.722,1010.9Zm-11.547,0c0,5.99-2.254,9.22-4.3,11.13-2.042,1.97-5.422,3.52-10.14,3.52h-5.773v-29.5h5.773c4.718,0,8.1,1.549,10.14,3.45C136.921,1001.47,139.175,1004.92,139.175,1010.9Zm51.332,5.92c0-10.14-7.111-16.973-17.391-16.973s-18.729,6.543-18.729,18.023,7.815,18.1,18.517,18.1c10.773,0,15.35-4.79,16.476-5.64l-4.435-5.84a19.522,19.522,0,0,1-10.421,3.31c-4.577,0-8.379-2.25-8.872-7.25h24.714S190.507,1018.51,190.507,1016.82Zm-24.784-2.68a7.149,7.149,0,0,1,14.293,0H165.723Zm56.472,10.35a9.7,9.7,0,0,0-2.817-7.04,13.8,13.8,0,0,0-4.506-2.61c-1.478-.56-2.535-0.91-4.929-1.62s-5.069-1.54-5.069-3.37,1.478-2.54,4.154-2.54c2.816,0,6.759,1.83,8.731,3.38l3.661-6.62c-1.971-1.62-6.055-4.294-13.307-4.294s-13.167,4.154-13.167,10.914a9.305,9.305,0,0,0,5.915,9.08,35.223,35.223,0,0,0,4.928,1.62c1.268,0.42,6.337,1.55,6.337,3.8s-1.971,2.96-4.788,2.96-7.463-1.83-10.28-4.22l-4.224,6.69c3.943,3.73,9.435,5.35,14.645,5.35,4.647,0,8.1-1.06,10.632-3.03A10.479,10.479,0,0,0,222.2,1024.49Zm32.109-1.2a13.726,13.726,0,0,1-8.8,3.38c-5.28,0-8.73-3.45-8.73-8.94s3.8-8.8,8.59-8.8a14.24,14.24,0,0,1,8.942,3.1l2.464-8.52s-4.013-3.663-12.885-3.663c-9.505,0-18.447,6.473-18.447,18.093,0,11.55,8.8,18.03,18.306,18.03,9.224,0,12.885-3.88,13.237-4.16Zm30.56-22.81a8.109,8.109,0,0,0-3.52-.633c-3.732,0-6.619,1.763-8.59,5.563h-0.141l0.07-4.93H261.418v34.71h11.265v-15.42c0-3.87.916-6.12,1.761-7.25a6.6,6.6,0,0,1,5.21-2.53,9.122,9.122,0,0,1,4.084.84h0.493Zm15.985-9.857c0-3.45-2.6-5.844-6.407-5.844s-6.407,2.394-6.407,5.844c0,3.521,2.6,5.844,6.407,5.844S300.849,994.144,300.849,990.623Zm-0.774,9.857H288.809v34.71h11.266v-34.71Zm46.4,17.39c0-10.21-6.337-18.023-16.335-18.023a14.327,14.327,0,0,0-11.548,5.073h-0.14l0.07-4.44h-10.7v47.46h11.265v-17.11c2.183,3.24,5.844,5.14,10.984,5.14C340.139,1035.97,346.476,1028.08,346.476,1017.87ZM335,1017.73c0,5.35-3.309,9.01-8.168,9.01-4.787,0-8.1-3.66-8.1-9.01s3.31-9.01,8.1-9.01C331.69,1008.72,335,1012.38,335,1017.73Zm37.6-17.18h-7.675v-9.434H353.59v9.434h-4.928v8.52h4.928v13.45c0,5.28.705,8.17,2.465,10.21s4.436,3.24,8.449,3.24a30.489,30.489,0,0,0,8.027-1.13l-0.564-8.8a10.549,10.549,0,0,1-3.379.63c-1.479,0-2.183-.28-2.676-0.84-0.563-.64-0.986-1.34-0.986-4.3v-12.46H372.6v-8.52Zm16.689-9.927c0-3.45-2.606-5.844-6.408-5.844s-6.407,2.394-6.407,5.844c0,3.521,2.6,5.844,6.407,5.844S389.29,994.144,389.29,990.623Zm-0.775,9.857H377.249v34.71h11.266v-34.71Zm44.078,17.46c0-11.19-8.238-18.093-19.222-18.093s-19.293,6.9-19.293,18.093,8.309,18.03,19.293,18.03S432.593,1029.14,432.593,1017.94Zm-11.336-.21c0,5.14-2.958,9.01-7.886,9.01-5,0-7.886-3.87-7.886-9.01s2.887-9.01,7.886-9.01C418.3,1008.72,421.257,1012.59,421.257,1017.73Zm50.909-3.03c0-8.38-2.605-14.853-12.674-14.853a11.255,11.255,0,0,0-10.068,5.633h-0.141l0.07-5H438.088v34.71h11.265v-17.18c0-5,1.338-8.94,6.2-8.94,4.648,0,5.352,3.45,5.352,8.03v18.09h11.265V1014.7Z"/>
  </g>
  <g id="Severity">
    <rect id="Rounded_Rectangle_1_copy" data-name="Rounded Rectangle 1 copy" class="cls-6" x="169" y="834" width="77" height="77" rx="16" ry="16"/>
    <path id="Low" class="cls-7" d="M186.145,803.6H173.969V773.187h-4.861v34.574h17.037V803.6Zm27.41-7.666c0-7.366-5.512-12.427-12.577-12.427-7.115,0-12.627,5.061-12.627,12.427,0,7.416,5.512,12.377,12.627,12.377C208.043,808.313,213.555,803.352,213.555,795.936Zm-4.86-.15c0,4.71-2.956,8.418-7.717,8.418-4.81,0-7.766-3.708-7.766-8.418,0-4.66,2.956-8.368,7.766-8.368C205.739,787.418,208.7,791.126,208.7,795.786Zm39.337-11.826-5.512,17.989-6.264-18.039H232.4l-6.263,18.039-5.512-17.989h-4.861l7.867,23.8h4.41l6.313-17.788,6.264,17.788h4.409l7.867-23.8h-4.86Z"/>
    <rect id="Rounded_Rectangle_1_copy_2" data-name="Rounded Rectangle 1 copy 2" class="cls-6" x="391" y="834" width="77" height="77" rx="16" ry="16"/>
    <path id="Medium" class="cls-7" d="M374.33,773.187h-5.963L358.4,799.894h-0.1l-9.972-26.707h-6.013l-3.106,34.574h4.81l2.205-27.308h0.15l10.573,27.609H359.7l10.572-27.609h0.151l2.255,27.308h4.81Zm30.468,21.7c0-6.665-4.66-11.375-11.274-11.375s-12.076,4.811-12.076,12.327c0,7.566,4.861,12.477,11.926,12.477,7.115,0,10.172-3.508,10.472-3.759l-2-2.755a13.172,13.172,0,0,1-7.867,2.755c-4.409,0-7.416-2.856-7.666-7.566h18.339A20.77,20.77,0,0,0,404.8,794.884Zm-18.439-1.1a7,7,0,0,1,7.015-6.814,6.878,6.878,0,0,1,6.865,6.814h-13.88Zm46.251-20.594h-4.76v14.481h-0.1a9.615,9.615,0,0,0-8.317-4.159c-6.965,0-11.475,5.312-11.475,12.327,0,7.065,4.51,12.477,11.575,12.477a9.685,9.685,0,0,0,8.368-4.36H428v3.808h4.61V773.187Zm-4.61,22.6c0,4.76-2.806,8.418-7.566,8.418s-7.566-3.658-7.566-8.418,2.806-8.368,7.566-8.368S428,791.025,428,795.786Zm17.189-19.642a3.137,3.137,0,1,0-3.107,2.956A2.938,2.938,0,0,0,445.189,776.144Zm-0.7,7.816h-4.81v23.8h4.81v-23.8Zm27.059-.05h-4.811v12.778c0,4.008-1.7,7.616-5.912,7.616-4.259,0-4.961-3.057-4.961-6.314V783.91H451.1v14.281c0,3.407.551,5.762,1.754,7.366,1.252,1.6,3.206,2.756,6.614,2.756a8.3,8.3,0,0,0,7.366-3.959l0.05,3.407h4.66V783.91Zm41.09,9.42c0-5.161-1.7-9.821-8.068-9.821a8.263,8.263,0,0,0-7.566,4.71c-1.1-3.106-3.557-4.71-7.065-4.71a7.855,7.855,0,0,0-6.865,4.209h-0.15l0.05-3.758h-4.81v23.8h4.81V795.385c0-4.259,1.9-7.917,5.712-7.917,3.458,0,4.31,2.906,4.31,6.414v13.879h4.81V795.385c0-4.259,1.9-7.917,5.712-7.917,3.859,0,4.36,3.658,4.36,6.414v13.879h4.76V793.33Z"/>
    <rect id="Rounded_Rectangle_1_copy_3" data-name="Rounded Rectangle 1 copy 3" class="cls-6" x="595" y="834" width="77" height="77" rx="16" ry="16"/>
    <path id="High" class="cls-7" d="M609.876,773.187h-4.861v14.281H586.626V773.187h-4.86v34.574h4.86V791.627h18.389v16.134h4.861V773.187Zm12.88,2.957a3.137,3.137,0,1,0-3.107,2.956A2.938,2.938,0,0,0,622.756,776.144Zm-0.7,7.816h-4.81v23.8h4.81v-23.8Zm29.865,0h-4.76l0.05,3.758h-0.15a9.515,9.515,0,0,0-8.318-4.209c-6.113,0-11.475,4.41-11.475,11.976s5.362,11.976,11.475,11.976a9.546,9.546,0,0,0,8.318-4.259h0.1v1.2c0,3.257-.852,5.512-1.8,6.664-0.952,1.2-2.956,2.606-6.514,2.606a15.069,15.069,0,0,1-8.518-3.006l-2.255,3.357a18.282,18.282,0,0,0,10.623,3.557c5.912,0,8.869-2.4,10.622-4.559,1.754-2.105,2.606-5.011,2.606-10.272V783.96Zm-4.61,11.525c0,4.51-2.656,8.067-7.566,8.067-4.861,0-7.566-3.557-7.566-8.067s2.7-8.117,7.566-8.117C644.653,787.368,647.309,790.975,647.309,795.485Zm32.221-1.9c0-5.662-1.654-10.072-8.518-10.072a8.122,8.122,0,0,0-7.316,4.209h-0.1V773.187h-4.76v34.574h4.76V795.986c0-4.76,1.854-8.518,6.213-8.518s4.911,3.407,4.911,6.814v13.479h4.81v-14.18Z"/>
    <path id="Severity-2" data-name="Severity" class="cls-7" d="M140.442,707.407a12.709,12.709,0,0,0-3.8-9.365,19.492,19.492,0,0,0-6.76-3.943c-1.549-.634-5.14-1.9-7.252-2.746-2.183-.845-4.929-1.971-4.929-4.929s2.676-4.365,6.337-4.365,8.027,2.112,10.844,4.929l4.858-7.957c-3.309-3.309-9.787-5.985-15.42-5.985s-10.069,1.549-12.815,3.873a13.683,13.683,0,0,0-5.069,10.632,11.99,11.99,0,0,0,3.8,9.364,18.97,18.97,0,0,0,5.774,3.521c1.619,0.7,5.28,1.971,7.393,2.746s5.7,2.042,5.7,5.351c0,3.239-2.817,5-6.478,5-3.732,0-9.153-2.464-12.674-6.125l-5.633,8.308c3.943,3.661,10.21,7.323,17.251,7.323,5.21,0,9.717-1.268,13.167-4.014A14.714,14.714,0,0,0,140.442,707.407Zm39.432-3.591c0-10.139-7.111-16.969-17.391-16.969s-18.729,6.548-18.729,18.025,7.815,18.1,18.517,18.1c10.773,0,15.35-4.788,16.476-5.633l-4.435-5.844a19.539,19.539,0,0,1-10.421,3.31c-4.577,0-8.379-2.253-8.872-7.253h24.714S179.874,705.505,179.874,703.816ZM155.09,701.14a7.149,7.149,0,0,1,14.293,0H155.09Zm53.444-13.66-7.815,21.968-7.886-21.968H181.074L195.3,722.193h10.562l14.293-34.713H208.534Zm49.079,16.336c0-10.139-7.112-16.969-17.392-16.969s-18.729,6.548-18.729,18.025,7.816,18.1,18.518,18.1c10.773,0,15.35-4.788,16.476-5.633l-4.436-5.844a19.532,19.532,0,0,1-10.42,3.31c-4.577,0-8.379-2.253-8.872-7.253h24.714S257.613,705.505,257.613,703.816Zm-24.785-2.676a7.07,7.07,0,0,1,7.182-6.971,7,7,0,0,1,7.112,6.971H232.828Zm53.445-13.66a8.111,8.111,0,0,0-3.521-.633c-3.731,0-6.618,1.76-8.59,5.562h-0.14l0.07-4.929H262.826v34.713h11.266v-15.42c0-3.873.915-6.126,1.76-7.252a6.613,6.613,0,0,1,5.211-2.535,9.07,9.07,0,0,1,4.083.845h0.493Zm15.985-9.857c0-3.45-2.6-5.844-6.407-5.844s-6.408,2.394-6.408,5.844c0,3.521,2.605,5.844,6.408,5.844S302.258,681.144,302.258,677.623Zm-0.775,9.857H290.218v34.713h11.265V687.48Zm28.306,0.071h-7.675v-9.435H310.778v9.435H305.85v8.52h4.928v13.448c0,5.281.7,8.167,2.465,10.209s4.436,3.239,8.449,3.239a30.51,30.51,0,0,0,8.027-1.126l-0.564-8.8a10.491,10.491,0,0,1-3.379.634c-1.479,0-2.183-.282-2.676-0.845-0.563-.634-0.986-1.338-0.986-4.295V696.071h7.675v-8.52Zm27.954-.071L349.928,709.8l-7.886-22.321H330.283l13.73,33.657-1.267,3.027c-0.916,2.253-2.113,2.253-3.38,2.253a15.265,15.265,0,0,1-4.154-.915l-2.253,8.308a25.367,25.367,0,0,0,9.646,1.69c5.914,0,8.731-3.8,11.266-10l15.49-38.022H357.743Z"/>
  </g>
  <g id="Location">
    <rect id="Rounded_Rectangle_1" data-name="Rounded Rectangle 1" class="cls-6" x="103" y="485" width="652" height="119" rx="16" ry="16"/>
    <path id="Location-2" data-name="Location" class="cls-7" d="M135.795,425.758H118.967V386.61H107.631v48.583h28.164v-9.435Zm40.91-7.816c0-11.195-8.238-18.1-19.222-18.1s-19.292,6.9-19.292,18.1,8.308,18.025,19.292,18.025S176.705,429.137,176.705,417.942Zm-11.336-.211c0,5.14-2.957,9.012-7.886,9.012-5,0-7.886-3.872-7.886-9.012s2.887-9.013,7.886-9.013C162.412,408.718,165.369,412.591,165.369,417.731Zm43.658,5.562a13.725,13.725,0,0,1-8.8,3.38c-5.281,0-8.731-3.45-8.731-8.942s3.8-8.8,8.59-8.8a14.272,14.272,0,0,1,8.942,3.1l2.464-8.52s-4.013-3.661-12.885-3.661c-9.5,0-18.447,6.478-18.447,18.1,0,11.547,8.8,18.025,18.306,18.025,9.224,0,12.885-3.872,13.237-4.154Zm38.235-7.674c0-5.844-1.479-9.224-4.154-11.759-2.746-2.535-6.478-4.013-12.956-4.013a34.184,34.184,0,0,0-14.856,3.52l2.957,7.323a22.17,22.17,0,0,1,10.632-3.1c4.506,0,7.111,1.9,7.111,5.562v0.775l-8.73.352c-6.408.282-13.519,2.887-13.519,10.632s6.478,11.054,12.6,11.054a12.944,12.944,0,0,0,9.928-4.436l0.211,3.662h10.773V415.619Zm-11.195,10a6.914,6.914,0,0,1-5.774,3.168c-3.1,0-5.281-1.619-5.281-4.3,0-2.605,2.042-4.083,5.492-4.224l5.563-.352v5.7Zm38.868-25.066h-7.674v-9.435H255.925v9.435H251v8.52h4.929v13.448c0,5.281.7,8.167,2.464,10.209s4.436,3.239,8.449,3.239a30.51,30.51,0,0,0,8.027-1.126l-0.563-8.8a10.5,10.5,0,0,1-3.38.634c-1.479,0-2.183-.282-2.676-0.845-0.563-.634-0.985-1.338-0.985-4.295V409.071h7.674v-8.52Zm16.689-9.928c0-3.45-2.605-5.844-6.407-5.844s-6.408,2.394-6.408,5.844c0,3.521,2.6,5.844,6.408,5.844S291.624,394.144,291.624,390.623Zm-0.775,9.857H279.584v34.713h11.265V400.48Zm44.078,17.462c0-11.195-8.238-18.1-19.222-18.1s-19.292,6.9-19.292,18.1,8.308,18.025,19.292,18.025S334.927,429.137,334.927,417.942Zm-11.336-.211c0,5.14-2.957,9.012-7.886,9.012-5,0-7.886-3.872-7.886-9.012s2.887-9.013,7.886-9.013C320.634,408.718,323.591,412.591,323.591,417.731ZM374.5,414.7c0-8.378-2.606-14.856-12.674-14.856a11.26,11.26,0,0,0-10.069,5.633h-0.141l0.071-5H340.422v34.713h11.266v-17.18c0-5,1.337-8.942,6.2-8.942,4.647,0,5.351,3.45,5.351,8.026v18.1H374.5V414.7Z"/>
    <path id="Houston" class="cls-7" d="M179.636,524.049h-5.854v17.2H151.635v-17.2h-5.854v41.639h5.854V546.257h22.147v19.431h5.854V524.049Zm37.056,27.4c0-8.871-6.638-14.966-15.147-14.966-8.57,0-15.208,6.1-15.208,14.966,0,8.931,6.638,14.9,15.208,14.9C210.054,566.352,216.692,560.378,216.692,551.447Zm-5.854-.182c0,5.673-3.56,10.139-9.293,10.139-5.794,0-9.354-4.466-9.354-10.139,0-5.612,3.56-10.077,9.354-10.077C207.278,541.188,210.838,545.653,210.838,551.265Zm36.271-14.3h-5.793v15.389c0,4.827-2.052,9.172-7.121,9.172-5.129,0-5.974-3.681-5.974-7.6V536.963h-5.733v17.2c0,4.1.664,6.94,2.112,8.871,1.509,1.931,3.862,3.319,7.966,3.319a9.993,9.993,0,0,0,8.871-4.767l0.06,4.1h5.612V536.963Zm27.28,20.337a7.08,7.08,0,0,0-2.294-5.31,10.948,10.948,0,0,0-3.319-2.052c-1.207-.483-2.293-0.845-3.862-1.388-2.836-.9-5.612-1.931-5.612-4.285s1.81-3.56,4.586-3.56a10.513,10.513,0,0,1,7.242,3.077l2.414-3.56c-1.811-1.931-4.707-3.741-9.776-3.741s-9.656,2.9-9.656,8.207a7.391,7.391,0,0,0,4.526,6.879,21.463,21.463,0,0,0,3.923,1.509c1.931,0.664,6.457,1.629,6.457,4.767s-2.837,4.1-5.492,4.1a11.762,11.762,0,0,1-8.448-4.1l-2.776,3.38a13.727,13.727,0,0,0,11.164,5.129,12.23,12.23,0,0,0,7.966-2.534A8.161,8.161,0,0,0,274.389,557.3Zm19.252,3.44a6.994,6.994,0,0,1-2.957.664,3,3,0,0,1-2.957-1.449c-0.664-1.207-.725-2.836-0.725-5.25V541.731h6.88v-4.647H287v-8.569h-5.793v8.569h-4.224v4.647h4.224v13.1c0,4.526.241,6.759,1.448,8.569s3.078,2.957,6.1,2.957a14.534,14.534,0,0,0,5.251-.965Zm33.614-9.293c0-8.871-6.638-14.966-15.147-14.966-8.57,0-15.208,6.1-15.208,14.966,0,8.931,6.638,14.9,15.208,14.9C320.617,566.352,327.255,560.378,327.255,551.447Zm-5.854-.182c0,5.673-3.56,10.139-9.293,10.139-5.794,0-9.354-4.466-9.354-10.139,0-5.612,3.56-10.077,9.354-10.077C317.841,541.188,321.4,545.653,321.4,551.265Zm36.814-2.534c0-6.88-2.112-12.25-10.259-12.25a9.682,9.682,0,0,0-8.75,5.069h-0.181l0.061-4.526h-5.794v28.664h5.794V551.265c0-5.491,1.991-10.017,7.362-10.017,5.129,0,5.974,3.621,5.974,8.448v15.992h5.793V548.731Z"/>
    <path class="cls-8" d="M709,532c1.856,0,5.012,2.988,2,6s-19.508,19.368-22,22c-2.582,2.727-4.974,3.026-8,0l-22-22c-2.551-2.551-1.44-6,3-6h47Z"/>
  </g>
  <path id="Near_Miss_Report" data-name="Near Miss Report" class="cls-7" d="M151.567,203.61H140.442v22.038c0,5.14.211,10.632,0.211,10.632l-20.841-32.67H107.631v48.583h11.125V230.225c0-5.14-.212-10.984-0.212-10.984l21.335,32.952h11.688V203.61Zm42.25,30.206c0-10.139-7.111-16.969-17.391-16.969S157.7,223.4,157.7,234.872s7.815,18.1,18.518,18.1c10.773,0,15.349-4.788,16.476-5.633l-4.436-5.844a19.539,19.539,0,0,1-10.421,3.31c-4.576,0-8.379-2.253-8.871-7.253h24.714S193.817,235.505,193.817,233.816Zm-24.784-2.676a7.07,7.07,0,0,1,7.182-6.971,7,7,0,0,1,7.111,6.971H169.033Zm61.119,1.479c0-5.844-1.478-9.224-4.154-11.759-2.746-2.535-6.478-4.013-12.955-4.013a34.186,34.186,0,0,0-14.857,3.52l2.957,7.323a22.174,22.174,0,0,1,10.632-3.1c4.506,0,7.112,1.9,7.112,5.562v0.775l-8.731.352c-6.408.282-13.519,2.887-13.519,10.632s6.478,11.054,12.6,11.054a12.942,12.942,0,0,0,9.928-4.436l0.212,3.662h10.772V232.619Zm-11.195,10a6.914,6.914,0,0,1-5.774,3.168c-3.1,0-5.28-1.619-5.28-4.295,0-2.605,2.042-4.083,5.492-4.224l5.562-.352v5.7Zm41.615-25.137a8.111,8.111,0,0,0-3.521-.633c-3.732,0-6.618,1.76-8.59,5.562H248.32l0.071-4.929H237.125v34.713h11.266v-15.42c0-3.873.915-6.126,1.76-7.252a6.613,6.613,0,0,1,5.21-2.535,9.075,9.075,0,0,1,4.084.845h0.493Zm69.286-13.87H315.424l-10,31.966h-0.14l-10.14-31.966H280.782l-3.662,48.583h11.2l1.76-33.093h0.211l10.491,33.093h9.013L320.212,219.1h0.14l1.9,33.093h11.2Zm22.113,4.013c0-3.45-2.605-5.844-6.407-5.844s-6.407,2.394-6.407,5.844c0,3.521,2.605,5.844,6.407,5.844S351.971,211.144,351.971,207.623ZM351.2,217.48H339.931v34.713H351.2V217.48Zm34.079,24.01a9.7,9.7,0,0,0-2.816-7.041,13.737,13.737,0,0,0-4.507-2.605c-1.478-.563-2.534-0.915-4.928-1.619s-5.07-1.549-5.07-3.38,1.479-2.535,4.154-2.535c2.817,0,6.76,1.831,8.731,3.38l3.662-6.619c-1.972-1.619-6.056-4.295-13.308-4.295s-13.167,4.155-13.167,10.914a9.32,9.32,0,0,0,5.915,9.083,36.3,36.3,0,0,0,4.929,1.619c1.267,0.423,6.336,1.549,6.336,3.8s-1.971,2.958-4.787,2.958-7.464-1.831-10.28-4.225l-4.225,6.689c3.943,3.732,9.435,5.351,14.645,5.351,4.647,0,8.1-1.056,10.632-3.027A10.48,10.48,0,0,0,385.276,241.49Zm31.757,0a9.7,9.7,0,0,0-2.816-7.041,13.737,13.737,0,0,0-4.507-2.605c-1.478-.563-2.534-0.915-4.928-1.619s-5.07-1.549-5.07-3.38,1.479-2.535,4.154-2.535c2.817,0,6.76,1.831,8.731,3.38l3.662-6.619c-1.972-1.619-6.056-4.295-13.308-4.295s-13.167,4.155-13.167,10.914a9.32,9.32,0,0,0,5.915,9.083,36.337,36.337,0,0,0,4.928,1.619c1.268,0.423,6.337,1.549,6.337,3.8s-1.971,2.958-4.788,2.958-7.463-1.831-10.279-4.225l-4.225,6.689c3.943,3.732,9.435,5.351,14.645,5.351,4.647,0,8.1-1.056,10.632-3.027A10.48,10.48,0,0,0,417.033,241.49Zm45.98-9.364c3.591-1.127,9.506-4.718,9.506-13.941a13.462,13.462,0,0,0-5.351-11.125c-3.169-2.324-7.394-3.45-12.815-3.45H436.891v48.583H448.3V233.6h3.591L462.1,252.193h13.237Zm-1.971-13.519a5.438,5.438,0,0,1-2.465,4.929c-1.408,1.056-3.238,1.338-5.844,1.338h-4.506V212.411h4.506c2.606,0,4.436.211,5.844,1.267A5.521,5.521,0,0,1,461.042,218.607Zm51.473,15.209c0-10.139-7.112-16.969-17.392-16.969s-18.729,6.548-18.729,18.025,7.816,18.1,18.518,18.1c10.773,0,15.35-4.788,16.476-5.633l-4.436-5.844a19.532,19.532,0,0,1-10.42,3.31c-4.577,0-8.379-2.253-8.872-7.253h24.714S512.515,235.505,512.515,233.816ZM487.73,231.14a7.07,7.07,0,0,1,7.182-6.971,7,7,0,0,1,7.112,6.971H487.73Zm68.794,3.732c0-10.21-6.337-18.025-16.335-18.025a14.332,14.332,0,0,0-11.547,5.069H528.5l0.07-4.436h-10.7v47.457h11.266v-17.11c2.182,3.239,5.844,5.14,10.984,5.14C550.187,252.967,556.524,245.081,556.524,234.872Zm-11.477-.141c0,5.351-3.309,9.012-8.167,9.012-4.788,0-8.1-3.661-8.1-9.012s3.309-9.013,8.1-9.013C541.738,225.718,545.047,229.38,545.047,234.731Zm53.374,0.211c0-11.195-8.238-18.095-19.222-18.095s-19.292,6.9-19.292,18.1,8.308,18.025,19.292,18.025S598.421,246.137,598.421,234.942Zm-11.336-.211c0,5.14-2.957,9.012-7.886,9.012-5,0-7.885-3.872-7.885-9.012s2.886-9.013,7.885-9.013C584.128,225.718,587.085,229.591,587.085,234.731Zm40.278-17.251a8.109,8.109,0,0,0-3.52-.633c-3.732,0-6.619,1.76-8.59,5.562h-0.141l0.07-4.929H603.917v34.713h11.265v-15.42c0-3.873.916-6.126,1.76-7.252a6.613,6.613,0,0,1,5.211-2.535,9.079,9.079,0,0,1,4.084.845h0.492Zm24.5,0.071h-7.675v-9.435H632.857v9.435h-4.929v8.52h4.929v13.448c0,5.281.7,8.167,2.464,10.209s4.436,3.239,8.45,3.239a30.507,30.507,0,0,0,8.026-1.126l-0.563-8.8a10.493,10.493,0,0,1-3.38.634c-1.478,0-2.182-.282-2.675-0.845-0.563-.634-0.986-1.338-0.986-4.3V226.071h7.675v-8.52Z"/>
</svg>
