<svg xmlns="http://www.w3.org/2000/svg" viewBox="0 0 310.47 51.01"><defs><style>.cls-1{fill:#fff;}</style></defs><title>Asset 3</title><g id="Layer_2" data-name="Layer 2"><g id="Layer_1-2" data-name="Layer 1"><path class="cls-1" d="M114.9,11.63c-3.78,0-6.37-2.31-6.37-5.81S111.12,0,114.9,0s6.38,2.38,6.38,5.82S118.69,11.63,114.9,11.63Zm5.61,38.54H109.3V15.63h11.21Z"/><path class="cls-1" d="M157.15,47c-3.43,2.73-7.91,4-13.1,4-7,0-13.24-3.64-17.17-7.29l5.61-8.26c3.5,3.64,8.9,6.09,12.61,6.09s6.45-1.75,6.45-5S148,32,145.87,31.25s-5.74-2-7.35-2.73a18.77,18.77,0,0,1-5.75-3.5A12,12,0,0,1,129,15.7a13.61,13.61,0,0,1,5-10.58c2.73-2.32,7.15-3.86,12.75-3.86s12.06,2.66,15.35,6l-4.84,7.92c-2.8-2.81-7.14-4.91-10.79-4.91s-6.3,1.4-6.3,4.35,2.73,4.06,4.9,4.9,5.68,2.1,7.22,2.73a19.39,19.39,0,0,1,6.73,3.93,12.64,12.64,0,0,1,3.78,9.32A14.64,14.64,0,0,1,157.15,47Z"/><path class="cls-1" d="M198.92,46.81c-.35.28-4,4.13-13.18,4.13-9.46,0-18.22-6.44-18.22-17.94s8.9-18,18.36-18c8.83,0,12.83,3.64,12.83,3.64l-2.46,8.48a14.19,14.19,0,0,0-8.9-3.09c-4.76,0-8.54,3.3-8.54,8.76s3.43,8.9,8.68,8.9a13.65,13.65,0,0,0,8.76-3.36Z"/><path class="cls-1" d="M221.9,50.94c-10.93,0-19.2-6.8-19.2-17.94S211,15,221.9,15,241,21.86,241,33,232.83,50.94,221.9,50.94Zm0-27.12c-5,0-7.85,3.86-7.85,9s2.87,9,7.85,9,7.85-3.85,7.85-9S226.8,23.82,221.9,23.82Z"/><path class="cls-1" d="M281,50.17H270.25l-.07-3.92a12.58,12.58,0,0,1-10.09,4.69c-5,0-8.13-1.75-9.88-4.06s-2.53-5.4-2.53-10.37V15.63H258.9V35c0,4,1.12,6.72,5.11,6.72s5.82-3.15,5.82-7.71V15.63H281Z"/><path class="cls-1" d="M310.47,24.17h-7.64V36.58c0,2.94.42,3.64,1,4.27s1.19.84,2.66.84a10.54,10.54,0,0,0,3.37-.63l.56,8.76a30.42,30.42,0,0,1-8,1.12c-4,0-6.66-1.19-8.41-3.22s-2.45-4.91-2.45-10.16V24.17h-4.91V15.7h4.91V6.31h11.28V15.7h7.64Z"/><path class="cls-1" d="M-2.83,23.88H35.12A13.16,13.16,0,0,1,48.27,37v0a0,0,0,0,1,0,0H10.33A13.16,13.16,0,0,1-2.83,23.88v0a0,0,0,0,1,0,0Z" transform="translate(-14.88 24.99) rotate(-45)"/><path class="cls-1" d="M24.31,24.05H62.26A13.16,13.16,0,0,1,75.42,37.21v0a0,0,0,0,1,0,0H37.47A13.16,13.16,0,0,1,24.31,24.05v0A0,0,0,0,1,24.31,24.05Z" transform="translate(-7.05 44.23) rotate(-45)"/><path class="cls-1" d="M51.51,24.05H89.46a13.16,13.16,0,0,1,13.16,13.16v0a0,0,0,0,1,0,0H64.67A13.16,13.16,0,0,1,51.51,24.05v0A0,0,0,0,1,51.51,24.05Z" transform="translate(0.91 63.46) rotate(-45)"/></g></g></svg>