<svg xmlns="http://www.w3.org/2000/svg" viewBox="0 0 504 143.74"><path d="M256.27,286.16l-52-52-7.56,7.56h0l-44.46,44.46a28.07,28.07,0,0,0,0,39.69l52,52,52-52A28.07,28.07,0,0,0,256.27,286.16ZM257.34,306a20.69,20.69,0,0,1-3.66,11.8L241,305.17,253,293.23A20.8,20.8,0,0,1,257.34,306ZM222,326.35l-1.08-1.08,15-15,12.91,12.9L229,343A23.88,23.88,0,0,0,222,326.35ZM187.49,351l-16.14-16.14,24.53-24.53,14.94,14.94L191,345.14A13.63,13.63,0,0,0,187.49,351Zm13.45-45.72,15.05-15,14.94,14.94-15.05,15.05Zm-4.39-34.49,14.38,14.38-15.05,15.05-23.81-23.81,18.62-18.62A20.22,20.22,0,0,0,196.55,270.79Zm32.15-2.09,19.35,19.35L236,300.11,221,285.17l1-1A22.68,22.68,0,0,0,228.7,268.7ZM217,257h0a15.62,15.62,0,0,1,0,22.1l-1,1-14.38-14.38a13.35,13.35,0,0,1-.24-18.63l2.87-2.87Zm-65.85,49a20.8,20.8,0,0,1,6.12-14.79l9.75-9.74,23.81,23.82L166.3,329.81l-9-9A20.77,20.77,0,0,1,151.15,306Zm44.52,53.19a6.63,6.63,0,0,1,.34-9l19.87-19.87,1.08,1.08a16.86,16.86,0,0,1,1.57,22.07l-14.28,14.28Z" transform="translate(-144 -234.13)" style="fill:#fff"/><path d="M378.74,306A46.27,46.27,0,0,0,401,266.44H387.62a32.88,32.88,0,0,1-32.85,32.85H318.1V266.44H304.68v79.12H318.1V312.71h36.67a32.88,32.88,0,0,1,32.85,32.85H401A46.28,46.28,0,0,0,378.74,306Z" transform="translate(-144 -234.13)" style="fill:#fff"/><path d="M631.67,345.56H648l-55.62-77.63a3,3,0,0,0-2.47-1.27,3.06,3.06,0,0,0-2.48,1.27l-55.62,77.63h16.33L562,326.18h55.75ZM571.54,312.9l18.37-25.63,18.36,25.63Z" transform="translate(-144 -234.13)" style="fill:#fff"/><path d="M498.3,266.5H441.35a10,10,0,0,0-10,10v69.09h13.28v-19.4H498.3a29.83,29.83,0,0,0,0-59.66Zm-.58,46.39H444.66V282a2.2,2.2,0,0,1,2.19-2.2H498.3a16.57,16.57,0,0,1,16.52,17.7C514.24,306.26,506.53,312.89,497.72,312.89Z" transform="translate(-144 -234.13)" style="fill:#fff"/></svg>
