<svg xmlns="http://www.w3.org/2000/svg" width="512" height="512" viewBox="0 0 512 512">
  <defs>
    <style>
      .cls-1, .cls-2 {
        fill: #b4c7d4;
      }

      .cls-1 {
        fill-rule: evenodd;
      }
    </style>
  </defs>
  <path class="cls-1" d="M274,75c3.409,1.388,13,9,13,9,0.578,1.28,30.527-13.968,42-21s7.912-18.1,7-20"/>
  <path class="cls-1" d="M292,91c0.4,3,1.784,8.421,1,16,20.377,5.464,60,16,60,16,0.825-8.913-9.2-16.622-13-18"/>
  <rect class="cls-2" x="220" y="88" width="22" height="25"/>
  <path class="cls-1" d="M267,79a20,20,0,1,1-20,20A20,20,0,0,1,267,79Zm0,8a12,12,0,1,1-12,12A12,12,0,0,1,267,87Z"/>
  <circle class="cls-2" cx="267" cy="99" r="8"/>
  <path class="cls-1" d="M179,240c-0.873-9.775-7.248-61.056-6-73s0.558-22.772,5-32,13.437-24.128,37-27a97.688,97.688,0,0,1,1-13c-21.087-.36-30.52,7.929-42,21s-16.012,47.571-15,64,6.208,53.508,7,60C170.877,240.783,174.582,239.988,179,240Z"/>
  <rect class="cls-2" x="163" y="244" width="34" height="15"/>
  <rect class="cls-2" x="202" y="246" width="128" height="10"/>
  <rect class="cls-2" x="174" y="377" width="28" height="78"/>
  <rect class="cls-2" x="179" y="354" width="18" height="19"/>
  <path class="cls-1" d="M183,263c2.606,15.33,10.334,70.3,11,87H181c-1.425-33.9-9.576-79.113-11-87h13Z"/>
  <path class="cls-1" d="M207,242H325V170c-0.108-10.84-12.133-23.143-15-25s-15.393-7.519-17-9-6.223-5.545-8-8a13.153,13.153,0,0,1-2-6s-0.2-2.325-2-1-5.338,5-14,5a25.342,25.342,0,0,1-16-6c-1.274-1.118-2.042-.259-2,1s-1.608,6.924-6,11-14.067,8.476-18,11-11.154,6.107-15,18-3,29.025-3,33"/>
  <path id="Rounded_Rectangle_2" data-name="Rounded Rectangle 2" class="cls-1" d="M207,261H325V455c-5.357,7.2-27.439,13-58,13s-47.346-3.863-60-13m33-184h52a15,15,0,0,1,15,15v98a15,15,0,0,1-15,15H240a15,15,0,0,1-15-15V286A15,15,0,0,1,240,271Z"/>
  <rect id="Rounded_Rectangle_1" data-name="Rounded Rectangle 1" class="cls-2" x="231" y="279" width="70" height="114" rx="10" ry="10"/>
</svg>
