<svg xmlns="http://www.w3.org/2000/svg" width="512" height="512" viewBox="0 0 512 512">
  <defs>
    <style>
      .cls-1, .cls-2 {
        fill: #b4c7d4;
      }

      .cls-2 {
        fill-rule: evenodd;
      }
    </style>
  </defs>
  <rect class="cls-1" x="113" y="152" width="168" height="17"/>
  <rect id="Rectangle_1_copy" data-name="Rectangle 1 copy" class="cls-1" x="120" y="403" width="186" height="17"/>
  <rect id="Rectangle_1_copy_3" data-name="Rectangle 1 copy 3" class="cls-1" x="329" y="362" width="14" height="17"/>
  <path class="cls-2" d="M273,197h46v-8c-4.224-4.224-35.623-34.623-38-37-7.936,0-8,12.5-8,16"/>
  <rect class="cls-1" x="113" y="161" width="18" height="259"/>
  <rect id="Rectangle_2_copy" data-name="Rectangle 2 copy" class="cls-1" x="303" y="192" width="16" height="228"/>
  <rect id="Rectangle_1_copy_2" data-name="Rectangle 1 copy 2" class="cls-1" x="148" y="111" width="168" height="17"/>
  <path id="Shape_1_copy" data-name="Shape 1 copy" class="cls-2" d="M308,156h46v-8c-4.224-4.224-35.623-34.623-38-37-7.936,0-8,12.5-8,16"/>
  <rect id="Rectangle_2_copy_2" data-name="Rectangle 2 copy 2" class="cls-1" x="148" y="120" width="18" height="21"/>
  <rect id="Rectangle_2_copy_2-2" data-name="Rectangle 2 copy 2" class="cls-1" x="338" y="151" width="16" height="228"/>
  <rect id="Rectangle_1_copy_4" data-name="Rectangle 1 copy 4" class="cls-1" x="366" y="325" width="14" height="17"/>
  <rect id="Rectangle_1_copy_4-2" data-name="Rectangle 1 copy 4" class="cls-1" x="185" y="74" width="168" height="17"/>
  <path id="Shape_1_copy_2" data-name="Shape 1 copy 2" class="cls-2" d="M345,119h46v-8c-4.224-4.224-35.623-34.623-38-37-7.936,0-8,12.5-8,16"/>
  <rect id="Rectangle_2_copy_3" data-name="Rectangle 2 copy 3" class="cls-1" x="185" y="83" width="18" height="21"/>
  <rect id="Rectangle_2_copy_3-2" data-name="Rectangle 2 copy 3" class="cls-1" x="375" y="114" width="16" height="228"/>
  <rect id="Rounded_Rectangle_1" data-name="Rounded Rectangle 1" class="cls-1" x="154" y="226" width="124" height="14" rx="7" ry="7"/>
  <rect id="Rounded_Rectangle_1_copy" data-name="Rounded Rectangle 1 copy" class="cls-1" x="154" y="259" width="124" height="14" rx="7" ry="7"/>
  <rect id="Rounded_Rectangle_1_copy_2" data-name="Rounded Rectangle 1 copy 2" class="cls-1" x="154" y="292" width="124" height="14" rx="7" ry="7"/>
  <rect id="Rounded_Rectangle_1_copy_3" data-name="Rounded Rectangle 1 copy 3" class="cls-1" x="154" y="324" width="124" height="14" rx="7" ry="7"/>
  <rect id="Rounded_Rectangle_1_copy_4" data-name="Rounded Rectangle 1 copy 4" class="cls-1" x="154" y="357" width="124" height="14" rx="7" ry="7"/>
</svg>
