<svg xmlns="http://www.w3.org/2000/svg" width="512" height="512" viewBox="0 0 512 512">
  <defs>
    <style>
      .cls-1 {
        fill: #fff;
      }

      .cls-2 {
        fill: #b4c7d4;
        fill-rule: evenodd;
      }
    </style>
  </defs>
  <rect class="cls-1" x="123" y="106" width="263" height="324"/>
  <path id="Shape_6_copy_6" data-name="Shape 6 copy 6" class="cls-2" d="M380,441H132a20,20,0,0,1-20-20V114a20,20,0,0,1,20-20h57.528c2.463-4.822,13.712-8.975,29.7-11.479C223.048,74.748,223.317,68.051,228,60c4.78-8.217,9.66-17,28-17s21.938,9.175,25,14c2.834,4.467,7.135,19.293,9.473,25.632,15.617,2.515,26.572,6.617,29,11.368H380a20,20,0,0,1,20,20V421A20,20,0,0,1,380,441ZM255,53a15,15,0,1,0,15,15A15,15,0,0,0,255,53Zm125,59H129V425H380V112ZM159,147h26a9.994,9.994,0,0,1,8.824,5.3l11.8-10.872,4.742,5.148L195,160.732V183a10,10,0,0,1-10,10H159a10,10,0,0,1-10-10V157A10,10,0,0,1,159,147Zm-7,33a10,10,0,0,0,10,10h20a10,10,0,0,0,10-10V163.5l-19.629,18.079-1.5-1.625-0.454.416-11-12,5.16-4.73,7.753,8.458,18.4-16.951A9.992,9.992,0,0,0,182,150H162a10,10,0,0,0-10,10v20Zm7,34h26a9.994,9.994,0,0,1,8.824,5.3l11.8-10.872,4.742,5.148L195,227.732V250a10,10,0,0,1-10,10H159a10,10,0,0,1-10-10V224A10,10,0,0,1,159,214Zm-7,33a10,10,0,0,0,10,10h20a10,10,0,0,0,10-10V230.5l-19.629,18.079-1.5-1.625-0.454.416-11-12,5.16-4.73,7.753,8.458,18.4-16.951A9.992,9.992,0,0,0,182,217H162a10,10,0,0,0-10,10v20Zm7,35h26a10,10,0,0,1,10,10v26a10,10,0,0,1-10,10H159a10,10,0,0,1-10-10V292A10,10,0,0,1,159,282Zm-7,33a10,10,0,0,0,10,10h20a10,10,0,0,0,10-10V295a10,10,0,0,0-10-10H162a10,10,0,0,0-10,10v20Zm7,35h26a10,10,0,0,1,10,10v26a10,10,0,0,1-10,10H159a10,10,0,0,1-10-10V360A10,10,0,0,1,159,350Zm-7,33a10,10,0,0,0,10,10h20a10,10,0,0,0,10-10V363a10,10,0,0,0-10-10H162a10,10,0,0,0-10,10v20Zm96-212H212v-4h36v4Zm36,13H212v-4h72v4Zm-36,54H212v-4h36v4Zm-35-16h54v4H213v-4Zm69,16H254v-4h28v4Zm2,13H212v-4h72v4Zm-36,56H212v-4h36v4Zm-35-16h54v4H213v-4Zm69,16H254v-4h28v4Zm2,13H212v-4h72v4Zm-36,54H212v-4h36v4Zm-35-16h54v4H213v-4Zm69,16H254v-4h28v4Zm2,13H212v-4h72v4Zm29-13H289v-4h24v4Zm-1,13H292v-4h20v4Zm42-228H319v-4h35v4Zm0,67H319v-4h35v4Zm0,69H319v-4h35v4Zm0,67H319v-4h35v4Zm5,12H320v-4h39v4Zm0,13H327v-4h32v4Zm-32-71h32v4H327v-4Zm-7-13h39v4H320v-4Zm7-56h32v4H327v-4Zm-7-13h39v4H320v-4Zm7-54h32v4H327v-4Zm-7-13h39v4H320v-4ZM292,316h20v4H292v-4Zm-9,42h27v4H283v-4Zm6-55h24v4H289v-4Zm3-56h20v4H292v-4Zm-9,44h27v4H283v-4Zm6-57h24v4H289v-4Zm3-54h20v4H292v-4Zm-9,42h27v4H283v-4Zm6-55h24v4H289v-4Zm-6-12h27v4H283v-4Zm-29,12h28v4H254v-4Zm-41-12h54v4H213v-4Z"/>
</svg>
