<svg id="ignored-parent" xmlns="http://www.w3.org/2000/svg" width="858" height="1720" viewBox="0 0 858 1720">
  <defs>
    <style>
      .cls-1, .cls-3 {
        fill: #fff;
      }

      .cls-1 {
        stroke: #e4e4e4;
        stroke-width: 2px;
      }

      .cls-2 {
        fill: #fafbfd;
      }

      .cls-2, .cls-4 {
        fill-rule: evenodd;
      }

      .cls-3 {
        stroke: #f1f3f5;
        stroke-width: 8px;
      }

      .cls-4 {
        fill: #cbd7e6;
      }
    </style>
  </defs>
  <g id="Device">
    <rect id="device-2" data-name="device" class="cls-1" x="3" y="4" width="853" height="1713" rx="130" ry="130"/>
    <path id="screen" class="cls-2" d="M704,1658H153c-65.535,0-93-51.14-93-105V157c0-57.9,40.96-93,94-93h55c14.438,0,17,9.733,17,21,0,20.3,12.76,39,49,39H588c33.542,0,46-19.374,46-40,0-14.868,6.691-20,17-20h57c76.335,0,92,64.558,92,88V1562C800,1620.33,759.737,1658,704,1658Z"/>
  </g>
  <g id="done">
    <rect id="question_bg" data-name="question bg" class="cls-3" x="103" y="1438" width="652" height="119" rx="15" ry="15"/>
    <path id="CONTINUE" class="cls-4" d="M322.128,1506.34a15.8,15.8,0,0,1-11.911,4.86c-8.556,0-14.858-6.19-14.858-15.56s6.244-15.55,14.858-15.55c5.551,0,10,2.89,11.564,4.86l2.37-4.51c-2.2-2.14-6.707-5.26-14.165-5.26-11.448,0-20.409,8.15-20.409,20.58s8.788,20.58,20.409,20.58c7.574,0,12.084-3.12,14.57-5.89Zm47.045-10.58c0-12.78-9.366-20.58-20.582-20.58s-20.583,7.8-20.583,20.58,9.366,20.58,20.583,20.58S369.173,1508.54,369.173,1495.76Zm-5.723-.12c0,9.72-6.707,15.62-14.859,15.62-8.1,0-14.859-5.9-14.859-15.62,0-9.77,6.707-15.61,14.859-15.61S363.45,1485.87,363.45,1495.64Zm46.175-19.88h-5.492v21.16c0,5.26.057,10.17,0.057,10.17l-22.606-31.33h-5.9v39.89h5.55v-21.22c0-5.2-.115-10.58-0.115-10.58l23.011,31.8h5.492v-39.89Zm32.937,0h-28.1v4.68h11.274v35.21h5.608v-35.21h11.217v-4.68Zm10.452,0h-5.609v39.89h5.609v-39.89Zm42.719,0h-5.492v21.16c0,5.26.058,10.17,0.058,10.17l-22.607-31.33h-5.9v39.89h5.55v-21.22c0-5.2-.115-10.58-0.115-10.58l23.011,31.8h5.492v-39.89Zm38.892,0h-5.608v23.06c0,3.3-.058,6.6-1.85,8.97a10.16,10.16,0,0,1-15.38,0c-1.792-2.37-1.85-5.61-1.85-8.97v-23.06h-5.666v23.59c0,4.97.463,8.9,3.238,12.14,2.659,3.12,6.649,4.85,11.968,4.85,5.261,0,9.251-1.73,11.968-4.85,2.717-3.24,3.18-7.17,3.18-12.14v-23.59Zm32.3,35.15H548.715v-13.88h16.767v-4.68H548.715v-11.91h17.75v-4.68H543.107v39.89h23.82v-4.74Z"/>
  </g>
  <path id="_Place_on_firm_level_surface_Extension_ladders_should_" data-name="• Place on firm &amp; level surface  • Extension ladders should    " class="cls-4" d="M118.47,506.4a7.526,7.526,0,1,0-7.5,7.55A7.665,7.665,0,0,0,118.47,506.4Zm41.149-6.4a9.072,9.072,0,0,0-3.35-7.4c-2.1-1.8-5-2.45-8.351-2.45h-9.7v34.5h4.851v-14.8h4.85c3.351,0,6.251-.65,8.351-2.45A9.006,9.006,0,0,0,159.619,500Zm-5,0a5.551,5.551,0,0,1-2.1,4.6,8.5,8.5,0,0,1-5,1.3h-4.45V494.1h4.45a8.146,8.146,0,0,1,5,1.35A5.453,5.453,0,0,1,154.619,500Zm14.648-9.851h-4.75v34.5h4.75v-34.5Zm25.3,20.7c0-4.05-.951-6.051-2.551-7.7-1.6-1.6-3.9-2.7-7.85-2.7a18.291,18.291,0,0,0-8.9,2.4l1.45,3.2a14.586,14.586,0,0,1,7.151-2.05c3.45,0,5.9,1.8,5.9,5.4v0.95l-6.351.25c-5.5.25-9.3,2.6-9.3,7.251,0,4.6,3.8,7.35,8.2,7.35a9.8,9.8,0,0,0,7.551-3.55l0.05,3h4.651v-13.8Zm-4.751,7.5a7.457,7.457,0,0,1-6.05,3.45c-3.151,0-4.9-1.85-4.9-4.1s1.55-3.9,5.4-4.1l5.55-.35v5.1Zm29.1-.25a9.876,9.876,0,0,1-7.2,3c-4.6,0-7.75-3.45-7.75-8.451s3.5-8.2,7.7-8.2a9.369,9.369,0,0,1,7.1,2.9l1.7-3.5c-0.25-.3-2.85-3.4-9.2-3.4A11.986,11.986,0,0,0,199.116,512.8c0,7.6,5.6,12.4,12,12.4,6.351,0,8.8-2.9,9.5-3.6Zm27.25-6.3c0-6.651-4.651-11.351-11.251-11.351s-12.051,4.8-12.051,12.3c0,7.551,4.85,12.451,11.9,12.451,7.1,0,10.151-3.5,10.451-3.75l-2-2.75a13.146,13.146,0,0,1-7.851,2.75c-4.4,0-7.4-2.85-7.651-7.551h18.3A20.7,20.7,0,0,0,246.168,511.8Zm-18.4-1.1a6.989,6.989,0,0,1,7-6.8,6.864,6.864,0,0,1,6.85,6.8H227.766Zm56.651,2.15c0-7.351-5.5-12.4-12.551-12.4-7.1,0-12.6,5.05-12.6,12.4,0,7.4,5.5,12.351,12.6,12.351C278.916,525.2,284.417,520.249,284.417,512.848Zm-4.85-.15c0,4.7-2.951,8.4-7.7,8.4-4.8,0-7.751-3.7-7.751-8.4,0-4.65,2.95-8.351,7.751-8.351C276.616,504.347,279.567,508.048,279.567,512.7Zm30.5-2.1c0-5.7-1.751-10.151-8.5-10.151a8.023,8.023,0,0,0-7.251,4.2h-0.15l0.05-3.75h-4.8v23.752h4.8V512.7c0-4.55,1.65-8.3,6.1-8.3,4.25,0,4.95,3,4.95,7v13.251h4.8V510.6Zm36.248-17.5a3.13,3.13,0,1,0-3.15,2.951A2.946,2.946,0,0,0,346.315,493.1Zm-0.75,7.8h-4.75v23.752h4.75V500.9Zm-7-10.751a14.043,14.043,0,0,0-3.75-.55,7.173,7.173,0,0,0-5.9,2.6c-1.151,1.3-1.6,3.25-1.6,6.351v2.4h-3.4v3.85h3.4v19.852h4.751V504.8h5.65v-3.85h-5.65V499.5c0-2.8-.1-6.251,3.65-6.251a7.67,7.67,0,0,1,2.5.45Zm27.05,10.7a6.675,6.675,0,0,0-2.5-.4,6.2,6.2,0,0,0-5.85,4.1h-0.15l0.05-3.65h-4.8v23.752h4.8V512.8a10.527,10.527,0,0,1,1.45-6,4.972,4.972,0,0,1,3.9-2,6.287,6.287,0,0,1,2.6.5h0.2Zm37.9,9.4c0-5.151-1.7-9.8-8.051-9.8a8.247,8.247,0,0,0-7.551,4.7c-1.1-3.1-3.55-4.7-7.05-4.7a7.836,7.836,0,0,0-6.851,4.2h-0.15l0.05-3.75h-4.8v23.752h4.8V512.3c0-4.25,1.9-7.9,5.7-7.9,3.45,0,4.3,2.9,4.3,6.4v13.851h4.8V512.3c0-4.25,1.9-7.9,5.7-7.9,3.85,0,4.35,3.651,4.35,6.4v13.851h4.751v-14.4Zm47.249,14.1-7.251-7.9a55.06,55.06,0,0,0,5.351-8.2l-3.751-1.7a40.707,40.707,0,0,1-4.3,7l-6.7-7.9c3.65-2.05,6.851-4.95,6.851-8.8,0-4.4-3.551-7.251-8.6-7.251s-8.8,2.85-8.8,7.351c0,3.6,2.2,5.85,3.9,7.9-4.8,2.451-9.05,5.3-9.05,10.751,0,6.2,4.7,9.651,10.7,9.651,5.25,0,8.45-2.3,11.651-5.55l4.25,4.95h5.751v-0.3Zm-14.152-27.4c0,3.15-3.5,5.1-5.15,6.05l-1.4-1.6a6.72,6.72,0,0,1-1.9-4.25,3.938,3.938,0,0,1,4.25-4.051C434.863,493.1,436.613,494.4,436.613,496.947Zm1.45,19.852c-1.5,2-4.7,4.65-8.35,4.65s-6.451-2.5-6.451-6.1c0-3.65,2.95-5.55,5.4-6.95l1.45-.8Zm31.3-26.653h-4.75v34.5h4.75v-34.5ZM497.913,511.8c0-6.651-4.651-11.351-11.251-11.351s-12.051,4.8-12.051,12.3c0,7.551,4.85,12.451,11.9,12.451,7.1,0,10.151-3.5,10.451-3.75l-2-2.75a13.143,13.143,0,0,1-7.851,2.75c-4.4,0-7.4-2.85-7.651-7.551h18.3A20.7,20.7,0,0,0,497.913,511.8Zm-18.4-1.1a6.989,6.989,0,0,1,7-6.8,6.864,6.864,0,0,1,6.85,6.8H479.511Zm38.951-9.8-7,17.9-7.05-17.9h-5l9.9,23.752h4.2l9.9-23.752h-4.95Zm30,10.9c0-6.651-4.65-11.351-11.251-11.351s-12.051,4.8-12.051,12.3c0,7.551,4.85,12.451,11.9,12.451,7.1,0,10.151-3.5,10.451-3.75l-2-2.75a13.14,13.14,0,0,1-7.851,2.75c-4.4,0-7.4-2.85-7.651-7.551h18.3A20.7,20.7,0,0,0,548.462,511.8Zm-18.4-1.1a6.989,6.989,0,0,1,7-6.8,6.865,6.865,0,0,1,6.851,6.8H530.06Zm28.15-20.552h-4.75v34.5h4.75v-34.5Zm32.8,27.553a5.87,5.87,0,0,0-1.9-4.4,9.083,9.083,0,0,0-2.75-1.7c-1-.4-1.9-0.7-3.2-1.15-2.35-.75-4.651-1.6-4.651-3.55s1.5-2.951,3.8-2.951a8.706,8.706,0,0,1,6,2.551l2-2.951c-1.5-1.6-3.9-3.1-8.1-3.1s-8,2.4-8,6.8a6.124,6.124,0,0,0,3.75,5.7,17.732,17.732,0,0,0,3.251,1.25c1.6,0.55,5.35,1.35,5.35,3.951s-2.35,3.4-4.55,3.4a9.748,9.748,0,0,1-7-3.4l-2.3,2.8a11.375,11.375,0,0,0,9.251,4.25,10.13,10.13,0,0,0,6.6-2.1A6.76,6.76,0,0,0,591.011,517.7Zm24.9-16.852h-4.8V513.6c0,4-1.7,7.6-5.9,7.6-4.25,0-4.95-3.05-4.95-6.3V500.847h-4.751V515.1c0,3.4.55,5.751,1.75,7.351,1.251,1.6,3.2,2.75,6.6,2.75a8.281,8.281,0,0,0,7.351-3.95l0.05,3.4h4.65v-23.8Zm19.849,0a6.675,6.675,0,0,0-2.5-.4,6.2,6.2,0,0,0-5.851,4.1h-0.15l0.05-3.65h-4.8v23.752h4.8V512.8a10.524,10.524,0,0,1,1.451-6,4.972,4.972,0,0,1,3.9-2,6.287,6.287,0,0,1,2.6.5h0.2Zm15.8-10.7a11.907,11.907,0,0,0-4.1-.55,7.192,7.192,0,0,0-5.7,2.6c-1,1.25-1.6,3.25-1.6,6.351v2.4h-3.4v3.85h3.4v19.852h4.75V504.8h5.651v-3.85h-5.651V498.3c0-2.7.5-5.051,3.65-5.051a9.812,9.812,0,0,1,2.7.45Zm19.85,20.7c0-4.05-.951-6.051-2.551-7.7-1.6-1.6-3.9-2.7-7.85-2.7a18.291,18.291,0,0,0-8.9,2.4l1.45,3.2a14.586,14.586,0,0,1,7.151-2.05c3.45,0,5.9,1.8,5.9,5.4v0.95l-6.35.25c-5.5.25-9.3,2.6-9.3,7.251,0,4.6,3.8,7.35,8.2,7.35a9.8,9.8,0,0,0,7.551-3.55l0.05,3h4.651v-13.8Zm-4.751,7.5a7.457,7.457,0,0,1-6.05,3.45c-3.151,0-4.9-1.85-4.9-4.1s1.55-3.9,5.4-4.1l5.55-.35v5.1Zm29.1-.25a9.876,9.876,0,0,1-7.2,3c-4.6,0-7.75-3.45-7.75-8.451s3.5-8.2,7.7-8.2a9.369,9.369,0,0,1,7.1,2.9l1.7-3.5c-0.25-.3-2.85-3.4-9.2-3.4A11.986,11.986,0,0,0,675.956,512.8c0,7.6,5.6,12.4,12,12.4,6.351,0,8.8-2.9,9.5-3.6Zm27.25-6.3c0-6.651-4.651-11.351-11.251-11.351s-12.051,4.8-12.051,12.3c0,7.551,4.85,12.451,11.9,12.451,7.1,0,10.151-3.5,10.451-3.75l-2-2.75a13.146,13.146,0,0,1-7.851,2.75c-4.4,0-7.4-2.85-7.651-7.551h18.3A20.7,20.7,0,0,0,723.008,511.8Zm-18.4-1.1a6.989,6.989,0,0,1,7-6.8,6.864,6.864,0,0,1,6.85,6.8H704.606ZM118.47,626.4a7.526,7.526,0,1,0-7.5,7.551A7.665,7.665,0,0,0,118.47,626.4Zm40.349,14.152H143.068v-12h14.5V624.5h-14.5V614.2h15.351v-4.05h-20.2v34.5h20.6v-4.1Zm17.349-8.4,8.6-11.251h-5.351l-6.05,8.551-6.051-8.551h-5.3l8.55,11.251-9.65,12.5h5.4L173.368,635l7.05,9.651h5.4Zm24.149,8.4a5.793,5.793,0,0,1-2.45.55,2.487,2.487,0,0,1-2.45-1.2c-0.55-1-.6-2.35-0.6-4.351V624.8h5.7v-3.85h-5.7v-7.1h-4.8v7.1h-3.5v3.85h3.5v10.851c0,3.751.2,5.6,1.2,7.1a5.578,5.578,0,0,0,5.051,2.45,12.034,12.034,0,0,0,4.35-.8Zm26-8.751c0-6.651-4.651-11.351-11.251-11.351s-12.052,4.8-12.052,12.3c0,7.551,4.851,12.451,11.9,12.451,7.1,0,10.151-3.5,10.451-3.75l-2-2.75a13.139,13.139,0,0,1-7.85,2.75c-4.4,0-7.4-2.85-7.651-7.551h18.3A20.7,20.7,0,0,0,226.318,631.8Zm-18.4-1.1a6.989,6.989,0,0,1,7-6.8,6.864,6.864,0,0,1,6.85,6.8H207.916Zm43.8-.1c0-5.7-1.75-10.151-8.5-10.151a8.023,8.023,0,0,0-7.25,4.2h-0.15l0.05-3.75h-4.8v23.752h4.8V632.7c0-4.55,1.65-8.3,6.1-8.3,4.251,0,4.951,3,4.951,7v13.251h4.8V630.6Zm22.4,7.1a5.87,5.87,0,0,0-1.9-4.4,9.075,9.075,0,0,0-2.751-1.7c-1-.4-1.9-0.7-3.2-1.15-2.35-.75-4.65-1.6-4.65-3.55s1.5-2.951,3.8-2.951a8.714,8.714,0,0,1,6,2.55l2-2.95c-1.5-1.6-3.9-3.1-8.1-3.1s-8,2.4-8,6.8a6.123,6.123,0,0,0,3.751,5.7,17.747,17.747,0,0,0,3.25,1.25c1.6,0.55,5.35,1.35,5.35,3.951s-2.35,3.4-4.55,3.4a9.752,9.752,0,0,1-7-3.4l-2.3,2.8a11.376,11.376,0,0,0,9.251,4.25,10.135,10.135,0,0,0,6.6-2.1A6.759,6.759,0,0,0,274.116,637.7Zm10.4-24.6a3.13,3.13,0,1,0-3.1,2.95A2.932,2.932,0,0,0,284.514,613.1Zm-0.7,7.8h-4.8v23.752h4.8V620.9Zm30.351,11.951c0-7.351-5.5-12.4-12.551-12.4-7.1,0-12.6,5.05-12.6,12.4,0,7.4,5.5,12.351,12.6,12.351C308.665,645.2,314.165,640.249,314.165,632.848Zm-4.85-.15c0,4.7-2.95,8.4-7.7,8.4-4.8,0-7.75-3.7-7.75-8.4,0-4.65,2.95-8.351,7.75-8.351C306.365,624.347,309.315,628.048,309.315,632.7Zm30.5-2.1c0-5.7-1.75-10.151-8.5-10.151a8.023,8.023,0,0,0-7.25,4.2h-0.15l0.05-3.75h-4.8v23.752h4.8V632.7c0-4.55,1.65-8.3,6.1-8.3,4.251,0,4.951,3,4.951,7v13.251h4.8V630.6Zm21.347-20.452h-4.75v34.5h4.75v-34.5Zm25.3,20.7c0-4.05-.95-6.051-2.55-7.7-1.6-1.6-3.9-2.7-7.851-2.7a18.29,18.29,0,0,0-8.9,2.4l1.45,3.2a14.585,14.585,0,0,1,7.15-2.05c3.451,0,5.9,1.8,5.9,5.4v0.95l-6.351.25c-5.5.25-9.3,2.6-9.3,7.251,0,4.6,3.8,7.35,8.2,7.35a9.8,9.8,0,0,0,7.551-3.55l0.05,3h4.65v-13.8Zm-4.75,7.5a7.457,7.457,0,0,1-6.051,3.45c-3.15,0-4.9-1.85-4.9-4.1s1.55-3.9,5.4-4.1l5.551-.35v5.1Zm33.9-28.2h-4.75V624.6h-0.1a9.6,9.6,0,0,0-8.3-4.15c-6.951,0-11.451,5.3-11.451,12.3,0,7.051,4.5,12.451,11.551,12.451a9.664,9.664,0,0,0,8.351-4.35h0.1v3.8h4.6v-34.5Zm-4.6,22.552c0,4.751-2.8,8.4-7.551,8.4s-7.551-3.65-7.551-8.4,2.8-8.351,7.551-8.351S411.013,627.948,411.013,632.7Zm34.45-22.552h-4.751V624.6h-0.1a9.6,9.6,0,0,0-8.3-4.15c-6.95,0-11.451,5.3-11.451,12.3,0,7.051,4.5,12.451,11.551,12.451a9.663,9.663,0,0,0,8.351-4.35h0.1v3.8h4.6v-34.5Zm-4.6,22.552c0,4.751-2.8,8.4-7.551,8.4s-7.55-3.65-7.55-8.4,2.8-8.351,7.55-8.351S440.862,627.948,440.862,632.7Zm33.15-.9c0-6.651-4.651-11.351-11.252-11.351s-12.051,4.8-12.051,12.3c0,7.551,4.851,12.451,11.9,12.451,7.1,0,10.151-3.5,10.451-3.75l-2-2.75a13.139,13.139,0,0,1-7.85,2.75c-4.4,0-7.4-2.85-7.651-7.551h18.3A20.7,20.7,0,0,0,474.012,631.8Zm-18.4-1.1a6.988,6.988,0,0,1,7-6.8,6.864,6.864,0,0,1,6.851,6.8H455.61Zm36.4-9.851a6.675,6.675,0,0,0-2.5-.4,6.2,6.2,0,0,0-5.85,4.1h-0.151l0.05-3.65h-4.8v23.752h4.8V632.8a10.524,10.524,0,0,1,1.451-6,4.972,4.972,0,0,1,3.9-2,6.287,6.287,0,0,1,2.6.5h0.2Zm19.5,16.852a5.87,5.87,0,0,0-1.9-4.4,9.083,9.083,0,0,0-2.75-1.7c-1-.4-1.9-0.7-3.2-1.15-2.35-.75-4.65-1.6-4.65-3.55s1.5-2.951,3.8-2.951a8.712,8.712,0,0,1,6,2.55l2-2.95c-1.5-1.6-3.9-3.1-8.1-3.1s-8,2.4-8,6.8a6.124,6.124,0,0,0,3.751,5.7,17.747,17.747,0,0,0,3.25,1.25c1.6,0.55,5.351,1.35,5.351,3.951s-2.351,3.4-4.551,3.4a9.748,9.748,0,0,1-7-3.4l-2.3,2.8a11.377,11.377,0,0,0,9.251,4.25,10.133,10.133,0,0,0,6.6-2.1A6.759,6.759,0,0,0,511.51,637.7Zm30.649,0a5.87,5.87,0,0,0-1.9-4.4,9.088,9.088,0,0,0-2.751-1.7c-1-.4-1.9-0.7-3.2-1.15-2.35-.75-4.65-1.6-4.65-3.55s1.5-2.951,3.8-2.951a8.714,8.714,0,0,1,6,2.55l2-2.95c-1.5-1.6-3.9-3.1-8.1-3.1s-8,2.4-8,6.8a6.123,6.123,0,0,0,3.751,5.7,17.747,17.747,0,0,0,3.25,1.25c1.6,0.55,5.35,1.35,5.35,3.951s-2.35,3.4-4.55,3.4a9.75,9.75,0,0,1-7-3.4l-2.3,2.8a11.376,11.376,0,0,0,9.251,4.25,10.135,10.135,0,0,0,6.6-2.1A6.759,6.759,0,0,0,542.159,637.7Zm25.6-7.2c0-5.651-1.651-10.051-8.5-10.051a8.1,8.1,0,0,0-7.3,4.2h-0.1v-14.5h-4.75v34.5h4.75V632.9c0-4.75,1.85-8.5,6.2-8.5s4.9,3.4,4.9,6.8v13.451h4.8V630.5Zm30.049,2.35c0-7.351-5.5-12.4-12.551-12.4-7.1,0-12.6,5.05-12.6,12.4,0,7.4,5.5,12.351,12.6,12.351C592.308,645.2,597.808,640.249,597.808,632.848Zm-4.85-.15c0,4.7-2.951,8.4-7.7,8.4-4.8,0-7.751-3.7-7.751-8.4,0-4.65,2.95-8.351,7.751-8.351C590.007,624.347,592.958,628.048,592.958,632.7Zm30.05-11.851h-4.8V633.6c0,4-1.7,7.6-5.9,7.6-4.251,0-4.951-3.05-4.951-6.3V620.847h-4.75V635.1c0,3.4.55,5.751,1.75,7.351,1.25,1.6,3.2,2.75,6.6,2.75a8.279,8.279,0,0,0,7.35-3.95l0.05,3.4h4.651v-23.8Zm11.6-10.7h-4.75v34.5h4.75v-34.5Zm29.852,0h-4.751V624.6h-0.1a9.6,9.6,0,0,0-8.3-4.15c-6.95,0-11.451,5.3-11.451,12.3,0,7.051,4.5,12.451,11.551,12.451a9.663,9.663,0,0,0,8.351-4.35h0.1v3.8h4.6v-34.5Zm-4.6,22.552c0,4.751-2.8,8.4-7.55,8.4s-7.551-3.65-7.551-8.4,2.8-8.351,7.551-8.351S659.857,627.948,659.857,632.7ZM118.47,866.4a7.526,7.526,0,1,0-7.5,7.551A7.665,7.665,0,0,0,118.47,866.4Zm53.251-16.251H165.77L155.819,876.8h-0.1l-9.951-26.652h-6l-3.1,34.5h4.8l2.2-27.252h0.15l10.551,27.552h2.75L167.67,857.4h0.15l2.25,27.252h4.8Zm27.147,20.7c0-4.051-.95-6.051-2.55-7.7-1.6-1.6-3.9-2.7-7.851-2.7a18.29,18.29,0,0,0-8.9,2.4l1.45,3.2a14.585,14.585,0,0,1,7.15-2.05c3.451,0,5.9,1.8,5.9,5.4v0.95l-6.351.25c-5.5.25-9.3,2.6-9.3,7.25,0,4.6,3.8,7.351,8.2,7.351a9.8,9.8,0,0,0,7.551-3.55l0.05,3h4.65v-13.8Zm-4.75,7.5a7.457,7.457,0,0,1-6.051,3.45c-3.15,0-4.9-1.85-4.9-4.1s1.55-3.9,5.4-4.1l5.551-.35v5.1Zm21.9-8.5,9.3-8.951h-5.6l-9.7,9.5V850.146h-4.751v34.5h4.751v-8.9l2.75-2.6,8.151,11.5h5.6Zm35.051,1.95c0-6.651-4.65-11.351-11.251-11.351s-12.051,4.8-12.051,12.3c0,7.551,4.85,12.451,11.9,12.451,7.1,0,10.151-3.5,10.451-3.75l-2-2.75a13.14,13.14,0,0,1-7.851,2.75c-4.4,0-7.4-2.85-7.651-7.551h18.3A20.7,20.7,0,0,0,251.068,871.8Zm-18.4-1.1a6.989,6.989,0,0,1,7-6.8,6.864,6.864,0,0,1,6.851,6.8H232.666Zm49.1,7a5.866,5.866,0,0,0-1.9-4.4,9.083,9.083,0,0,0-2.75-1.7c-1-.4-1.9-0.7-3.2-1.15-2.35-.75-4.651-1.6-4.651-3.551s1.5-2.95,3.8-2.95a8.71,8.71,0,0,1,6,2.55l2-2.95c-1.5-1.6-3.9-3.1-8.1-3.1s-8,2.4-8,6.8a6.124,6.124,0,0,0,3.75,5.7,17.761,17.761,0,0,0,3.251,1.25c1.6,0.55,5.35,1.35,5.35,3.951s-2.35,3.4-4.55,3.4a9.75,9.75,0,0,1-7-3.4l-2.3,2.8a11.375,11.375,0,0,0,9.251,4.25,10.13,10.13,0,0,0,6.6-2.1A6.757,6.757,0,0,0,281.767,877.7Zm24.9-16.851h-4.8V873.6c0,4-1.7,7.6-5.9,7.6-4.25,0-4.95-3.05-4.95-6.3V860.847h-4.751V875.1c0,3.4.55,5.751,1.75,7.351,1.251,1.6,3.2,2.75,6.6,2.75a8.281,8.281,0,0,0,7.351-3.95l0.05,3.4h4.65v-23.8Zm19.849,0a6.675,6.675,0,0,0-2.5-.4,6.2,6.2,0,0,0-5.85,4.1h-0.15l0.05-3.65h-4.8v23.752h4.8V872.8a10.534,10.534,0,0,1,1.45-6,4.975,4.975,0,0,1,3.9-2,6.287,6.287,0,0,1,2.6.5h0.2Zm25.2,10.951c0-6.651-4.651-11.351-11.251-11.351s-12.052,4.8-12.052,12.3c0,7.551,4.851,12.451,11.9,12.451,7.1,0,10.151-3.5,10.451-3.75l-2-2.75a13.139,13.139,0,0,1-7.85,2.75c-4.4,0-7.4-2.85-7.651-7.551h18.3A20.7,20.7,0,0,0,351.716,871.8Zm-18.4-1.1a6.989,6.989,0,0,1,7-6.8,6.864,6.864,0,0,1,6.85,6.8H333.314Zm38.1-20.552h-4.75v34.5h4.75v-34.5Zm25.3,20.7c0-4.051-.95-6.051-2.55-7.7-1.6-1.6-3.9-2.7-7.851-2.7a18.3,18.3,0,0,0-8.9,2.4l1.451,3.2a14.585,14.585,0,0,1,7.15-2.05c3.451,0,5.9,1.8,5.9,5.4v0.95l-6.351.25c-5.5.25-9.3,2.6-9.3,7.25,0,4.6,3.8,7.351,8.2,7.351a9.8,9.8,0,0,0,7.551-3.55l0.05,3h4.65v-13.8Zm-4.75,7.5a7.457,7.457,0,0,1-6.051,3.45c-3.15,0-4.9-1.85-4.9-4.1s1.55-3.9,5.4-4.1l5.551-.35v5.1Zm33.9-28.2h-4.75V864.6h-0.1a9.6,9.6,0,0,0-8.3-4.15c-6.951,0-11.451,5.3-11.451,12.3,0,7.051,4.5,12.451,11.551,12.451a9.664,9.664,0,0,0,8.351-4.35h0.1v3.8h4.6v-34.5Zm-4.6,22.552c0,4.75-2.8,8.4-7.551,8.4s-7.551-3.651-7.551-8.4,2.8-8.351,7.551-8.351S421.264,867.948,421.264,872.7Zm34.449-22.552h-4.75V864.6h-0.1a9.6,9.6,0,0,0-8.3-4.15c-6.951,0-11.451,5.3-11.451,12.3,0,7.051,4.5,12.451,11.551,12.451a9.664,9.664,0,0,0,8.351-4.35h0.1v3.8h4.6v-34.5Zm-4.6,22.552c0,4.75-2.8,8.4-7.551,8.4s-7.551-3.651-7.551-8.4,2.8-8.351,7.551-8.351S451.113,867.948,451.113,872.7Zm33.149-.9c0-6.651-4.65-11.351-11.251-11.351s-12.051,4.8-12.051,12.3c0,7.551,4.851,12.451,11.9,12.451,7.1,0,10.151-3.5,10.451-3.75l-2-2.75a13.14,13.14,0,0,1-7.851,2.75c-4.4,0-7.4-2.85-7.65-7.551h18.3A20.7,20.7,0,0,0,484.262,871.8Zm-18.4-1.1a6.988,6.988,0,0,1,7-6.8,6.864,6.864,0,0,1,6.851,6.8H465.861Zm36.4-9.851a6.675,6.675,0,0,0-2.5-.4,6.2,6.2,0,0,0-5.851,4.1h-0.15l0.05-3.65h-4.8v23.752h4.8V872.8a10.534,10.534,0,0,1,1.45-6,4.979,4.979,0,0,1,3.9-2,6.287,6.287,0,0,1,2.6.5h0.2Zm19.148-7.751a3.13,3.13,0,1,0-3.1,2.95A2.932,2.932,0,0,0,521.409,853.1Zm-0.7,7.8h-4.8v23.752h4.8V860.9Zm22.8,16.8a5.869,5.869,0,0,0-1.9-4.4,9.083,9.083,0,0,0-2.75-1.7c-1-.4-1.9-0.7-3.2-1.15-2.35-.75-4.65-1.6-4.65-3.551s1.5-2.95,3.8-2.95a8.712,8.712,0,0,1,6,2.55l2-2.95c-1.5-1.6-3.9-3.1-8.1-3.1s-8,2.4-8,6.8a6.125,6.125,0,0,0,3.751,5.7,17.747,17.747,0,0,0,3.25,1.25c1.6,0.55,5.351,1.35,5.351,3.951s-2.351,3.4-4.551,3.4a9.752,9.752,0,0,1-7-3.4l-2.3,2.8a11.376,11.376,0,0,0,9.251,4.25,10.133,10.133,0,0,0,6.6-2.1A6.759,6.759,0,0,0,543.51,877.7Zm30.649,0a5.866,5.866,0,0,0-1.9-4.4,9.083,9.083,0,0,0-2.75-1.7c-1-.4-1.9-0.7-3.2-1.15-2.35-.75-4.651-1.6-4.651-3.551s1.5-2.95,3.8-2.95a8.71,8.71,0,0,1,6,2.55l2-2.95c-1.5-1.6-3.9-3.1-8.1-3.1s-8,2.4-8,6.8a6.124,6.124,0,0,0,3.75,5.7,17.789,17.789,0,0,0,3.251,1.25c1.6,0.55,5.35,1.35,5.35,3.951s-2.35,3.4-4.55,3.4a9.75,9.75,0,0,1-7-3.4l-2.3,2.8a11.375,11.375,0,0,0,9.251,4.25,10.13,10.13,0,0,0,6.6-2.1A6.757,6.757,0,0,0,574.159,877.7Zm15.948,2.851a5.793,5.793,0,0,1-2.45.55,2.487,2.487,0,0,1-2.45-1.2c-0.55-1-.6-2.351-0.6-4.351V864.8h5.7v-3.85h-5.7v-7.1h-4.8v7.1h-3.5v3.85h3.5v10.851c0,3.751.2,5.6,1.2,7.1a5.576,5.576,0,0,0,5.05,2.45,12.034,12.034,0,0,0,4.35-.8Zm22.751-9.7c0-4.051-.95-6.051-2.551-7.7-1.6-1.6-3.9-2.7-7.85-2.7a18.291,18.291,0,0,0-8.9,2.4l1.45,3.2a14.586,14.586,0,0,1,7.151-2.05c3.45,0,5.9,1.8,5.9,5.4v0.95l-6.35.25c-5.5.25-9.3,2.6-9.3,7.25,0,4.6,3.8,7.351,8.2,7.351a9.8,9.8,0,0,0,7.551-3.55l0.05,3h4.651v-13.8Zm-4.751,7.5a7.457,7.457,0,0,1-6.05,3.45c-3.151,0-4.9-1.85-4.9-4.1s1.55-3.9,5.4-4.1l5.55-.35v5.1Zm35.751-5.6c0-7-4.5-12.3-11.451-12.3a9.677,9.677,0,0,0-8.3,4.15h-0.1V850.146h-4.751v34.5h4.6V880.9h0.1a9.619,9.619,0,0,0,8.351,4.3C639.357,885.2,643.858,879.8,643.858,872.748Zm-4.9-.05c0,4.75-2.8,8.4-7.551,8.4s-7.6-3.651-7.6-8.4,2.85-8.351,7.6-8.351S638.957,867.948,638.957,872.7Zm14.9-22.552H649.1v34.5h4.751v-34.5ZM682.406,871.8c0-6.651-4.65-11.351-11.251-11.351s-12.051,4.8-12.051,12.3c0,7.551,4.851,12.451,11.9,12.451,7.1,0,10.151-3.5,10.451-3.75l-2-2.75a13.14,13.14,0,0,1-7.851,2.75c-4.4,0-7.4-2.85-7.65-7.551h18.3A20.7,20.7,0,0,0,682.406,871.8Zm-18.4-1.1a6.988,6.988,0,0,1,7-6.8,6.864,6.864,0,0,1,6.851,6.8H664.005ZM118.47,986.4a7.526,7.526,0,1,0-7.5,7.551A7.665,7.665,0,0,0,118.47,986.4Zm45.75-16.251h-4.851V990.1c0,2.85-.05,5.7-1.6,7.75a8.772,8.772,0,0,1-13.3,0c-1.55-2.05-1.6-4.85-1.6-7.75V970.146h-4.9v20.4c0,4.3.4,7.7,2.8,10.5,2.3,2.7,5.75,4.2,10.351,4.2,4.55,0,8-1.5,10.351-4.2,2.35-2.8,2.75-6.2,2.75-10.5v-20.4ZM187.068,997.7a5.869,5.869,0,0,0-1.9-4.4,9.083,9.083,0,0,0-2.75-1.7c-1-.4-1.9-0.7-3.2-1.15-2.351-.75-4.651-1.6-4.651-3.551s1.5-2.95,3.8-2.95a8.71,8.71,0,0,1,6,2.55l2-2.95c-1.5-1.6-3.9-3.1-8.1-3.1s-8,2.4-8,6.8a6.124,6.124,0,0,0,3.75,5.7,17.732,17.732,0,0,0,3.251,1.25c1.6,0.55,5.35,1.35,5.35,3.951s-2.35,3.4-4.55,3.4a9.746,9.746,0,0,1-7-3.4l-2.3,2.8a11.375,11.375,0,0,0,9.251,4.25,10.13,10.13,0,0,0,6.6-2.1A6.762,6.762,0,0,0,187.068,997.7Zm26.4-5.9c0-6.651-4.65-11.351-11.251-11.351s-12.051,4.8-12.051,12.3c0,7.552,4.85,12.452,11.9,12.452,7.1,0,10.151-3.5,10.451-3.75l-2-2.751a13.138,13.138,0,0,1-7.851,2.751c-4.4,0-7.4-2.851-7.651-7.552h18.3A20.7,20.7,0,0,0,213.468,991.8Zm-18.4-1.1a6.989,6.989,0,0,1,7-6.8,6.864,6.864,0,0,1,6.851,6.8H195.066Zm49.1,7a5.869,5.869,0,0,0-1.9-4.4,9.1,9.1,0,0,0-2.751-1.7c-1-.4-1.9-0.7-3.2-1.15-2.35-.75-4.65-1.6-4.65-3.551s1.5-2.95,3.8-2.95a8.71,8.71,0,0,1,6,2.55l2-2.95c-1.5-1.6-3.9-3.1-8.1-3.1s-8,2.4-8,6.8a6.124,6.124,0,0,0,3.75,5.7,17.789,17.789,0,0,0,3.251,1.25c1.6,0.55,5.35,1.35,5.35,3.951s-2.35,3.4-4.55,3.4a9.748,9.748,0,0,1-7-3.4l-2.3,2.8a11.375,11.375,0,0,0,9.251,4.25,10.13,10.13,0,0,0,6.6-2.1A6.759,6.759,0,0,0,244.167,997.7Zm24.9-16.851h-4.8V993.6c0,4-1.7,7.6-5.9,7.6-4.25,0-4.95-3.051-4.95-6.3V980.847h-4.751V995.1c0,3.4.55,5.752,1.751,7.352,1.25,1.6,3.2,2.75,6.6,2.75a8.28,8.28,0,0,0,7.351-3.95l0.05,3.4h4.65v-23.8Zm31.4,11.9c0-7.051-4.451-12.3-11.452-12.3a10.068,10.068,0,0,0-8.45,4.2h-0.1V980.9h-4.6v33.053h4.8V1000.9l0.05,0.05a9.227,9.227,0,0,0,8.2,4.25C295.966,1005.2,300.467,999.8,300.467,992.748Zm-4.9-.05c0,4.75-2.8,8.4-7.551,8.4s-7.55-3.652-7.55-8.4,2.8-8.351,7.55-8.351S295.566,987.948,295.566,992.7Zm34.7,0.05c0-7.051-4.45-12.3-11.451-12.3a10.07,10.07,0,0,0-8.451,4.2h-0.1V980.9h-4.6v33.053h4.8V1000.9l0.05,0.05a9.229,9.229,0,0,0,8.2,4.25C325.766,1005.2,330.266,999.8,330.266,992.748Zm-4.9-.05c0,4.75-2.8,8.4-7.551,8.4s-7.551-3.652-7.551-8.4,2.8-8.351,7.551-8.351S325.366,987.948,325.366,992.7Zm33.45,0.15c0-7.351-5.5-12.4-12.552-12.4-7.1,0-12.6,5.05-12.6,12.4,0,7.4,5.5,12.352,12.6,12.352C353.315,1005.2,358.816,1000.25,358.816,992.848Zm-4.851-.15c0,4.7-2.95,8.4-7.7,8.4-4.8,0-7.75-3.7-7.75-8.4,0-4.65,2.95-8.351,7.75-8.351C351.015,984.347,353.965,988.048,353.965,992.7Zm23.1-11.851a6.684,6.684,0,0,0-2.5-.4,6.2,6.2,0,0,0-5.85,4.1h-0.15l0.05-3.65h-4.8v23.753h4.8V992.8a10.531,10.531,0,0,1,1.45-6,4.975,4.975,0,0,1,3.9-2,6.3,6.3,0,0,1,2.6.5h0.2Zm14.749,19.7a5.793,5.793,0,0,1-2.45.55,2.487,2.487,0,0,1-2.451-1.2c-0.55-1-.6-2.351-0.6-4.351V984.8h5.7v-3.85h-5.7v-7.1h-4.8v7.1h-3.5v3.85h3.5v10.851c0,3.751.2,5.6,1.2,7.1a5.576,5.576,0,0,0,5.05,2.45,12.036,12.036,0,0,0,4.351-.8ZM411.762,973.1a3.13,3.13,0,1,0-3.1,2.95A2.932,2.932,0,0,0,411.762,973.1Zm-0.7,7.8h-4.8v23.753h4.8V980.9Zm19.1-10.751a11.9,11.9,0,0,0-4.1-.55,7.192,7.192,0,0,0-5.7,2.6c-1,1.25-1.6,3.25-1.6,6.351v2.4h-3.4v3.85h3.4v19.853h4.751V984.8h5.65v-3.85h-5.65V978.3c0-2.7.5-5.051,3.65-5.051a9.809,9.809,0,0,1,2.7.45Zm34.35,10.751h-4.75l0.05,3.75h-0.15a9.494,9.494,0,0,0-8.3-4.2c-6.1,0-11.451,4.4-11.451,11.951s5.35,11.952,11.451,11.952a9.526,9.526,0,0,0,8.3-4.25h0.1v1.2c0,3.25-.85,5.5-1.8,6.65-0.95,1.2-2.951,2.6-6.5,2.6a15.042,15.042,0,0,1-8.5-3l-2.25,3.35a18.244,18.244,0,0,0,10.6,3.55c5.9,0,8.851-2.4,10.6-4.55,1.75-2.1,2.6-5,2.6-10.251V980.9Zm-4.6,11.5c0,4.5-2.65,8.052-7.551,8.052-4.85,0-7.551-3.552-7.551-8.052s2.7-8.1,7.551-8.1C457.262,984.3,459.912,987.9,459.912,992.4Zm24.5-11.551a6.678,6.678,0,0,0-2.5-.4,6.2,6.2,0,0,0-5.85,4.1h-0.15l0.05-3.65h-4.8v23.753h4.8V992.8a10.531,10.531,0,0,1,1.45-6,4.975,4.975,0,0,1,3.9-2,6.293,6.293,0,0,1,2.6.5h0.2Zm27.05,12c0-7.351-5.5-12.4-12.551-12.4-7.1,0-12.6,5.05-12.6,12.4,0,7.4,5.5,12.352,12.6,12.352C505.961,1005.2,511.461,1000.25,511.461,992.848Zm-4.85-.15c0,4.7-2.951,8.4-7.7,8.4-4.8,0-7.751-3.7-7.751-8.4,0-4.65,2.951-8.351,7.751-8.351C503.66,984.347,506.611,988.048,506.611,992.7Zm30.05-11.851h-4.8V993.6c0,4-1.7,7.6-5.9,7.6-4.251,0-4.951-3.051-4.951-6.3V980.847h-4.75V995.1c0,3.4.55,5.752,1.75,7.352,1.25,1.6,3.2,2.75,6.6,2.75a8.279,8.279,0,0,0,7.35-3.95l0.05,3.4h4.651v-23.8Zm27.25,9.751c0-5.7-1.751-10.151-8.5-10.151a8.023,8.023,0,0,0-7.251,4.2h-0.15l0.05-3.75h-4.8v23.753h4.8V992.7c0-4.55,1.65-8.3,6.1-8.3,4.25,0,4.95,3,4.95,7v13.252h4.8V990.6Zm29.4-20.452h-4.75V984.6h-0.1a9.6,9.6,0,0,0-8.3-4.15c-6.951,0-11.451,5.3-11.451,12.3,0,7.051,4.5,12.452,11.551,12.452a9.665,9.665,0,0,0,8.351-4.35h0.1v3.8h4.6v-34.5Zm-4.6,22.552c0,4.75-2.8,8.4-7.551,8.4s-7.551-3.652-7.551-8.4,2.8-8.351,7.551-8.351S588.71,987.948,588.71,992.7Zm27.1-19.6a3.131,3.131,0,1,0-3.1,2.95A2.932,2.932,0,0,0,615.807,973.1Zm-0.7,7.8h-4.8v23.753h4.8V980.9Zm22.8,16.8a5.869,5.869,0,0,0-1.9-4.4,9.083,9.083,0,0,0-2.75-1.7c-1-.4-1.9-0.7-3.2-1.15-2.35-.75-4.651-1.6-4.651-3.551s1.5-2.95,3.8-2.95a8.71,8.71,0,0,1,6,2.55l2-2.95c-1.5-1.6-3.9-3.1-8.1-3.1s-8,2.4-8,6.8a6.124,6.124,0,0,0,3.75,5.7,17.732,17.732,0,0,0,3.251,1.25c1.6,0.55,5.35,1.35,5.35,3.951s-2.35,3.4-4.55,3.4a9.746,9.746,0,0,1-7-3.4l-2.3,2.8a11.375,11.375,0,0,0,9.251,4.25,10.13,10.13,0,0,0,6.6-2.1A6.762,6.762,0,0,0,637.908,997.7Zm30.648,0a5.869,5.869,0,0,0-1.9-4.4,9.083,9.083,0,0,0-2.75-1.7c-1-.4-1.9-0.7-3.2-1.15-2.35-.75-4.65-1.6-4.65-3.551s1.5-2.95,3.8-2.95a8.71,8.71,0,0,1,6,2.55l2-2.95c-1.5-1.6-3.9-3.1-8.1-3.1s-8,2.4-8,6.8a6.124,6.124,0,0,0,3.75,5.7,17.747,17.747,0,0,0,3.25,1.25c1.6,0.55,5.351,1.35,5.351,3.951s-2.35,3.4-4.551,3.4a9.746,9.746,0,0,1-7-3.4l-2.3,2.8a11.377,11.377,0,0,0,9.251,4.25,10.131,10.131,0,0,0,6.6-2.1A6.762,6.762,0,0,0,668.556,997.7Zm28.25-4.85c0-7.351-5.5-12.4-12.551-12.4-7.1,0-12.6,5.05-12.6,12.4,0,7.4,5.5,12.352,12.6,12.352C691.306,1005.2,696.806,1000.25,696.806,992.848Zm-4.85-.15c0,4.7-2.951,8.4-7.7,8.4-4.8,0-7.751-3.7-7.751-8.4,0-4.65,2.951-8.351,7.751-8.351C689.005,984.347,691.956,988.048,691.956,992.7Zm34.8,7.852a5.793,5.793,0,0,1-2.45.55,2.485,2.485,0,0,1-2.45-1.2c-0.55-1-.6-2.351-0.6-4.351V984.8h5.7v-3.85h-5.7v-7.1h-4.8v7.1h-9V978.3c0-2.7.5-5.051,3.651-5.051a9.809,9.809,0,0,1,2.7.45l0.3-3.55a11.9,11.9,0,0,0-4.1-.55,7.193,7.193,0,0,0-5.7,2.6c-1,1.25-1.6,3.25-1.6,6.351v2.4h-3.4v3.85h3.4v19.853h4.75V984.8h9v10.851c0,3.751.2,5.6,1.2,7.1a5.578,5.578,0,0,0,5.051,2.45,12.034,12.034,0,0,0,4.35-.8ZM118.47,1106.4a7.526,7.526,0,1,0-7.5,7.55A7.665,7.665,0,0,0,118.47,1106.4Zm48.4,1a16.67,16.67,0,0,0-5.35-12.75,19,19,0,0,0-12.9-4.5h-10.4v34.5h10.4a19,19,0,0,0,12.9-4.5A16.67,16.67,0,0,0,166.87,1107.4Zm-4.95,0a12.992,12.992,0,0,1-4.1,9.85,13.163,13.163,0,0,1-9.2,3.2h-5.55V1094.3h5.55A12.5,12.5,0,0,1,161.92,1107.4Zm33.649,5.45c0-7.35-5.5-12.4-12.551-12.4-7.1,0-12.6,5.05-12.6,12.4,0,7.4,5.5,12.35,12.6,12.35C190.068,1125.2,195.569,1120.25,195.569,1112.85Zm-4.85-.15c0,4.7-2.951,8.4-7.7,8.4-4.8,0-7.751-3.7-7.751-8.4,0-4.65,2.95-8.35,7.751-8.35C187.768,1104.35,190.719,1108.05,190.719,1112.7Zm40.449-2.1c0-5.7-1.75-10.15-8.5-10.15a8.023,8.023,0,0,0-7.25,4.2h-0.15l0.05-3.75h-4.8v23.75h4.8V1112.7c0-4.55,1.65-8.3,6.1-8.3,4.251,0,4.951,3,4.951,7v13.25h4.8V1110.6Zm29.95,2.25c0-7.35-5.5-12.4-12.552-12.4-7.1,0-12.6,5.05-12.6,12.4,0,7.4,5.5,12.35,12.6,12.35C255.617,1125.2,261.118,1120.25,261.118,1112.85Zm-4.851-.15c0,4.7-2.95,8.4-7.7,8.4-4.8,0-7.75-3.7-7.75-8.4,0-4.65,2.95-8.35,7.75-8.35C253.317,1104.35,256.267,1108.05,256.267,1112.7Zm21.1,7.85a5.793,5.793,0,0,1-2.45.55,2.487,2.487,0,0,1-2.45-1.2c-0.55-1-.6-2.35-0.6-4.35V1104.8h5.7v-3.85h-5.7v-7.1h-4.8v7.1h-3.5v3.85h3.5v10.85c0,3.75.2,5.6,1.2,7.1a5.579,5.579,0,0,0,5.051,2.45,12.034,12.034,0,0,0,4.35-.8Zm30.25-2.85a5.866,5.866,0,0,0-1.9-4.4,9.083,9.083,0,0,0-2.75-1.7c-1-.4-1.9-0.7-3.2-1.15-2.35-.75-4.651-1.6-4.651-3.55s1.5-2.95,3.8-2.95a8.71,8.71,0,0,1,6,2.55l2-2.95c-1.5-1.6-3.9-3.1-8.1-3.1s-8,2.4-8,6.8a6.124,6.124,0,0,0,3.75,5.7,17.789,17.789,0,0,0,3.251,1.25c1.6,0.55,5.35,1.35,5.35,3.95s-2.35,3.4-4.55,3.4a9.75,9.75,0,0,1-7-3.4l-2.3,2.8a11.375,11.375,0,0,0,9.251,4.25,10.13,10.13,0,0,0,6.6-2.1A6.757,6.757,0,0,0,307.616,1117.7Zm15.948,2.85a5.793,5.793,0,0,1-2.45.55,2.487,2.487,0,0,1-2.45-1.2c-0.55-1-.6-2.35-0.6-4.35V1104.8h5.7v-3.85h-5.7v-7.1h-4.8v7.1h-3.5v3.85h3.5v10.85c0,3.75.2,5.6,1.2,7.1a5.576,5.576,0,0,0,5.05,2.45,12.034,12.034,0,0,0,4.35-.8Zm22.751-9.7c0-4.05-.95-6.05-2.551-7.7-1.6-1.6-3.9-2.7-7.85-2.7a18.291,18.291,0,0,0-8.9,2.4l1.45,3.2a14.586,14.586,0,0,1,7.151-2.05c3.45,0,5.9,1.8,5.9,5.4v0.95l-6.35.25c-5.5.25-9.3,2.6-9.3,7.25,0,4.6,3.8,7.35,8.2,7.35a9.8,9.8,0,0,0,7.551-3.55l0.05,3h4.651v-13.8Zm-4.751,7.5a7.457,7.457,0,0,1-6.05,3.45c-3.151,0-4.9-1.85-4.9-4.1s1.55-3.9,5.4-4.1l5.55-.35v5.1Zm29.1-.25a9.876,9.876,0,0,1-7.2,3c-4.6,0-7.75-3.45-7.75-8.45s3.5-8.2,7.7-8.2a9.369,9.369,0,0,1,7.1,2.9l1.7-3.5c-0.25-.3-2.85-3.4-9.2-3.4a11.986,11.986,0,0,0-12.151,12.35c0,7.6,5.6,12.4,12,12.4,6.351,0,8.8-2.9,9.5-3.6Zm16.549-8.25,9.3-8.95h-5.6l-9.7,9.5v-20.25h-4.75v34.5h4.75v-8.9l2.75-2.6,8.151,11.5h5.6ZM118.47,1226.4a7.526,7.526,0,1,0-7.5,7.55A7.665,7.665,0,0,0,118.47,1226.4Zm43.35,8.45c0-4.55-3-7.45-7.651-8.4v-0.1a7.861,7.861,0,0,0,5.25-7.55,7.675,7.675,0,0,0-3.7-7c-2.15-1.4-4.95-1.65-8.2-1.65h-9.3v34.5h11.2c3.8,0,6.551-.55,8.7-2.25A9,9,0,0,0,161.82,1234.85Zm-7.251-15.5a5.141,5.141,0,0,1-2.3,4.55c-1.15.85-2.751,1.05-5.151,1.05h-4.05V1214h4.45a8.885,8.885,0,0,1,4.751.95A4.6,4.6,0,0,1,154.569,1219.35Zm2.25,15.3a5.353,5.353,0,0,1-2.5,4.85c-1.7,1.15-3.85,1.2-6.051,1.2h-5.2v-12.05h5.2c2.2,0,4.351.1,6.051,1.25A5.19,5.19,0,0,1,156.819,1234.65Zm31.95-2.85c0-6.65-4.651-11.35-11.251-11.35s-12.051,4.8-12.051,12.3c0,7.55,4.85,12.45,11.9,12.45,7.1,0,10.151-3.5,10.451-3.75l-2-2.75a13.143,13.143,0,0,1-7.851,2.75c-4.4,0-7.4-2.85-7.651-7.55h18.3A20.7,20.7,0,0,0,188.769,1231.8Zm-18.4-1.1a6.988,6.988,0,0,1,7-6.8,6.863,6.863,0,0,1,6.85,6.8H170.367Zm51.551,0.15c0-4.05-.95-6.05-2.551-7.7-1.6-1.6-3.9-2.7-7.85-2.7a18.291,18.291,0,0,0-8.9,2.4l1.45,3.2a14.586,14.586,0,0,1,7.151-2.05c3.45,0,5.9,1.8,5.9,5.4v0.95l-6.35.25c-5.5.25-9.3,2.6-9.3,7.25,0,4.6,3.8,7.35,8.2,7.35a9.8,9.8,0,0,0,7.551-3.55l0.05,3h4.651v-13.8Zm-4.751,7.5a7.457,7.457,0,0,1-6.05,3.45c-3.151,0-4.9-1.85-4.9-4.1s1.55-3.9,5.4-4.1l5.55-.35v5.1Zm40.3-17.45-5.5,17.95-6.251-18h-3.85l-6.251,18-5.5-17.95h-4.85l7.851,23.75h4.4l6.3-17.75,6.25,17.75h4.4l7.851-23.75h-4.851Zm27.1,9.95c0-4.05-.95-6.05-2.55-7.7-1.6-1.6-3.9-2.7-7.851-2.7a18.3,18.3,0,0,0-8.9,2.4l1.451,3.2a14.585,14.585,0,0,1,7.15-2.05c3.451,0,5.9,1.8,5.9,5.4v0.95l-6.351.25c-5.5.25-9.3,2.6-9.3,7.25,0,4.6,3.8,7.35,8.2,7.35a9.8,9.8,0,0,0,7.551-3.55l0.05,3h4.65v-13.8Zm-4.75,7.5a7.457,7.457,0,0,1-6.051,3.45c-3.15,0-4.9-1.85-4.9-4.1s1.55-3.9,5.4-4.1l5.551-.35v5.1Zm24.149-17.5a6.675,6.675,0,0,0-2.5-.4,6.2,6.2,0,0,0-5.851,4.1h-0.15l0.05-3.65h-4.8v23.75h4.8V1232.8a10.524,10.524,0,0,1,1.451-6,4.975,4.975,0,0,1,3.9-2,6.287,6.287,0,0,1,2.6.5h0.2Zm25.2,10.95c0-6.65-4.651-11.35-11.252-11.35s-12.051,4.8-12.051,12.3c0,7.55,4.851,12.45,11.9,12.45,7.1,0,10.151-3.5,10.451-3.75l-2-2.75a13.139,13.139,0,0,1-7.85,2.75c-4.4,0-7.4-2.85-7.651-7.55h18.3A20.7,20.7,0,0,0,329.166,1231.8Zm-18.4-1.1a6.988,6.988,0,0,1,7-6.8,6.863,6.863,0,0,1,6.851,6.8H310.764Zm56.651,2.15c0-7.35-5.5-12.4-12.551-12.4-7.1,0-12.6,5.05-12.6,12.4,0,7.4,5.5,12.35,12.6,12.35C361.914,1245.2,367.415,1240.25,367.415,1232.85Zm-4.851-.15c0,4.7-2.95,8.4-7.7,8.4-4.8,0-7.751-3.7-7.751-8.4,0-4.65,2.95-8.35,7.751-8.35C359.614,1224.35,362.564,1228.05,362.564,1232.7Zm22.15-22.55a11.914,11.914,0,0,0-4.1-.55,7.192,7.192,0,0,0-5.7,2.6c-1,1.25-1.6,3.25-1.6,6.35v2.4h-3.4v3.85h3.4v19.85h4.751V1224.8h5.65v-3.85h-5.65v-2.65c0-2.7.5-5.05,3.65-5.05a9.821,9.821,0,0,1,2.7.45Zm34.349,0h-4.75v14.45h-0.1a9.6,9.6,0,0,0-8.3-4.15c-6.951,0-11.451,5.3-11.451,12.3,0,7.05,4.5,12.45,11.551,12.45a9.664,9.664,0,0,0,8.351-4.35h0.1v3.8h4.6v-34.5Zm-4.6,22.55c0,4.75-2.8,8.4-7.551,8.4s-7.551-3.65-7.551-8.4,2.8-8.35,7.551-8.35S414.463,1227.95,414.463,1232.7Zm35,0.15c0-7.35-5.5-12.4-12.552-12.4-7.1,0-12.6,5.05-12.6,12.4,0,7.4,5.5,12.35,12.6,12.35C443.962,1245.2,449.463,1240.25,449.463,1232.85Zm-4.851-.15c0,4.7-2.95,8.4-7.7,8.4-4.8,0-7.75-3.7-7.75-8.4,0-4.65,2.95-8.35,7.75-8.35C441.662,1224.35,444.612,1228.05,444.612,1232.7Zm33.4,0.15c0-7.35-5.5-12.4-12.551-12.4-7.1,0-12.6,5.05-12.6,12.4,0,7.4,5.5,12.35,12.6,12.35C472.512,1245.2,478.012,1240.25,478.012,1232.85Zm-4.85-.15c0,4.7-2.95,8.4-7.7,8.4-4.8,0-7.75-3.7-7.75-8.4,0-4.65,2.95-8.35,7.75-8.35C470.212,1224.35,473.162,1228.05,473.162,1232.7Zm23.1-11.85a6.675,6.675,0,0,0-2.5-.4,6.2,6.2,0,0,0-5.85,4.1h-0.15l0.05-3.65h-4.8v23.75h4.8V1232.8a10.527,10.527,0,0,1,1.45-6,4.975,4.975,0,0,1,3.9-2,6.287,6.287,0,0,1,2.6.5h0.2Zm19.5,16.85a5.869,5.869,0,0,0-1.9-4.4,9.083,9.083,0,0,0-2.75-1.7c-1-.4-1.9-0.7-3.2-1.15-2.35-.75-4.65-1.6-4.65-3.55s1.5-2.95,3.8-2.95a8.71,8.71,0,0,1,6,2.55l2-2.95c-1.5-1.6-3.9-3.1-8.1-3.1s-8,2.4-8,6.8a6.124,6.124,0,0,0,3.75,5.7,17.747,17.747,0,0,0,3.25,1.25c1.6,0.55,5.351,1.35,5.351,3.95s-2.35,3.4-4.551,3.4a9.748,9.748,0,0,1-7-3.4l-2.3,2.8a11.377,11.377,0,0,0,9.251,4.25,10.131,10.131,0,0,0,6.6-2.1A6.759,6.759,0,0,0,515.761,1237.7ZM118.47,1346.4a7.526,7.526,0,1,0-7.5,7.55A7.665,7.665,0,0,0,118.47,1346.4Zm38.9-16.25H138.217v34.5h4.851v-14.9h13.451v-4.05H143.068v-11.5h14.3v-4.05Zm25.25,10.7h-4.8v12.75c0,4-1.7,7.6-5.9,7.6-4.251,0-4.951-3.05-4.951-6.3v-14.05h-4.75v14.25c0,3.4.55,5.75,1.75,7.35,1.25,1.6,3.2,2.75,6.6,2.75a8.279,8.279,0,0,0,7.35-3.95l0.05,3.4h4.651v-23.8Zm11.6-10.7h-4.751v34.5h4.751v-34.5Zm11.85,0h-4.751v34.5h4.751v-34.5Zm22.651,10.7-7,18.5-7.05-18.45-5-.05,9.5,23.3-1.15,3.15c-1.05,2.9-2.1,2.8-3.1,2.8a7.535,7.535,0,0,1-2.5-.55l-0.95,3.9a11.763,11.763,0,0,0,4.5.85c2.65,0,4.6-1.4,6.25-5.5l11.451-27.9Zm39.8,10.95c0-6.65-4.65-11.35-11.251-11.35s-12.051,4.8-12.051,12.3c0,7.55,4.851,12.45,11.9,12.45,7.1,0,10.151-3.5,10.451-3.75l-2-2.75a13.14,13.14,0,0,1-7.851,2.75c-4.4,0-7.4-2.85-7.65-7.55h18.3A20.7,20.7,0,0,0,268.517,1351.8Zm-18.4-1.1a6.988,6.988,0,0,1,7-6.8,6.863,6.863,0,0,1,6.851,6.8H250.116Zm35.05,1.45,8.6-11.25h-5.351l-6.05,8.55-6.051-8.55h-5.3l8.55,11.25-9.651,12.5h5.4l7.051-9.65,7.05,9.65h5.4Zm24.149,8.4a5.793,5.793,0,0,1-2.45.55,2.487,2.487,0,0,1-2.45-1.2c-0.55-1-.6-2.35-0.6-4.35V1344.8h5.7v-3.85h-5.7v-7.1h-4.8v7.1h-3.5v3.85h3.5v10.85c0,3.75.2,5.6,1.2,7.1a5.578,5.578,0,0,0,5.051,2.45,12.034,12.034,0,0,0,4.35-.8Zm26-8.75c0-6.65-4.651-11.35-11.251-11.35s-12.052,4.8-12.052,12.3c0,7.55,4.851,12.45,11.9,12.45,7.1,0,10.151-3.5,10.451-3.75l-2-2.75a13.139,13.139,0,0,1-7.85,2.75c-4.4,0-7.4-2.85-7.651-7.55h18.3A20.7,20.7,0,0,0,335.316,1351.8Zm-18.4-1.1a6.988,6.988,0,0,1,7-6.8,6.863,6.863,0,0,1,6.851,6.8H316.914Zm43.8-.1c0-5.7-1.75-10.15-8.5-10.15a8.023,8.023,0,0,0-7.25,4.2h-0.15l0.05-3.75h-4.8v23.75h4.8V1352.7c0-4.55,1.65-8.3,6.1-8.3,4.251,0,4.951,3,4.951,7v13.25h4.8V1350.6Zm29.4-20.45h-4.75v14.45h-0.1a9.6,9.6,0,0,0-8.3-4.15c-6.95,0-11.451,5.3-11.451,12.3,0,7.05,4.5,12.45,11.551,12.45a9.663,9.663,0,0,0,8.351-4.35h0.1v3.8h4.6v-34.5Zm-4.6,22.55c0,4.75-2.8,8.4-7.551,8.4s-7.55-3.65-7.55-8.4,2.8-8.35,7.55-8.35S385.514,1347.95,385.514,1352.7Zm26.4-22.55h-4.75v34.5h4.75v-34.5Zm30.4,22.7c0-7.35-5.5-12.4-12.551-12.4-7.1,0-12.6,5.05-12.6,12.4,0,7.4,5.5,12.35,12.6,12.35C436.813,1365.2,442.313,1360.25,442.313,1352.85Zm-4.85-.15c0,4.7-2.951,8.4-7.7,8.4-4.8,0-7.751-3.7-7.751-8.4,0-4.65,2.95-8.35,7.751-8.35C434.512,1344.35,437.463,1348.05,437.463,1352.7Zm28.049,5.4a9.875,9.875,0,0,1-7.2,3c-4.6,0-7.751-3.45-7.751-8.45s3.5-8.2,7.7-8.2a9.368,9.368,0,0,1,7.1,2.9l1.7-3.5c-0.25-.3-2.851-3.4-9.2-3.4a11.985,11.985,0,0,0-12.151,12.35c0,7.6,5.6,12.4,12,12.4,6.35,0,8.8-2.9,9.5-3.6Zm16.549-8.25,9.3-8.95h-5.6l-9.7,9.5v-20.25H471.31v34.5h4.751v-8.9l2.75-2.6,8.151,11.5h5.6Zm19.05-16.75a3.131,3.131,0,1,0-3.1,2.95A2.932,2.932,0,0,0,501.111,1333.1Zm-0.7,7.8h-4.8v23.75h4.8V1340.9Zm27.451,9.7c0-5.7-1.75-10.15-8.5-10.15a8.024,8.024,0,0,0-7.251,4.2h-0.15l0.05-3.75h-4.8v23.75h4.8V1352.7c0-4.55,1.65-8.3,6.1-8.3,4.25,0,4.95,3,4.95,7v13.25h4.8V1350.6Zm29.4-9.7h-4.75l0.05,3.75h-0.15a9.494,9.494,0,0,0-8.3-4.2c-6.1,0-11.451,4.4-11.451,11.95s5.35,11.95,11.451,11.95a9.526,9.526,0,0,0,8.3-4.25h0.1v1.2c0,3.25-.85,5.5-1.8,6.65-0.951,1.2-2.951,2.6-6.5,2.6a15.042,15.042,0,0,1-8.5-3l-2.25,3.35a18.244,18.244,0,0,0,10.6,3.55c5.9,0,8.851-2.4,10.6-4.55,1.75-2.1,2.6-5,2.6-10.25V1340.9Zm-4.6,11.5c0,4.5-2.651,8.05-7.551,8.05-4.85,0-7.551-3.55-7.551-8.05s2.7-8.1,7.551-8.1C550.01,1344.3,552.661,1347.9,552.661,1352.4Zm44.2-22.25h-4.751v14.45h-0.1a9.6,9.6,0,0,0-8.3-4.15c-6.951,0-11.451,5.3-11.451,12.3,0,7.05,4.5,12.45,11.551,12.45a9.662,9.662,0,0,0,8.35-4.35h0.1v3.8h4.6v-34.5Zm-4.6,22.55c0,4.75-2.8,8.4-7.551,8.4s-7.551-3.65-7.551-8.4,2.8-8.35,7.551-8.35S592.26,1347.95,592.26,1352.7Zm33.149-.9c0-6.65-4.65-11.35-11.251-11.35s-12.051,4.8-12.051,12.3c0,7.55,4.85,12.45,11.9,12.45,7.1,0,10.151-3.5,10.451-3.75l-2-2.75a13.143,13.143,0,0,1-7.851,2.75c-4.4,0-7.4-2.85-7.651-7.55h18.3A20.7,20.7,0,0,0,625.409,1351.8Zm-18.4-1.1a6.988,6.988,0,0,1,7-6.8,6.864,6.864,0,0,1,6.851,6.8H607.007Zm38.951-9.8-7,17.9-7.05-17.9h-5l9.9,23.75h4.2l9.9-23.75h-4.95Zm14-7.8a3.131,3.131,0,1,0-3.1,2.95A2.932,2.932,0,0,0,659.957,1333.1Zm-0.7,7.8h-4.8v23.75h4.8V1340.9Zm25,17.2a9.875,9.875,0,0,1-7.2,3c-4.6,0-7.751-3.45-7.751-8.45s3.5-8.2,7.7-8.2a9.368,9.368,0,0,1,7.1,2.9l1.7-3.5c-0.25-.3-2.851-3.4-9.2-3.4a11.985,11.985,0,0,0-12.151,12.35c0,7.6,5.6,12.4,12,12.4,6.35,0,8.8-2.9,9.5-3.6Zm27.25-6.3c0-6.65-4.65-11.35-11.251-11.35s-12.051,4.8-12.051,12.3c0,7.55,4.851,12.45,11.9,12.45,7.1,0,10.151-3.5,10.451-3.75l-2-2.75a13.14,13.14,0,0,1-7.851,2.75c-4.4,0-7.4-2.85-7.65-7.55h18.3A20.7,20.7,0,0,0,711.507,1351.8Zm-18.4-1.1a6.988,6.988,0,0,1,7-6.8,6.863,6.863,0,0,1,6.851,6.8H693.106Zm39.15,7a5.869,5.869,0,0,0-1.9-4.4,9.083,9.083,0,0,0-2.75-1.7c-1-.4-1.9-0.7-3.2-1.15-2.351-.75-4.651-1.6-4.651-3.55s1.5-2.95,3.8-2.95a8.71,8.71,0,0,1,6,2.55l2-2.95c-1.5-1.6-3.9-3.1-8.1-3.1s-8,2.4-8,6.8a6.124,6.124,0,0,0,3.75,5.7,17.747,17.747,0,0,0,3.25,1.25c1.6,0.55,5.351,1.35,5.351,3.95s-2.35,3.4-4.551,3.4a9.748,9.748,0,0,1-7-3.4l-2.3,2.8a11.374,11.374,0,0,0,9.25,4.25,10.131,10.131,0,0,0,6.6-2.1A6.759,6.759,0,0,0,732.256,1357.7Z"/>
  <path id="extend_at_least_3_ft._above_" data-name="extend at least 3 ft. above " class="cls-4" d="M157.959,690.073c0-6.651-4.65-11.351-11.25-11.351s-12.051,4.8-12.051,12.3c0,7.55,4.85,12.45,11.9,12.45,7.1,0,10.15-3.5,10.45-3.75l-2-2.75a13.139,13.139,0,0,1-7.85,2.75c-4.4,0-7.4-2.85-7.651-7.55h18.3A20.7,20.7,0,0,0,157.959,690.073Zm-18.4-1.1a6.988,6.988,0,0,1,7-6.8,6.863,6.863,0,0,1,6.85,6.8H139.558Zm35.05,1.45,8.6-11.251h-5.35l-6.051,8.55-6.05-8.55h-5.3l8.551,11.251-9.651,12.5h5.4l7.05-9.65,7.051,9.65h5.4Zm24.15,8.4a5.793,5.793,0,0,1-2.45.55,2.487,2.487,0,0,1-2.451-1.2c-0.55-1-.6-2.35-0.6-4.35V683.072h5.7v-3.85h-5.7v-7.1h-4.8v7.1h-3.5v3.85h3.5v10.851c0,3.75.2,5.6,1.2,7.1a5.576,5.576,0,0,0,5.05,2.45,12.036,12.036,0,0,0,4.351-.8Zm26-8.75c0-6.651-4.651-11.351-11.251-11.351s-12.051,4.8-12.051,12.3c0,7.55,4.851,12.45,11.9,12.45,7.1,0,10.151-3.5,10.451-3.75l-2-2.75a13.143,13.143,0,0,1-7.851,2.75c-4.4,0-7.4-2.85-7.65-7.55h18.3A20.7,20.7,0,0,0,224.758,690.073Zm-18.4-1.1a6.988,6.988,0,0,1,7-6.8,6.863,6.863,0,0,1,6.85,6.8h-13.85Zm43.8-.1c0-5.7-1.75-10.15-8.5-10.15a8.024,8.024,0,0,0-7.251,4.2h-0.15l0.05-3.75h-4.8v23.751h4.8v-11.95c0-4.551,1.65-8.3,6.1-8.3,4.25,0,4.95,3,4.95,7v13.25h4.8V688.872Zm29.4-20.451h-4.751v14.451h-0.1a9.6,9.6,0,0,0-8.3-4.15c-6.951,0-11.451,5.3-11.451,12.3,0,7.05,4.5,12.45,11.551,12.45a9.662,9.662,0,0,0,8.35-4.35h0.1v3.8h4.6v-34.5Zm-4.6,22.552c0,4.75-2.8,8.4-7.55,8.4s-7.551-3.65-7.551-8.4,2.8-8.351,7.551-8.351S274.956,686.222,274.956,690.973Zm39.849-1.85c0-4.051-.95-6.051-2.55-7.7-1.6-1.6-3.9-2.7-7.85-2.7a18.291,18.291,0,0,0-8.9,2.4l1.45,3.2a14.585,14.585,0,0,1,7.15-2.05c3.451,0,5.9,1.8,5.9,5.4v0.95l-6.351.25c-5.5.251-9.3,2.6-9.3,7.251,0,4.6,3.8,7.35,8.2,7.35a9.8,9.8,0,0,0,7.551-3.55l0.05,3h4.65v-13.8Zm-4.75,7.5a7.457,7.457,0,0,1-6.051,3.45c-3.15,0-4.9-1.85-4.9-4.1s1.55-3.9,5.4-4.1l5.55-.35v5.1Zm22.149,2.2a5.793,5.793,0,0,1-2.45.55,2.487,2.487,0,0,1-2.45-1.2c-0.55-1-.6-2.35-0.6-4.35V683.072h5.7v-3.85h-5.7v-7.1h-4.8v7.1h-3.5v3.85h3.5v10.851c0,3.75.2,5.6,1.2,7.1a5.576,5.576,0,0,0,5.05,2.45,12.034,12.034,0,0,0,4.35-.8Zm19.249-30.4H346.7v34.5h4.751v-34.5ZM380,690.073c0-6.651-4.651-11.351-11.251-11.351s-12.051,4.8-12.051,12.3c0,7.55,4.851,12.45,11.9,12.45,7.1,0,10.151-3.5,10.451-3.75l-2-2.75a13.143,13.143,0,0,1-7.851,2.75c-4.4,0-7.4-2.85-7.65-7.55h18.3A20.7,20.7,0,0,0,380,690.073Zm-18.4-1.1a6.988,6.988,0,0,1,7-6.8,6.863,6.863,0,0,1,6.85,6.8H361.6Zm41.6,0.15c0-4.051-.95-6.051-2.55-7.7-1.6-1.6-3.9-2.7-7.851-2.7a18.29,18.29,0,0,0-8.9,2.4l1.45,3.2a14.585,14.585,0,0,1,7.15-2.05c3.451,0,5.9,1.8,5.9,5.4v0.95l-6.351.25c-5.5.251-9.3,2.6-9.3,7.251,0,4.6,3.8,7.35,8.2,7.35a9.8,9.8,0,0,0,7.551-3.55l0.05,3h4.65v-13.8Zm-4.75,7.5a7.457,7.457,0,0,1-6.051,3.45c-3.15,0-4.9-1.85-4.9-4.1s1.55-3.9,5.4-4.1l5.551-.35v5.1Zm26.9-.65a5.869,5.869,0,0,0-1.9-4.4,9.083,9.083,0,0,0-2.75-1.7c-1-.4-1.9-0.7-3.2-1.151-2.35-.75-4.65-1.6-4.65-3.55s1.5-2.95,3.8-2.95a8.71,8.71,0,0,1,6,2.55l2-2.95c-1.5-1.6-3.9-3.1-8.1-3.1s-8,2.4-8,6.8a6.126,6.126,0,0,0,3.751,5.7,17.747,17.747,0,0,0,3.25,1.25c1.6,0.55,5.35,1.35,5.35,3.95s-2.35,3.4-4.55,3.4a9.752,9.752,0,0,1-7-3.4l-2.3,2.8a11.376,11.376,0,0,0,9.251,4.25,10.13,10.13,0,0,0,6.6-2.1A6.759,6.759,0,0,0,425.352,695.973Zm15.949,2.85a5.793,5.793,0,0,1-2.45.55,2.487,2.487,0,0,1-2.45-1.2c-0.55-1-.6-2.35-0.6-4.35V683.072h5.7v-3.85h-5.7v-7.1H431v7.1h-3.5v3.85H431v10.851c0,3.75.2,5.6,1.2,7.1a5.576,5.576,0,0,0,5.05,2.45,12.034,12.034,0,0,0,4.35-.8Zm37.2-5.55a8.357,8.357,0,0,0-6.65-8.451v-0.15a7.75,7.75,0,0,0,5.6-7.8c0-5.651-5.15-8.951-10.8-8.951a13.446,13.446,0,0,0-10.9,4.9l2.25,2.9c2.3-2.25,4.75-3.951,8.25-3.951s6.5,1.951,6.5,5.6c0,3.6-2.55,5.6-6.2,5.6H464v3.85h2.55c3.951,0,7.151,2.1,7.151,6.251s-3.25,6.4-7.751,6.4-7.85-4.15-8.4-4.85l-2.7,2.95a14.21,14.21,0,0,0,11.2,5.85C473.051,703.423,478.5,699.573,478.5,693.273Zm41.25,5.55a5.793,5.793,0,0,1-2.45.55,2.487,2.487,0,0,1-2.451-1.2c-0.55-1-.6-2.35-0.6-4.35V683.072h5.7v-3.85h-5.7v-7.1h-4.8v7.1h-9v-2.65c0-2.7.5-5.051,3.651-5.051a9.809,9.809,0,0,1,2.7.45l0.3-3.55a11.9,11.9,0,0,0-4.1-.55,7.193,7.193,0,0,0-5.7,2.6c-1,1.25-1.6,3.251-1.6,6.351v2.4h-3.4v3.85h3.4v19.851h4.75V683.072h9v10.851c0,3.75.2,5.6,1.2,7.1a5.576,5.576,0,0,0,5.05,2.45,12.036,12.036,0,0,0,4.351-.8Zm11.848,1.5a3.333,3.333,0,1,0-3.3,3.1A3.059,3.059,0,0,0,531.6,700.323Zm35.9-11.2c0-4.051-.95-6.051-2.55-7.7-1.6-1.6-3.9-2.7-7.851-2.7a18.29,18.29,0,0,0-8.9,2.4l1.45,3.2a14.585,14.585,0,0,1,7.15-2.05c3.451,0,5.9,1.8,5.9,5.4v0.95l-6.351.25c-5.5.251-9.3,2.6-9.3,7.251,0,4.6,3.8,7.35,8.2,7.35a9.8,9.8,0,0,0,7.551-3.55l0.05,3h4.65v-13.8Zm-4.75,7.5a7.457,7.457,0,0,1-6.051,3.45c-3.15,0-4.9-1.85-4.9-4.1s1.55-3.9,5.4-4.1l5.551-.35v5.1Zm35.75-5.6c0-7-4.5-12.3-11.451-12.3a9.676,9.676,0,0,0-8.3,4.15h-0.1V668.421H573.9v34.5h4.6v-3.75h0.1a9.618,9.618,0,0,0,8.35,4.3C594,703.473,598.5,698.073,598.5,691.023Zm-4.9-.05c0,4.75-2.8,8.4-7.551,8.4s-7.6-3.65-7.6-8.4,2.85-8.351,7.6-8.351S593.6,686.222,593.6,690.973Zm33.449,0.15c0-7.351-5.5-12.4-12.551-12.4-7.1,0-12.6,5.05-12.6,12.4,0,7.4,5.5,12.35,12.6,12.35C621.548,703.473,627.048,698.523,627.048,691.123Zm-4.85-.15c0,4.7-2.95,8.4-7.7,8.4-4.8,0-7.75-3.7-7.75-8.4,0-4.651,2.95-8.351,7.75-8.351C619.248,682.622,622.2,686.322,622.2,690.973Zm25.65-11.8-7,17.9-7.05-17.9h-5l9.9,23.751h4.2l9.9-23.751h-4.95Zm30,10.9c0-6.651-4.651-11.351-11.251-11.351s-12.051,4.8-12.051,12.3c0,7.55,4.851,12.45,11.9,12.45,7.1,0,10.151-3.5,10.451-3.75l-2-2.75a13.139,13.139,0,0,1-7.85,2.75c-4.4,0-7.4-2.85-7.65-7.55h18.3A20.7,20.7,0,0,0,677.848,690.073Zm-18.4-1.1a6.988,6.988,0,0,1,7-6.8,6.863,6.863,0,0,1,6.85,6.8h-13.85Z"/>
  <path id="the_support_point" data-name="the support point" class="cls-4" d="M148.509,757.823a5.793,5.793,0,0,1-2.45.55,2.487,2.487,0,0,1-2.451-1.2c-0.55-1-.6-2.35-0.6-4.35V742.072h5.7v-3.85h-5.7v-7.1h-4.8v7.1h-3.5v3.85h3.5v10.851c0,3.75.2,5.6,1.2,7.1a5.576,5.576,0,0,0,5.05,2.45,12.036,12.036,0,0,0,4.351-.8Zm25.2-10.051c0-5.65-1.65-10.05-8.5-10.05a8.1,8.1,0,0,0-7.3,4.2h-0.1v-14.5h-4.75v34.5h4.75v-11.75c0-4.751,1.85-8.5,6.2-8.5s4.9,3.4,4.9,6.8v13.45h4.8V747.772Zm28.2,1.3c0-6.651-4.65-11.351-11.25-11.351s-12.051,4.8-12.051,12.3c0,7.55,4.85,12.45,11.9,12.45,7.1,0,10.15-3.5,10.45-3.75l-2-2.75a13.139,13.139,0,0,1-7.85,2.75c-4.4,0-7.4-2.85-7.651-7.55h18.3A20.7,20.7,0,0,0,201.908,749.073Zm-18.4-1.1a6.988,6.988,0,0,1,7-6.8,6.863,6.863,0,0,1,6.85,6.8H183.507Zm49.1,7a5.869,5.869,0,0,0-1.9-4.4,9.083,9.083,0,0,0-2.75-1.7c-1-.4-1.9-0.7-3.2-1.151-2.351-.75-4.651-1.6-4.651-3.55s1.5-2.95,3.8-2.95a8.71,8.71,0,0,1,6,2.55l2-2.95c-1.5-1.6-3.9-3.1-8.1-3.1s-8,2.4-8,6.8a6.125,6.125,0,0,0,3.75,5.7,17.747,17.747,0,0,0,3.25,1.25c1.6,0.55,5.351,1.35,5.351,3.95s-2.35,3.4-4.551,3.4a9.748,9.748,0,0,1-7-3.4l-2.3,2.8a11.374,11.374,0,0,0,9.25,4.25,10.131,10.131,0,0,0,6.6-2.1A6.759,6.759,0,0,0,232.607,754.973Zm24.9-16.851h-4.8v12.751c0,4-1.7,7.6-5.9,7.6-4.25,0-4.95-3.05-4.95-6.3V738.122h-4.751v14.251c0,3.4.55,5.75,1.75,7.35,1.251,1.6,3.2,2.75,6.6,2.75a8.279,8.279,0,0,0,7.35-3.95l0.05,3.4h4.651v-23.8Zm31.4,11.9c0-7.051-4.451-12.3-11.451-12.3a10.071,10.071,0,0,0-8.451,4.2h-0.1v-3.75h-4.6v33.052h4.8V758.173l0.05,0.05a9.23,9.23,0,0,0,8.2,4.25C284.406,762.473,288.907,757.073,288.907,750.023Zm-4.9-.05c0,4.75-2.8,8.4-7.55,8.4s-7.551-3.65-7.551-8.4,2.8-8.351,7.551-8.351S284.006,745.222,284.006,749.973Zm34.7,0.05c0-7.051-4.45-12.3-11.45-12.3a10.069,10.069,0,0,0-8.451,4.2h-0.1v-3.75h-4.6v33.052h4.8V758.173l0.05,0.05a9.227,9.227,0,0,0,8.2,4.25C314.206,762.473,318.706,757.073,318.706,750.023Zm-4.9-.05c0,4.75-2.8,8.4-7.55,8.4s-7.551-3.65-7.551-8.4,2.8-8.351,7.551-8.351S313.806,745.222,313.806,749.973Zm33.45,0.15c0-7.351-5.5-12.4-12.551-12.4-7.1,0-12.6,5.05-12.6,12.4,0,7.4,5.5,12.35,12.6,12.35C341.756,762.473,347.256,757.523,347.256,750.123Zm-4.85-.15c0,4.7-2.951,8.4-7.7,8.4-4.8,0-7.75-3.7-7.75-8.4,0-4.651,2.95-8.351,7.75-8.351C339.455,741.622,342.406,745.322,342.406,749.973Zm23.1-11.851a6.675,6.675,0,0,0-2.5-.4,6.2,6.2,0,0,0-5.85,4.1h-0.15l0.05-3.65h-4.8v23.751h4.8v-11.85a10.528,10.528,0,0,1,1.45-6,4.975,4.975,0,0,1,3.9-2,6.287,6.287,0,0,1,2.6.5h0.2Zm14.75,19.7a5.8,5.8,0,0,1-2.451.55,2.487,2.487,0,0,1-2.45-1.2c-0.55-1-.6-2.35-0.6-4.35V742.072h5.7v-3.85h-5.7v-7.1h-4.8v7.1h-3.5v3.85h3.5v10.851c0,3.75.2,5.6,1.2,7.1a5.576,5.576,0,0,0,5.05,2.45,12.036,12.036,0,0,0,4.351-.8Zm39.049-7.8c0-7.051-4.45-12.3-11.45-12.3a10.07,10.07,0,0,0-8.451,4.2h-0.1v-3.75h-4.6v33.052h4.8V758.173l0.05,0.05a9.227,9.227,0,0,0,8.2,4.25C414.8,762.473,419.3,757.073,419.3,750.023Zm-4.9-.05c0,4.75-2.8,8.4-7.55,8.4s-7.551-3.65-7.551-8.4,2.8-8.351,7.551-8.351S414.4,745.222,414.4,749.973Zm33.45,0.15c0-7.351-5.5-12.4-12.551-12.4-7.1,0-12.6,5.05-12.6,12.4,0,7.4,5.5,12.35,12.6,12.35C442.354,762.473,447.854,757.523,447.854,750.123Zm-4.85-.15c0,4.7-2.95,8.4-7.7,8.4-4.8,0-7.75-3.7-7.75-8.4,0-4.651,2.95-8.351,7.75-8.351C440.054,741.622,443,745.322,443,749.973Zm15.549-19.6a3.131,3.131,0,1,0-3.1,2.951A2.932,2.932,0,0,0,458.553,730.371Zm-0.7,7.8h-4.8v23.751h4.8V738.172Zm27.45,9.7c0-5.7-1.75-10.15-8.5-10.15a8.024,8.024,0,0,0-7.251,4.2H469.4l0.05-3.75h-4.8v23.751h4.8v-11.95c0-4.551,1.651-8.3,6.1-8.3,4.25,0,4.95,3,4.95,7v13.25h4.8V747.872Zm17.649,9.951a5.793,5.793,0,0,1-2.45.55,2.487,2.487,0,0,1-2.45-1.2c-0.55-1-.6-2.35-0.6-4.35V742.072h5.7v-3.85h-5.7v-7.1h-4.8v7.1h-3.5v3.85h3.5v10.851c0,3.75.2,5.6,1.2,7.1a5.576,5.576,0,0,0,5.05,2.45,12.034,12.034,0,0,0,4.35-.8Z"/>
  <path id="Question" class="cls-4" d="M159.258,243.661H145.02v23.467H120.674V243.661H106.436v60.645h14.238V278.9H145.02v25.4h14.238V243.661Zm55.695,39.111c0-13.974-10.283-22.588-23.994-22.588s-24.082,8.614-24.082,22.588,10.371,22.5,24.082,22.5S214.953,296.747,214.953,282.772Zm-14.15-.263c0,6.416-3.692,11.25-9.844,11.25-6.24,0-9.844-4.834-9.844-11.25s3.6-11.25,9.844-11.25C197.111,271.259,200.8,276.093,200.8,282.509Zm74.244-21.534L267.4,288.661l-8.35-27.686H247.538l-8.35,27.686-7.647-27.686H217.3l14.238,43.331h13.272l8.525-26.544,8.438,26.544h13.271l14.239-43.331H275.047Zm77.569-17.314H307.088v11.25h15.645v49.395h14.238V254.911h15.645v-11.25Zm50.516,39.111c0-13.974-10.283-22.588-23.994-22.588s-24.083,8.614-24.083,22.588,10.372,22.5,24.083,22.5S403.132,296.747,403.132,282.772Zm-14.151-.263c0,6.416-3.691,11.25-9.843,11.25-6.241,0-9.844-4.834-9.844-11.25s3.6-11.25,9.844-11.25C385.29,271.259,388.981,276.093,388.981,282.509Zm80.126,3.339a15.868,15.868,0,0,0-4.746-11.689c-2.725-2.725-6.768-4.307-8.438-4.922-1.934-.791-6.416-2.373-9.053-3.428-2.724-1.054-6.152-2.461-6.152-6.152s3.34-5.449,7.91-5.449,10.02,2.636,13.535,6.152l6.065-9.932c-4.131-4.13-12.217-7.47-19.248-7.47s-12.569,1.933-16,4.834a17.079,17.079,0,0,0-6.328,13.271c0,5.713,2.11,9.229,4.746,11.69a23.684,23.684,0,0,0,7.207,4.394c2.022,0.879,6.592,2.461,9.229,3.428s7.119,2.549,7.119,6.68c0,4.043-3.515,6.24-8.086,6.24-4.658,0-11.426-3.076-15.82-7.647l-7.031,10.372c4.921,4.57,12.744,9.14,21.533,9.14,6.5,0,12.129-1.582,16.435-5.01A18.365,18.365,0,0,0,469.107,285.848Zm49.2-4.482c0-12.656-8.877-21.182-21.71-21.182s-23.379,8.174-23.379,22.5,9.756,22.588,23.116,22.588c13.447,0,19.16-5.976,20.566-7.031l-5.537-7.295a24.389,24.389,0,0,1-13.008,4.131c-5.713,0-10.459-2.813-11.074-9.053h30.85S518.3,283.475,518.3,281.366Zm-30.938-3.34a8.824,8.824,0,0,1,8.965-8.7,8.735,8.735,0,0,1,8.877,8.7H487.366Zm63.26-16.963h-9.58V249.286H526.9v11.777h-6.153V271.7H526.9v16.787c0,6.592.879,10.2,3.076,12.744s5.537,4.043,10.547,4.043a38.041,38.041,0,0,0,10.019-1.406l-0.7-10.986a13.1,13.1,0,0,1-4.219.791c-1.845,0-2.724-.352-3.339-1.055-0.7-.791-1.231-1.67-1.231-5.361V271.7h9.58V261.063Zm47.183-.088H583.746V284c0,5.713-2.285,9.668-7.295,9.668s-6.416-3.428-6.416-8.438V260.975H555.973v26.192c0,6.24,1.055,10.019,3.164,13.008,2.2,2.9,6.152,5.1,12.393,5.1s10.81-3.252,12.656-5.888l0.088,4.922h13.535V260.975Zm57.722,21.709c0-12.744-7.91-22.5-20.391-22.5-6.592,0-11.25,2.549-14.414,6.328H620.55l0.088-5.537H607.279v59.239h14.062V298.856c2.725,4.043,7.295,6.416,13.711,6.416C647.621,305.272,655.531,295.429,655.531,282.684Zm-14.326-.175c0,6.679-4.131,11.25-10.2,11.25-5.976,0-10.107-4.571-10.107-11.25s4.131-11.25,10.107-11.25C637.074,271.259,641.205,275.829,641.205,282.509ZM144.405,385.3c0-7.3-1.846-11.514-5.186-14.678-3.427-3.164-8.086-5.01-16.172-5.01A42.658,42.658,0,0,0,104.5,370l3.692,9.14a27.682,27.682,0,0,1,13.271-3.867c5.625,0,8.877,2.373,8.877,6.944v0.966l-10.9.44c-8,.351-16.875,3.6-16.875,13.271s8.086,13.8,15.732,13.8a16.158,16.158,0,0,0,12.393-5.537l0.264,4.571h13.447V385.3Zm-13.975,12.48a8.628,8.628,0,0,1-7.207,3.955c-3.867,0-6.592-2.021-6.592-5.361,0-3.252,2.549-5.1,6.856-5.273l6.943-.44v7.119Zm76,0.176H185.42V349.085H171.27V409.73h35.156V397.952ZM250.792,385.3c0-7.3-1.845-11.514-5.185-14.678-3.428-3.164-8.086-5.01-16.172-5.01A42.654,42.654,0,0,0,210.89,370l3.691,9.14a27.69,27.69,0,0,1,13.272-3.867c5.625,0,8.877,2.373,8.877,6.944v0.966l-10.9.44c-8,.351-16.875,3.6-16.875,13.271s8.086,13.8,15.733,13.8a16.155,16.155,0,0,0,12.392-5.537l0.264,4.571h13.447V385.3Zm-13.974,12.48a8.63,8.63,0,0,1-7.207,3.955c-3.868,0-6.592-2.021-6.592-5.361,0-3.252,2.549-5.1,6.855-5.273l6.944-.44v7.119Zm68.357-48.691H291.113v22.588c-1.407-2.11-5.8-6.065-13.711-6.065-12.569,0-20.479,9.756-20.479,22.5S264.833,410.7,277.4,410.7c5.8,0,10.986-2.2,14.238-6.591l0.264-.088-0.088,5.713h13.359V349.085Zm-13.623,38.848c0,6.679-4.043,11.25-10.107,11.25s-10.2-4.571-10.2-11.25,4.131-11.25,10.2-11.25S291.552,381.253,291.552,387.933Zm68.97-38.848H346.459v22.588c-1.406-2.11-5.8-6.065-13.711-6.065-12.568,0-20.478,9.756-20.478,22.5s7.91,22.588,20.478,22.588c5.8,0,10.987-2.2,14.239-6.591l0.263-.088-0.088,5.713h13.36V349.085ZM346.9,387.933c0,6.679-4.043,11.25-10.108,11.25s-10.195-4.571-10.195-11.25,4.131-11.25,10.195-11.25S346.9,381.253,346.9,387.933ZM412.7,386.79c0-12.656-8.877-21.182-21.709-21.182s-23.379,8.174-23.379,22.5,9.756,22.588,23.116,22.588c13.447,0,19.16-5.976,20.566-7.031l-5.537-7.3a24.389,24.389,0,0,1-13.008,4.131c-5.713,0-10.459-2.813-11.074-9.053h30.85S412.7,388.9,412.7,386.79Zm-30.937-3.34a8.824,8.824,0,0,1,8.965-8.7,8.736,8.736,0,0,1,8.877,8.7H381.767ZM448.455,366.4a10.115,10.115,0,0,0-4.395-.791c-4.658,0-8.261,2.2-10.722,6.944h-0.176l0.088-6.153H419.187V409.73H433.25V390.481c0-4.834,1.142-7.646,2.2-9.052a8.254,8.254,0,0,1,6.5-3.164,11.337,11.337,0,0,1,5.1,1.054h0.615Z"/>
</svg>
