<svg id="ignored-parent" xmlns="http://www.w3.org/2000/svg" width="858" height="1720" viewBox="0 0 858 1720">
  <defs>
    <style>
      .cls-1, .cls-4 {
        fill: #fff;
      }

      .cls-1 {
        stroke: #e4e4e4;
        stroke-width: 2px;
      }

      .cls-2 {
        fill: #f0f4fa;
      }

      .cls-2, .cls-3 {
        fill-rule: evenodd;
      }

      .cls-3 {
        fill: #dee6f3;
      }

      .cls-4 {
        stroke: #f1f3f5;
        stroke-width: 8px;
      }

      .cls-5 {
        font-size: 17.723px;
        fill: #cbd7e6;
        text-anchor: middle;
        font-family: Gibson;
      }
    </style>
  </defs>
  <g id="Device">
    <rect id="device-2" data-name="device" class="cls-1" x="3" y="4" width="853" height="1713" rx="130" ry="130"/>
    <path id="screen" class="cls-2" d="M704,1658H153c-65.535,0-93-51.14-93-105V157c0-57.9,40.96-93,94-93h55c14.438,0,17,9.733,17,21,0,20.3,12.76,39,49,39H588c33.542,0,46-19.374,46-40,0-14.868,6.691-20,17-20h57c76.335,0,92,64.558,92,88V1562C800,1620.33,759.737,1658,704,1658Z"/>
  </g>
  <g id="graphic">
    <path class="cls-3" d="M800,384.145l-8.745-7.179-20.677,6.218L800,407.519V429l-47.853-40.274-1.613.485-6.7,76.092,8.67,8.436L800,446.325v6.928l-43.027,24.836L800,519.951v63.518L359.034,124h34l1.5,1.46L394.58,124h6l-0.218,7.132,6.4,6.232,35.7-9.269L437.606,124h19.6l0.247,0.2,0.79-.2h23.877l-18.962,4.923,32.529,26.9,1.187-20.519Q489.992,129.653,483.1,124h48.535L800,329.32v54.825ZM491.964,220.252l1.44-24.9-21.875,5.017Zm-45.141-87.087L411.8,142.257l35.773,34.805Zm6.064,3.7L453.676,183l12.733,12.388,27.356-6.274,0.985-17.02Zm285.4,323.046,6.061-68.833L685.674,408.72ZM668.86,392.36l2.064-42.171-36.277,8.884Zm-39.286-38.222,41.656-10.2,1.1-22.389-42.345-35.64-13.113,4.478-5.027,46.5ZM606.38,331.571l4.221-39.045-32.83,11.21Zm-52.54-51.118,1.556-50.961-45.838,7.878Zm-56.186-54.665,6.586,6.408,51.343-8.825,0-.076-39.407-33.166L499.5,193.955Zm2.2-38.071,10.574-2.426-9.949-8.374Zm2.76-47.7-1.189,20.553,25.353,20.97,20.649-4.736Zm50.674,41.6-20.683,4.744,23.512,19.446,0.651-21.333Zm8.14,46.837-1.761,57.671,13.278,12.918,38.366-13.1,1.56-14.432-51.206-43.1Zm1.2-39.172-0.652,21.368,11.635,9.623,22.135-3.8ZM601.877,221.5L579.7,225.314l35.031,28.974,2.207-20.418Zm15.7,62.3,7.043-2.4-6.217-5.232Zm4.906-45.382-2.21,20.449,20.549,17,19.263-6.578Zm43.056,35.345-19.292,6.587,27,22.332,1.063-21.719Zm9.053,124.173,6.161,5.994,64.158-19.3,0.164-1.861-46.707-39.31L677,348.7Zm2.716-55.491,15.375-3.766L678.1,326.4Zm2.778-56.741-1.065,21.753,32.247,26.671,21.416-5.245Zm58.394,47.937-21.45,5.253,29.743,24.6,1.892-21.492Zm15.8,12.972-1.895,21.525,12.634,10.449,20.646-6.21ZM109,877l0.379,0.211L110,871l79-76.074V771l-15-11,14-22q-0.5-12.5-1-25l-35-18,21-30,17,13q20.515-27.354,41.032-54.709L213,600l75-92,18,13,28.534-29.426L334,428l0.048,0L317,416l92-112,15-19,10,13c0.008,0.359.015,0.718,0.023,1.077Q577.01,479.539,720,660l1,12-7.994-2.132q17.277,272.6,34.554,545.192L750,1215l8,103a983.039,983.039,0,0,1-679-18l-5-132q12.6-2.43,25.2-4.85Q104.1,1020.08,109,877ZM556.37,487.375L489.5,406.65q1.017,44.232,2.033,88.462l67.736,73.6Q557.819,528.042,556.37,487.375ZM560.815,612.2l-68.189-69.36q1.025,44.56,2.047,89.123L563.693,693Q562.255,652.6,560.815,612.2Zm3.515,98.687-69.212-59.566q1.5,65.4,3,130.8l70.487,48.929Q566.469,770.969,564.33,710.887Zm53.893-148.846Q595.84,535.022,573.458,508l2.787,79.152Q599.183,612.079,622.122,637L618,562Zm6.086,114.744-46.576-47.376q1.38,39.225,2.762,78.451l47.847,42.314Q626.326,713.48,624.309,676.785Zm52.876-43.569-36.209-43.709,2.958,71.193,37.147,40.361Q679.133,667.139,677.185,633.216Zm5.938,103.394L645.5,698.337l2.89,69.563,38.488,34.037Q685,769.273,683.123,736.61ZM649.047,783.8l4.409,106.153,40.071,27.815L687.746,817.1Zm52.7-120.933L687.528,645.7q1.8,33.141,3.607,66.282l14.357,15.6Zm5.7,98.488L693.023,746.68l3.471,63.763L711.033,823.3Q709.24,792.325,707.447,761.351Zm4.43,76.518L697.3,825.327l5.376,98.791,14.784,10.263Q714.671,886.125,711.877,837.869Zm6.539,112.959-14.841-10.271q2.616,48.086,5.233,96.173,7.485,3.345,14.969,6.7Q721.1,997.125,718.416,950.828Zm0.138,264.982,15.181-.39q-1.08-18.66-2.16-37.31l-15.208-2.49Q717.461,1195.72,718.554,1215.81Zm12.144-52.84q-2.768-47.805-5.536-95.62l-15.06-6.84q2.7,49.575,5.4,99.14Q723.1,1161.315,730.7,1162.97Zm-63.969,46.5,43.923,6.48q-1.2-20.835-2.392-41.66-21.643-3.54-43.287-7.09Zm-2.535-61.02,43.123,9.42q-2.909-50.64-5.816-101.27-20.957-9.525-41.913-19.04Zm-5.574-134.18q20.758,9.285,41.517,18.58-2.832-49.3-5.663-98.591l-40.337-27.915ZM597.8,1199.3q27.84,4.11,55.68,8.21-1.17-21.285-2.341-42.58-27.432-4.485-54.865-8.98Q597.037,1177.625,597.8,1199.3Zm-2.318-65.84,54.582,11.91q-3.16-57.51-6.321-115.01-26.367-11.97-52.735-23.95Q593.245,1069.935,595.481,1133.46Zm-5.275-149.8,52.254,23.382q-3.107-56.539-6.215-113.078l-50.426-34.9Q588.014,921.362,590.206,983.658Zm45.127-106.289q-3.039-55.3-6.079-110.607L581.11,725.328q2.065,58.634,4.129,117.268ZM581.67,1197.73q-0.792-22.215-1.583-44.44-35.607-5.82-71.216-11.66-0.4,26.7-.8,53.41Q544.872,1196.39,581.67,1197.73Zm-75.884-82.06L543,1122q18.128,3.96,36.254,7.91-2.331-65.475-4.664-130.957l-72.239-32.814Q504.069,1040.9,505.786,1115.67Zm68-139.36q-2.293-64.374-4.586-128.747L498.5,798.638l3.342,145.482Zm-121.945,165.1c0.721,0.2,1.441.39,2.161,0.59q1,22.005,2,44,22.461,3.96,44.923,7.93-0.407-26.865-.814-53.74-24.231-3.96-48.463-7.94Q451.742,1136.84,451.839,1141.41Zm-0.741-35.03q19.372,3.285,38.745,6.58-1.334-76.86-2.668-153.714l-39.569-17.974Q449.352,1023.825,451.1,1106.38Zm-3.949-186.734L486.8,937.387l-2.58-148.636-40.428-27.977Q445.47,840.209,447.149,919.646Zm-3.712-175.484,40.493,28.109-2.3-132.559L440.479,604.3Zm-3.4-160.513,41.247,36.477-1.569-90.414L438,487.279Q439.023,535.464,440.042,583.649Zm-3.128-147.877,41.967,45.6q-0.775-44.7-1.552-89.407L434.9,340.749ZM147.884,891.548q-0.194,11.005-.389,22.012l1.863,0.454,0.936-18.249Q149.09,893.656,147.884,891.548Zm21.861,13.558-11.517-4.98q-0.465,7.912-.931,15.824l12.626,3.08Q169.835,912.069,169.745,905.106Zm1.086,84.688-24.606-4.342q-0.547,30.987-1.095,61.978,12.435-6.21,24.87-12.43l1.4-.68Q171.116,1012.06,170.831,989.794ZM353.963,1136.61q38.977-.3,77.954-0.61-2.7-97.95-5.395-195.893l-73.941,32.041Q353.272,1054.381,353.963,1136.61ZM352.37,947.074l73.616-26.406q-2.179-79.116-4.358-158.232l-70.406,48Q351.8,878.757,352.37,947.074Zm-1.337-159.126,70.184-40.431q-1.87-67.913-3.742-135.823l-67.35,68.133Q350.58,733.889,351.033,787.948Zm-1.246-148.289,66.888-57.007q-1.416-51.429-2.833-102.859l-64.811,69.862Zm-1.138-135.387q32.041-32.416,64.082-64.835-1.135-41.228-2.272-82.455l-62.431,73.29ZM302,1136.5c0.667,0.17,1.333.33,2,.5q17.978-.135,35.956-0.28-0.526-62.505-1.051-125-17.452-2.37-34.9-4.72c-0.667,1.13-1.333,2.27-2,3.4v126.1Zm0-153.546q18.381,5.85,36.762,11.7-0.519-61.783-1.039-123.568L302,861.08V982.954ZM302,833.8l35.53,14.212q-0.438-52-.875-104.008L302,729.275V833.8Zm-62.021,310.38c3.341,0.61,6.681,1.21,10.021,1.82l20,24c2.667,0.33,5.333.67,8,1v-31q5-3.495,10-7l0.848,0.21q-0.381-54.435-.762-108.89l-48.417,2.64Q239.825,1085.58,239.979,1144.18ZM239.511,967.2L286,987l1.82-.7q-0.44-62.91-.88-125.821l-47.634,29.087Q239.408,928.382,239.511,967.2Zm-0.258-97.567L286.774,836.7q-0.338-48.207-.674-96.414l-47.071,44.829Q239.142,827.373,239.253,869.632ZM297,660l19,11q-1,15.5-2,31l22.381,9.325-1.248-148.464L286,555l-47,63-1.248,8.109L239,627v19l-35,42q-2.5,23-5,46l10,7,22-16ZM224.984,786.016l-34.653,33.741q-1.065,42.627-2.131,85.254l36.276-25.139Q224.731,832.943,224.984,786.016Zm-0.609,112.667-37.826,23.1q-1.244,53.19-2.488,106.38L207,1017l-3-24,19.908-7.963Q224.14,941.859,224.375,898.683Zm-1.338,247.5q0.3-56.43.61-112.87-20.046,8.22-40.092,16.46-1.194,51.075-2.389,102.14Zm-50.114,6.85q-0.451-35.31-.905-70.63-13.778,1.38-27.554,2.75-0.636,35.97-1.271,71.95Q158.058,1155.06,172.923,1153.03Zm-37-263.387-18.066-.583q-0.392,18.77-.784,37.539l18.452-14.441Q135.719,900.9,135.918,889.643ZM135.094,936.3L117,930.037q-0.393,18.759-.785,37.519l18.742-23.285Zm-0.832,47.1-18.32-2.955q-0.862,41.232-1.724,82.448,9.4-4.7,18.8-9.4Q133.643,1018.435,134.262,983.4Zm-3.1,175.343q0.657-37.185,1.313-74.37l-18.529-8.55q-0.894,42.765-1.788,85.52Q121.663,1160.035,131.164,1158.74Zm4.727-758.418,0.141,4.432C137.79,407.254,139,412.219,139,418a28.907,28.907,0,0,1-2.171,11.861l8.483,267.2c2.734,9.95,5.8,20.536,10.688,28.941v87l-36-53c-6.333-35.164-11.28-89.839,5-94,0.379-.1.739-0.145,1.1-0.2l7.708-232.841a2.028,2.028,0,0,1-.31.043c-3.038,0-5.5-6.716-5.5-15,0-5.846,1.229-10.9,3.018-13.374-0.01-.7-0.018-1.4-0.018-2.126,0-9.113.9-16.5,2-16.5,0.7,0,1.319,2.994,1.675,7.514L124.34,67.983c0.331-.093.66-0.188,0.992-0.278l10.07,317.19L146.016,64.275c0.334-.023.667-0.045,1-0.065Zm-1.066,32.222L127.106,665.69c9.08-.512,12.919,12.119,17.074,27.245l-8.3-261.467A4.827,4.827,0,0,1,134.825,432.544Z"/>
  </g>
  <g id="done">
    <rect id="question_bg" data-name="question bg" class="cls-4" x="103" y="1438" width="652" height="119" rx="15" ry="15"/>
    <text id="CONTINUE" class="cls-5" transform="translate(428.418 1515.649) scale(3.261)"><tspan x="0">CONTINUE</tspan></text>
  </g>
</svg>
